<svg width="1442" height="1367" viewBox="0 0 1442 1367" fill="none" xmlns="http://www.w3.org/2000/svg">
<g clip-path="url(#clip0_645_28231)">
<path d="M1398.89 57.5504L1440.5 -23.5895L1398.89 -105.19L1354 -105.19L1353.95 -105.16L1385.03 -44.5495L1296.49 -44.5496L1296.49 -4.54955L1385.78 -4.54955L1364.23 37.4805L1353.95 57.5204L1354 57.5504L1398.89 57.5504Z" fill="#0A1833"/>
<path d="M1398.89 262.17L1440.5 181.03L1398.89 99.4203L1354 99.4203L1353.95 99.4503L1385.03 160.07L1296.49 160.07L1296.49 200.07L1385.78 200.07L1364.23 242.1L1353.95 262.14L1354 262.17L1398.89 262.17Z" fill="#0A1833"/>
<path d="M1398.89 466.78L1440.5 385.64L1398.89 304.04L1354 304.04L1353.95 304.07L1385.03 364.68L1296.49 364.68L1296.49 404.68L1385.78 404.68L1364.23 446.71L1353.95 466.76L1354 466.78L1398.89 466.78Z" fill="#0A1833"/>
<path d="M1398.89 671.4L1440.5 590.26L1398.89 508.65L1354 508.65L1353.95 508.68L1385.03 569.3L1296.49 569.3L1296.49 609.3L1385.78 609.3L1364.23 651.33L1353.95 671.37L1354 671.4L1398.89 671.4Z" fill="#0A1833"/>
<path d="M1254.89 159.86L1296.5 78.7202L1254.89 -2.87985L1210 -2.87986L1209.95 -2.85985L1241.03 57.7602L1152.49 57.7602L1152.49 97.7602L1241.78 97.7602L1220.23 139.79L1209.95 159.83L1210 159.86L1254.89 159.86Z" fill="#0A1833"/>
<path d="M1254.89 364.48L1296.5 283.33L1254.89 201.73L1210 201.73L1209.95 201.76L1241.03 262.38L1152.49 262.38L1152.49 302.38L1241.78 302.38L1220.23 344.41L1209.95 364.45L1210 364.48L1254.89 364.48Z" fill="#0A1833"/>
<path d="M1254.89 569.09L1296.5 487.95L1254.89 406.35L1210 406.35L1209.95 406.37L1241.03 466.99L1152.49 466.99L1152.49 506.99L1241.78 506.99L1220.23 549.02L1209.95 569.06L1210 569.09L1254.89 569.09Z" fill="#0A1833"/>
<path d="M1110.89 57.5504L1152.5 -23.5896L1110.89 -105.19L1066 -105.19L1065.95 -105.16L1097.03 -44.5496L1008.49 -44.5496L1008.49 -4.54958L1097.78 -4.54958L1076.23 37.4804L1065.95 57.5204L1066 57.5504L1110.89 57.5504Z" fill="#0A1833"/>
<path d="M1110.89 262.17L1152.5 181.03L1110.89 99.4202L1066 99.4202L1065.95 99.4502L1097.03 160.07L1008.49 160.07L1008.49 200.07L1097.78 200.07L1076.23 242.1L1065.95 262.14L1066 262.17L1110.89 262.17Z" fill="#0A1833"/>
<path d="M1110.89 466.78L1152.5 385.64L1110.89 304.04L1066 304.04L1065.95 304.07L1097.03 364.68L1008.49 364.68L1008.49 404.68L1097.78 404.68L1076.23 446.71L1065.95 466.76L1066 466.78L1110.89 466.78Z" fill="#0A1833"/>
<path d="M1110.89 671.4L1152.5 590.26L1110.89 508.65L1066 508.65L1065.95 508.68L1097.03 569.3L1008.49 569.3L1008.49 609.3L1097.78 609.3L1076.23 651.33L1065.95 671.37L1066 671.4L1110.89 671.4Z" fill="#0A1833"/>
<path d="M966.89 159.86L1008.5 78.7201L966.89 -2.87987L922 -2.87987L921.95 -2.85987L953.03 57.7601L864.49 57.7601L864.49 97.7601L953.78 97.7601L932.23 139.79L921.95 159.83L922 159.86L966.89 159.86Z" fill="#0A1833"/>
<path d="M966.89 364.48L1008.5 283.33L966.89 201.73L922 201.73L921.95 201.76L953.03 262.38L864.49 262.38L864.49 302.38L953.78 302.38L932.23 344.41L921.95 364.45L922 364.48L966.89 364.48Z" fill="#0A1833"/>
<path d="M966.89 569.09L1008.5 487.95L966.89 406.35L922 406.35L921.95 406.37L953.03 466.99L864.49 466.99L864.49 506.99L953.78 506.99L932.23 549.02L921.95 569.06L922 569.09L966.89 569.09Z" fill="#0A1833"/>
<path d="M822.87 57.5497L864.49 -23.5903L822.87 -105.19L777.99 -105.19L777.93 -105.16L809.02 -44.5503L720.47 -44.5503L720.47 -4.55031L809.77 -4.55031L788.21 37.4797L777.93 57.5197L777.99 57.5497L822.87 57.5497Z" fill="#0A1833"/>
<path d="M822.87 262.17L864.49 181.03L822.87 99.4204L777.99 99.4204L777.93 99.4504L809.02 160.07L720.47 160.07L720.47 200.07L809.77 200.07L788.21 242.1L777.93 262.14L777.99 262.17L822.87 262.17Z" fill="#0A1833"/>
<path d="M822.87 466.78L864.49 385.64L822.87 304.04L777.99 304.04L777.93 304.07L809.02 364.68L720.47 364.68L720.47 404.68L809.77 404.68L788.21 446.71L777.93 466.76L777.99 466.78L822.87 466.78Z" fill="#0A1833"/>
<path d="M822.87 671.4L864.49 590.26L822.87 508.65L777.99 508.65L777.93 508.68L809.02 569.3L720.47 569.3L720.47 609.3L809.77 609.3L788.21 651.33L777.93 671.37L777.99 671.4L822.87 671.4Z" fill="#0A1833"/>
<path d="M1398.89 878.451L1440.5 797.311L1398.89 715.711L1354 715.711L1353.95 715.741L1385.03 776.351L1296.49 776.351L1296.49 816.351L1385.78 816.351L1364.23 858.381L1353.95 878.421L1354 878.451L1398.89 878.451Z" fill="#0A1833"/>
<path d="M1398.89 1083.07L1440.5 1001.93L1398.89 920.32L1354 920.32L1353.95 920.35L1385.03 980.97L1296.49 980.97L1296.49 1020.97L1385.78 1020.97L1364.23 1063L1353.95 1083.04L1354 1083.07L1398.89 1083.07Z" fill="#0A1833"/>
<path d="M1398.89 1287.68L1440.5 1206.54L1398.89 1124.94L1354 1124.94L1353.95 1124.97L1385.03 1185.58L1296.49 1185.58L1296.49 1225.58L1385.78 1225.58L1364.23 1267.61L1353.95 1287.66L1354 1287.68L1398.89 1287.68Z" fill="#0A1833"/>
<path d="M1398.89 1492.3L1440.5 1411.16L1398.89 1329.55L1354 1329.55L1353.95 1329.58L1385.03 1390.2L1296.49 1390.2L1296.49 1430.2L1385.78 1430.2L1364.23 1472.23L1353.95 1492.27L1354 1492.3L1398.89 1492.3Z" fill="#0A1833"/>
<path d="M1254.89 776.15L1296.5 695L1254.89 613.4L1210 613.4L1209.95 613.43L1241.03 674.05L1152.49 674.05L1152.49 714.05L1241.78 714.05L1220.23 756.08L1209.95 776.12L1210 776.15L1254.89 776.15Z" fill="#0A1833"/>
<path d="M1254.89 980.76L1296.5 899.62L1254.89 818.02L1210 818.02L1209.95 818.04L1241.03 878.66L1152.49 878.66L1152.49 918.66L1241.78 918.66L1220.23 960.69L1209.95 980.73L1210 980.76L1254.89 980.76Z" fill="#0A1833"/>
<path d="M1254.89 1185.38L1296.5 1104.23L1254.89 1022.63L1210 1022.63L1209.95 1022.66L1241.03 1083.28L1152.49 1083.28L1152.49 1123.28L1241.78 1123.28L1220.23 1165.31L1209.95 1185.35L1210 1185.38L1254.89 1185.38Z" fill="#0A1833"/>
<path d="M1254.89 1389.99L1296.5 1308.85L1254.89 1227.25L1210 1227.25L1209.95 1227.27L1241.03 1287.89L1152.49 1287.89L1152.49 1327.89L1241.78 1327.89L1220.23 1369.92L1209.95 1389.96L1210 1389.99L1254.89 1389.99Z" fill="#0A1833"/>
<path d="M1110.89 878.451L1152.5 797.311L1110.89 715.711L1066 715.711L1065.95 715.741L1097.03 776.351L1008.49 776.351L1008.49 816.351L1097.78 816.351L1076.23 858.381L1065.95 878.421L1066 878.451L1110.89 878.451Z" fill="#0A1833"/>
<path d="M1110.89 1083.07L1152.5 1001.93L1110.89 920.32L1066 920.32L1065.95 920.35L1097.03 980.97L1008.49 980.97L1008.49 1020.97L1097.78 1020.97L1076.23 1063L1065.95 1083.04L1066 1083.07L1110.89 1083.07Z" fill="#0A1833"/>
<path d="M1110.89 1287.68L1152.5 1206.54L1110.89 1124.94L1066 1124.94L1065.95 1124.97L1097.03 1185.58L1008.49 1185.58L1008.49 1225.58L1097.78 1225.58L1076.23 1267.61L1065.95 1287.66L1066 1287.68L1110.89 1287.68Z" fill="#0A1833"/>
<path d="M1110.89 1492.3L1152.5 1411.16L1110.89 1329.55L1066 1329.55L1065.95 1329.58L1097.03 1390.2L1008.49 1390.2L1008.49 1430.2L1097.78 1430.2L1076.23 1472.23L1065.95 1492.27L1066 1492.3L1110.89 1492.3Z" fill="#0A1833"/>
<path d="M966.89 776.15L1008.5 695L966.89 613.4L922 613.4L921.95 613.43L953.03 674.05L864.49 674.05L864.49 714.05L953.78 714.05L932.23 756.08L921.95 776.12L922 776.15L966.89 776.15Z" fill="#0A1833"/>
<path d="M966.89 980.76L1008.5 899.62L966.89 818.02L922 818.02L921.95 818.04L953.03 878.66L864.49 878.66L864.49 918.66L953.78 918.66L932.23 960.69L921.95 980.73L922 980.76L966.89 980.76Z" fill="#0A1833"/>
<path d="M966.89 1185.38L1008.5 1104.23L966.89 1022.63L922 1022.63L921.95 1022.66L953.03 1083.28L864.49 1083.28L864.49 1123.28L953.78 1123.28L932.23 1165.31L921.95 1185.35L922 1185.38L966.89 1185.38Z" fill="#0A1833"/>
<path d="M966.89 1389.99L1008.5 1308.85L966.89 1227.25L922 1227.25L921.95 1227.27L953.03 1287.89L864.49 1287.89L864.49 1327.89L953.78 1327.89L932.23 1369.92L921.95 1389.96L922 1389.99L966.89 1389.99Z" fill="#0A1833"/>
<path d="M822.87 878.45L864.49 797.31L822.87 715.71L777.99 715.71L777.93 715.74L809.02 776.35L720.47 776.35L720.47 816.35L809.77 816.35L788.21 858.38L777.93 878.42L777.99 878.45L822.87 878.45Z" fill="#0A1833"/>
<path d="M822.87 1083.07L864.49 1001.93L822.87 920.32L777.99 920.32L777.93 920.35L809.02 980.97L720.47 980.97L720.47 1020.97L809.77 1020.97L788.21 1063L777.93 1083.04L777.99 1083.07L822.87 1083.07Z" fill="#0A1833"/>
<path d="M822.87 1287.68L864.49 1206.54L822.87 1124.94L777.99 1124.94L777.93 1124.97L809.02 1185.58L720.47 1185.58L720.47 1225.58L809.77 1225.58L788.21 1267.61L777.93 1287.66L777.99 1287.68L822.87 1287.68Z" fill="#0A1833"/>
<path d="M822.87 1492.3L864.49 1411.16L822.87 1329.55L777.99 1329.55L777.93 1329.58L809.02 1390.2L720.47 1390.2L720.47 1430.2L809.77 1430.2L788.21 1472.23L777.93 1492.27L777.99 1492.3L822.87 1492.3Z" fill="#0A1833"/>
<path d="M678.89 159.551L720.5 78.4108L678.89 -3.18926L634 -3.18926L633.95 -3.15926L665.03 57.4507L576.49 57.4507L576.49 97.4507L665.78 97.4507L644.23 139.481L633.95 159.521L634 159.551L678.89 159.551Z" fill="#0A1833"/>
<path d="M678.89 364.171L720.5 283.031L678.89 201.421L634 201.421L633.95 201.451L665.03 262.071L576.49 262.071L576.49 302.071L665.78 302.071L644.23 344.101L633.95 364.141L634 364.171L678.89 364.171Z" fill="#0A1833"/>
<path d="M678.89 568.78L720.5 487.64L678.89 406.04L634 406.04L633.95 406.07L665.03 466.68L576.49 466.68L576.49 506.68L665.78 506.68L644.23 548.71L633.95 568.76L634 568.78L678.89 568.78Z" fill="#0A1833"/>
<path d="M678.89 773.4L720.5 692.26L678.89 610.65L634 610.65L633.95 610.68L665.03 671.3L576.49 671.3L576.49 711.3L665.78 711.3L644.23 753.33L633.95 773.37L634 773.4L678.89 773.4Z" fill="#D8ED58"/>
<path d="M534.89 57.2503L576.5 -23.8997L534.89 -105.5L490 -105.5L489.95 -105.47L521.03 -44.8497L432.49 -44.8497L432.49 -4.84967L521.78 -4.84967L500.23 37.1803L489.95 57.2203L490 57.2503L534.89 57.2503Z" fill="#0A1833"/>
<path d="M534.89 261.86L576.5 180.72L534.89 99.1204L490 99.1204L489.95 99.1404L521.03 159.76L432.49 159.76L432.49 199.76L521.78 199.76L500.23 241.79L489.95 261.83L490 261.86L534.89 261.86Z" fill="#0A1833"/>
<path d="M534.89 466.48L576.5 385.33L534.89 303.73L490 303.73L489.95 303.76L521.03 364.38L432.49 364.38L432.49 404.38L521.78 404.38L500.23 446.41L489.95 466.45L490 466.48L534.89 466.48Z" fill="#0A1833"/>
<path d="M534.89 671.09L576.5 589.95L534.89 508.35L490 508.35L489.95 508.37L521.03 568.99L432.49 568.99L432.49 608.99L521.78 608.99L500.23 651.02L489.95 671.06L490 671.09L534.89 671.09Z" fill="#0A1833"/>
<path d="M390.89 159.551L432.5 78.4107L390.89 -3.18929L346 -3.18929L345.95 -3.15929L377.03 57.4507L288.49 57.4507L288.49 97.4507L377.78 97.4507L356.23 139.481L345.95 159.521L346 159.551L390.89 159.551Z" fill="#0A1833"/>
<path d="M390.89 364.171L432.5 283.031L390.89 201.421L346 201.421L345.95 201.451L377.03 262.071L288.49 262.071L288.49 302.071L377.78 302.071L356.23 344.101L345.95 364.141L346 364.171L390.89 364.171Z" fill="#0A1833"/>
<path d="M390.89 568.78L432.5 487.64L390.89 406.04L346 406.04L345.95 406.07L377.03 466.68L288.49 466.68L288.49 506.68L377.78 506.68L356.23 548.71L345.95 568.76L346 568.78L390.89 568.78Z" fill="#0A1833"/>
<path d="M390.89 773.4L432.5 692.26L390.89 610.65L346 610.65L345.95 610.68L377.03 671.3L288.49 671.3L288.49 711.3L377.78 711.3L356.23 753.33L345.95 773.37L346 773.4L390.89 773.4Z" fill="#0A1833"/>
<path d="M246.89 57.2503L288.5 -23.8997L246.89 -105.5L202 -105.5L201.95 -105.47L233.03 -44.8497L144.49 -44.8497L144.49 -4.8497L233.78 -4.8497L212.23 37.1803L201.95 57.2203L202 57.2503L246.89 57.2503Z" fill="#0A1833"/>
<path d="M246.89 261.86L288.5 180.72L246.89 99.1204L202 99.1204L201.95 99.1404L233.03 159.76L144.49 159.76L144.49 199.76L233.78 199.76L212.23 241.79L201.95 261.83L202 261.86L246.89 261.86Z" fill="#0A1833"/>
<path d="M246.89 466.48L288.5 385.33L246.89 303.73L202 303.73L201.95 303.76L233.03 364.38L144.49 364.38L144.49 404.38L233.78 404.38L212.23 446.41L201.95 466.45L202 466.48L246.89 466.48Z" fill="#0A1833"/>
<path d="M246.89 671.09L288.5 589.95L246.89 508.35L202 508.35L201.95 508.37L233.03 568.99L144.49 568.99L144.49 608.99L233.78 608.99L212.23 651.02L201.95 671.06L202 671.09L246.89 671.09Z" fill="#0A1833"/>
<path d="M102.87 159.55L144.49 78.41L102.87 -3.19005L57.9902 -3.19005L57.9302 -3.16005L89.0203 57.4499L0.470212 57.4499L0.47021 97.4499L89.7703 97.4499L68.2103 139.48L57.9302 159.52L57.9902 159.55L102.87 159.55Z" fill="#0A1833"/>
<path d="M102.87 364.171L144.49 283.031L102.87 201.421L57.9902 201.421L57.9302 201.451L89.0203 262.071L0.470212 262.071L0.47021 302.071L89.7703 302.071L68.2103 344.101L57.9302 364.141L57.9902 364.171L102.87 364.171Z" fill="#0A1833"/>
<path d="M102.87 568.781L144.49 487.641L102.87 406.041L57.9902 406.041L57.9302 406.071L89.0203 466.681L0.470212 466.681L0.47021 506.681L89.7703 506.681L68.2103 548.711L57.9302 568.761L57.9902 568.781L102.87 568.781Z" fill="#0A1833"/>
<path d="M102.87 773.4L144.49 692.26L102.87 610.65L57.9902 610.65L57.9302 610.68L89.0203 671.3L0.470212 671.3L0.47021 711.3L89.7703 711.3L68.2103 753.33L57.9302 773.37L57.9902 773.4L102.87 773.4Z" fill="#0A1833"/>
<path d="M678.89 977.451L720.5 896.311L678.89 814.711L634 814.711L633.95 814.741L665.03 875.351L576.49 875.351L576.49 915.351L665.78 915.351L644.23 957.381L633.95 977.421L634 977.451L678.89 977.451Z" fill="#0A1833"/>
<path d="M678.89 1182.07L720.5 1100.93L678.89 1019.32L634 1019.32L633.95 1019.35L665.03 1079.97L576.49 1079.97L576.49 1119.97L665.78 1119.97L644.23 1162L633.95 1182.04L634 1182.07L678.89 1182.07Z" fill="#0A1833"/>
<path d="M678.89 1386.68L720.5 1305.54L678.89 1223.94L634 1223.94L633.95 1223.97L665.03 1284.58L576.49 1284.58L576.49 1324.58L665.78 1324.58L644.23 1366.61L633.95 1386.66L634 1386.68L678.89 1386.68Z" fill="#0A1833"/>
<path d="M534.89 875.151L576.5 794.001L534.89 712.401L490 712.401L489.95 712.431L521.03 773.051L432.49 773.051L432.49 813.051L521.78 813.051L500.23 855.081L489.95 875.121L490 875.151L534.89 875.151Z" fill="#0A1833"/>
<path d="M534.89 1079.76L576.5 998.621L534.89 917.021L490 917.021L489.95 917.041L521.03 977.661L432.49 977.661L432.49 1017.66L521.78 1017.66L500.23 1059.69L489.95 1079.73L490 1079.76L534.89 1079.76Z" fill="#0A1833"/>
<path d="M534.89 1284.38L576.5 1203.23L534.89 1121.63L490 1121.63L489.95 1121.66L521.03 1182.28L432.49 1182.28L432.49 1222.28L521.78 1222.28L500.23 1264.31L489.95 1284.35L490 1284.38L534.89 1284.38Z" fill="#0A1833"/>
<path d="M534.89 1488.99L576.5 1407.85L534.89 1326.25L490 1326.25L489.95 1326.27L521.03 1386.89L432.49 1386.89L432.49 1426.89L521.78 1426.89L500.23 1468.92L489.95 1488.96L490 1488.99L534.89 1488.99Z" fill="#0A1833"/>
<path d="M390.89 977.451L432.5 896.311L390.89 814.711L346 814.711L345.95 814.741L377.03 875.351L288.49 875.351L288.49 915.351L377.78 915.351L356.23 957.381L345.95 977.421L346 977.451L390.89 977.451Z" fill="#0A1833"/>
<path d="M390.89 1182.07L432.5 1100.93L390.89 1019.32L346 1019.32L345.95 1019.35L377.03 1079.97L288.49 1079.97L288.49 1119.97L377.78 1119.97L356.23 1162L345.95 1182.04L346 1182.07L390.89 1182.07Z" fill="#0A1833"/>
<path d="M390.89 1386.68L432.5 1305.54L390.89 1223.94L346 1223.94L345.95 1223.97L377.03 1284.58L288.49 1284.58L288.49 1324.58L377.78 1324.58L356.23 1366.61L345.95 1386.66L346 1386.68L390.89 1386.68Z" fill="#0A1833"/>
<path d="M246.89 875.151L288.5 794.001L246.89 712.401L202 712.401L201.95 712.431L233.03 773.051L144.49 773.051L144.49 813.051L233.78 813.051L212.23 855.081L201.95 875.121L202 875.151L246.89 875.151Z" fill="#0A1833"/>
<path d="M246.89 1079.76L288.5 998.621L246.89 917.021L202 917.021L201.95 917.041L233.03 977.661L144.49 977.661L144.49 1017.66L233.78 1017.66L212.23 1059.69L201.95 1079.73L202 1079.76L246.89 1079.76Z" fill="#0A1833"/>
<path d="M246.89 1284.38L288.5 1203.23L246.89 1121.63L202 1121.63L201.95 1121.66L233.03 1182.28L144.49 1182.28L144.49 1222.28L233.78 1222.28L212.23 1264.31L201.95 1284.35L202 1284.38L246.89 1284.38Z" fill="#0A1833"/>
<path d="M246.89 1488.99L288.5 1407.85L246.89 1326.25L202 1326.25L201.95 1326.27L233.03 1386.89L144.49 1386.89L144.49 1426.89L233.78 1426.89L212.23 1468.92L201.95 1488.96L202 1488.99L246.89 1488.99Z" fill="#0A1833"/>
<path d="M102.87 977.45L144.49 896.31L102.87 814.71L57.9902 814.71L57.9302 814.74L89.0203 875.35L0.470212 875.35L0.47021 915.35L89.7703 915.35L68.2103 957.38L57.9302 977.42L57.9902 977.45L102.87 977.45Z" fill="#0A1833"/>
<path d="M102.87 1182.07L144.49 1100.93L102.87 1019.32L57.9902 1019.32L57.9302 1019.35L89.0203 1079.97L0.470212 1079.97L0.47021 1119.97L89.7703 1119.97L68.2103 1162L57.9302 1182.04L57.9902 1182.07L102.87 1182.07Z" fill="#0A1833"/>
<path d="M102.87 1386.68L144.49 1305.54L102.87 1223.94L57.9902 1223.94L57.9302 1223.97L89.0203 1284.58L0.470212 1284.58L0.47021 1324.58L89.7703 1324.58L68.2103 1366.61L57.9302 1386.66L57.9902 1386.68L102.87 1386.68Z" fill="#0A1833"/>
<path d="M678.89 159.551L720.5 78.4108L678.89 -3.18926L634 -3.18926L633.95 -3.15926L665.03 57.4507L576.49 57.4507L576.49 97.4507L665.78 97.4507L644.23 139.481L633.95 159.521L634 159.551L678.89 159.551Z" fill="#0A1833"/>
<path d="M678.89 364.171L720.5 283.031L678.89 201.421L634 201.421L633.95 201.451L665.03 262.071L576.49 262.071L576.49 302.071L665.78 302.071L644.23 344.101L633.95 364.141L634 364.171L678.89 364.171Z" fill="#0A1833"/>
<path d="M678.89 568.78L720.5 487.64L678.89 406.04L634 406.04L633.95 406.07L665.03 466.68L576.49 466.68L576.49 506.68L665.78 506.68L644.23 548.71L633.95 568.76L634 568.78L678.89 568.78Z" fill="#0A1833"/>
<path d="M678.89 773.4L720.5 692.26L678.89 610.65L634 610.65L633.95 610.68L665.03 671.3L576.49 671.3L576.49 711.3L665.78 711.3L644.23 753.33L633.95 773.37L634 773.4L678.89 773.4Z" fill="#D8ED58"/>
<path d="M534.89 57.2503L576.5 -23.8997L534.89 -105.5L490 -105.5L489.95 -105.47L521.03 -44.8497L432.49 -44.8497L432.49 -4.84967L521.78 -4.84967L500.23 37.1803L489.95 57.2203L490 57.2503L534.89 57.2503Z" fill="#0A1833"/>
<path d="M534.89 261.86L576.5 180.72L534.89 99.1204L490 99.1204L489.95 99.1404L521.03 159.76L432.49 159.76L432.49 199.76L521.78 199.76L500.23 241.79L489.95 261.83L490 261.86L534.89 261.86Z" fill="#0A1833"/>
<path d="M534.89 466.48L576.5 385.33L534.89 303.73L490 303.73L489.95 303.76L521.03 364.38L432.49 364.38L432.49 404.38L521.78 404.38L500.23 446.41L489.95 466.45L490 466.48L534.89 466.48Z" fill="#0A1833"/>
<path d="M534.89 671.09L576.5 589.95L534.89 508.35L490 508.35L489.95 508.37L521.03 568.99L432.49 568.99L432.49 608.99L521.78 608.99L500.23 651.02L489.95 671.06L490 671.09L534.89 671.09Z" fill="#0A1833"/>
<path d="M390.89 159.551L432.5 78.4107L390.89 -3.18929L346 -3.18929L345.95 -3.15929L377.03 57.4507L288.49 57.4507L288.49 97.4507L377.78 97.4507L356.23 139.481L345.95 159.521L346 159.551L390.89 159.551Z" fill="#0A1833"/>
<path d="M390.89 364.171L432.5 283.031L390.89 201.421L346 201.421L345.95 201.451L377.03 262.071L288.49 262.071L288.49 302.071L377.78 302.071L356.23 344.101L345.95 364.141L346 364.171L390.89 364.171Z" fill="#0A1833"/>
<path d="M390.89 568.78L432.5 487.64L390.89 406.04L346 406.04L345.95 406.07L377.03 466.68L288.49 466.68L288.49 506.68L377.78 506.68L356.23 548.71L345.95 568.76L346 568.78L390.89 568.78Z" fill="#0A1833"/>
<path d="M390.89 773.4L432.5 692.26L390.89 610.65L346 610.65L345.95 610.68L377.03 671.3L288.49 671.3L288.49 711.3L377.78 711.3L356.23 753.33L345.95 773.37L346 773.4L390.89 773.4Z" fill="#0A1833"/>
<path d="M246.89 57.2503L288.5 -23.8997L246.89 -105.5L202 -105.5L201.95 -105.47L233.03 -44.8497L144.49 -44.8497L144.49 -4.8497L233.78 -4.8497L212.23 37.1803L201.95 57.2203L202 57.2503L246.89 57.2503Z" fill="#0A1833"/>
<path d="M246.89 261.86L288.5 180.72L246.89 99.1204L202 99.1204L201.95 99.1404L233.03 159.76L144.49 159.76L144.49 199.76L233.78 199.76L212.23 241.79L201.95 261.83L202 261.86L246.89 261.86Z" fill="#0A1833"/>
<path d="M246.89 466.48L288.5 385.33L246.89 303.73L202 303.73L201.95 303.76L233.03 364.38L144.49 364.38L144.49 404.38L233.78 404.38L212.23 446.41L201.95 466.45L202 466.48L246.89 466.48Z" fill="#0A1833"/>
<path d="M246.89 671.09L288.5 589.95L246.89 508.35L202 508.35L201.95 508.37L233.03 568.99L144.49 568.99L144.49 608.99L233.78 608.99L212.23 651.02L201.95 671.06L202 671.09L246.89 671.09Z" fill="#0A1833"/>
<path d="M102.87 159.55L144.49 78.41L102.87 -3.19005L57.9902 -3.19005L57.9302 -3.16005L89.0203 57.4499L0.470212 57.4499L0.47021 97.4499L89.7703 97.4499L68.2103 139.48L57.9302 159.52L57.9902 159.55L102.87 159.55Z" fill="#0A1833"/>
<path d="M102.87 364.171L144.49 283.031L102.87 201.421L57.9902 201.421L57.9302 201.451L89.0203 262.071L0.470212 262.071L0.47021 302.071L89.7703 302.071L68.2103 344.101L57.9302 364.141L57.9902 364.171L102.87 364.171Z" fill="#0A1833"/>
<path d="M102.87 568.781L144.49 487.641L102.87 406.041L57.9902 406.041L57.9302 406.071L89.0203 466.681L0.470212 466.681L0.47021 506.681L89.7703 506.681L68.2103 548.711L57.9302 568.761L57.9902 568.781L102.87 568.781Z" fill="#0A1833"/>
<path d="M102.87 773.4L144.49 692.26L102.87 610.65L57.9902 610.65L57.9302 610.68L89.0203 671.3L0.470212 671.3L0.47021 711.3L89.7703 711.3L68.2103 753.33L57.9302 773.37L57.9902 773.4L102.87 773.4Z" fill="#0A1833"/>
<path d="M678.89 977.451L720.5 896.311L678.89 814.711L634 814.711L633.95 814.741L665.03 875.351L576.49 875.351L576.49 915.351L665.78 915.351L644.23 957.381L633.95 977.421L634 977.451L678.89 977.451Z" fill="#0A1833"/>
<path d="M678.89 1182.07L720.5 1100.93L678.89 1019.32L634 1019.32L633.95 1019.35L665.03 1079.97L576.49 1079.97L576.49 1119.97L665.78 1119.97L644.23 1162L633.95 1182.04L634 1182.07L678.89 1182.07Z" fill="#0A1833"/>
<path d="M678.89 1386.68L720.5 1305.54L678.89 1223.94L634 1223.94L633.95 1223.97L665.03 1284.58L576.49 1284.58L576.49 1324.58L665.78 1324.58L644.23 1366.61L633.95 1386.66L634 1386.68L678.89 1386.68Z" fill="#0A1833"/>
<path d="M534.89 875.151L576.5 794.001L534.89 712.401L490 712.401L489.95 712.431L521.03 773.051L432.49 773.051L432.49 813.051L521.78 813.051L500.23 855.081L489.95 875.121L490 875.151L534.89 875.151Z" fill="#0A1833"/>
<path d="M534.89 1079.76L576.5 998.621L534.89 917.021L490 917.021L489.95 917.041L521.03 977.661L432.49 977.661L432.49 1017.66L521.78 1017.66L500.23 1059.69L489.95 1079.73L490 1079.76L534.89 1079.76Z" fill="#0A1833"/>
<path d="M534.89 1284.38L576.5 1203.23L534.89 1121.63L490 1121.63L489.95 1121.66L521.03 1182.28L432.49 1182.28L432.49 1222.28L521.78 1222.28L500.23 1264.31L489.95 1284.35L490 1284.38L534.89 1284.38Z" fill="#0A1833"/>
<path d="M534.89 1488.99L576.5 1407.85L534.89 1326.25L490 1326.25L489.95 1326.27L521.03 1386.89L432.49 1386.89L432.49 1426.89L521.78 1426.89L500.23 1468.92L489.95 1488.96L490 1488.99L534.89 1488.99Z" fill="#0A1833"/>
<path d="M390.89 977.451L432.5 896.311L390.89 814.711L346 814.711L345.95 814.741L377.03 875.351L288.49 875.351L288.49 915.351L377.78 915.351L356.23 957.381L345.95 977.421L346 977.451L390.89 977.451Z" fill="#0A1833"/>
<path d="M390.89 1182.07L432.5 1100.93L390.89 1019.32L346 1019.32L345.95 1019.35L377.03 1079.97L288.49 1079.97L288.49 1119.97L377.78 1119.97L356.23 1162L345.95 1182.04L346 1182.07L390.89 1182.07Z" fill="#0A1833"/>
<path d="M390.89 1386.68L432.5 1305.54L390.89 1223.94L346 1223.94L345.95 1223.97L377.03 1284.58L288.49 1284.58L288.49 1324.58L377.78 1324.58L356.23 1366.61L345.95 1386.66L346 1386.68L390.89 1386.68Z" fill="#0A1833"/>
<path d="M246.89 875.151L288.5 794.001L246.89 712.401L202 712.401L201.95 712.431L233.03 773.051L144.49 773.051L144.49 813.051L233.78 813.051L212.23 855.081L201.95 875.121L202 875.151L246.89 875.151Z" fill="#0A1833"/>
<path d="M246.89 1079.76L288.5 998.621L246.89 917.021L202 917.021L201.95 917.041L233.03 977.661L144.49 977.661L144.49 1017.66L233.78 1017.66L212.23 1059.69L201.95 1079.73L202 1079.76L246.89 1079.76Z" fill="#0A1833"/>
<path d="M246.89 1284.38L288.5 1203.23L246.89 1121.63L202 1121.63L201.95 1121.66L233.03 1182.28L144.49 1182.28L144.49 1222.28L233.78 1222.28L212.23 1264.31L201.95 1284.35L202 1284.38L246.89 1284.38Z" fill="#0A1833"/>
<path d="M246.89 1488.99L288.5 1407.85L246.89 1326.25L202 1326.25L201.95 1326.27L233.03 1386.89L144.49 1386.89L144.49 1426.89L233.78 1426.89L212.23 1468.92L201.95 1488.96L202 1488.99L246.89 1488.99Z" fill="#0A1833"/>
<path d="M102.87 977.45L144.49 896.31L102.87 814.71L57.9902 814.71L57.9302 814.74L89.0203 875.35L0.470212 875.35L0.47021 915.35L89.7703 915.35L68.2103 957.38L57.9302 977.42L57.9902 977.45L102.87 977.45Z" fill="#0A1833"/>
<path d="M102.87 1182.07L144.49 1100.93L102.87 1019.32L57.9902 1019.32L57.9302 1019.35L89.0203 1079.97L0.470212 1079.97L0.47021 1119.97L89.7703 1119.97L68.2103 1162L57.9302 1182.04L57.9902 1182.07L102.87 1182.07Z" fill="#0A1833"/>
<path d="M102.87 1386.68L144.49 1305.54L102.87 1223.94L57.9902 1223.94L57.9302 1223.97L89.0203 1284.58L0.470212 1284.58L0.47021 1324.58L89.7703 1324.58L68.2103 1366.61L57.9302 1386.66L57.9902 1386.68L102.87 1386.68Z" fill="#0A1833"/>
</g>
<defs>
<clipPath id="clip0_645_28231">
<rect width="1366" height="1441" fill="white" transform="translate(1441.5 0.500031) rotate(90)"/>
</clipPath>
</defs>
</svg>
