<svg width="562" height="503" viewBox="0 0 562 503" fill="none" xmlns="http://www.w3.org/2000/svg">
<g clip-path="url(#clip0_637_44180)">
<path d="M664.359 131.777L705.969 50.6367L664.359 -30.9633L619.469 -30.9633L619.419 -30.9333L650.499 29.6767L561.959 29.6767V69.6767L651.249 69.6767L629.699 111.707L619.419 131.747L619.469 131.777H664.359Z" fill="#0A1833"/>
<path d="M664.359 336.396L705.969 255.256L664.359 173.646H619.469L619.419 173.676L650.499 234.296H561.959V274.296H651.249L629.699 316.326L619.419 336.366L619.469 336.396H664.359Z" fill="#0A1833"/>
<path d="M664.359 541.007L705.969 459.867L664.359 378.267H619.469L619.419 378.297L650.499 438.907H561.959V478.907H651.249L629.699 520.937L619.419 540.987L619.469 541.007H664.359Z" fill="#0A1833"/>
<path d="M520.359 29.4763L561.969 -51.6737L520.359 -133.274H475.469L475.419 -133.244L506.499 -72.6237L417.959 -72.6237V-32.6237L507.249 -32.6237L485.699 9.40631L475.419 29.4463L475.469 29.4763H520.359Z" fill="#0A1833"/>
<path d="M520.359 234.086L561.969 152.946L520.359 71.3464L475.469 71.3464L475.419 71.3664L506.499 131.986H417.959V171.986H507.249L485.699 214.016L475.419 234.056L475.469 234.086H520.359Z" fill="#0A1833"/>
<path d="M520.359 438.706L561.969 357.556L520.359 275.956H475.469L475.419 275.986L506.499 336.606H417.959V376.606H507.249L485.699 418.636L475.419 438.676L475.469 438.706H520.359Z" fill="#0A1833"/>
<path d="M520.359 643.316L561.969 562.176L520.359 480.576H475.469L475.419 480.596L506.499 541.216H417.959V581.216H507.249L485.699 623.246L475.419 643.286L475.469 643.316H520.359Z" fill="#0A1833"/>
<path d="M376.338 131.776L417.958 50.636L376.338 -30.964L331.458 -30.964L331.398 -30.934L362.488 29.676L273.938 29.676V69.676L363.238 69.676L341.678 111.706L331.398 131.746L331.458 131.776H376.338Z" fill="#0A1833"/>
<path d="M376.339 336.396L417.959 255.256L376.339 173.646H331.459L331.399 173.676L362.489 234.296H273.939V274.296H363.239L341.679 316.326L331.399 336.366L331.459 336.396H376.339Z" fill="#D8ED58"/>
<path d="M376.339 541.007L417.959 459.867L376.339 378.267H331.459L331.399 378.297L362.489 438.907H273.939V478.907H363.239L341.679 520.937L331.399 540.987L331.459 541.007H376.339Z" fill="#0A1833"/>
<path d="M232.359 26.7266L273.969 -54.4135L232.359 -136.023H187.469L187.419 -135.993L218.499 -75.3735L129.959 -75.3735V-35.3735L219.249 -35.3735L197.699 6.65656L187.419 26.6965L187.469 26.7266H232.359Z" fill="#D8ED58"/>
<path d="M232.359 230.777L273.969 149.637L232.359 68.0372L187.469 68.0372L187.419 68.0672L218.499 128.677H129.959V168.677H219.249L197.699 210.707L187.419 230.747L187.469 230.777H232.359Z" fill="#0A1833"/>
<path d="M232.359 435.397L273.969 354.257L232.359 272.647H187.469L187.419 272.677L218.499 333.297H129.959V373.297H219.249L197.699 415.327L187.419 435.367L187.469 435.397H232.359Z" fill="#0A1833"/>
<path d="M232.359 640.007L273.969 558.867L232.359 477.267H187.469L187.419 477.297L218.499 537.907H129.959V577.907H219.249L197.699 619.937L187.419 639.987L187.469 640.007H232.359Z" fill="#0A1833"/>
<path d="M88.3587 128.477L129.969 47.3268L88.3587 -34.2732H43.4688L43.4187 -34.2432L74.4987 26.3768L-14.0413 26.3768V66.3768L75.2487 66.3768L53.6987 108.407L43.4187 128.447L43.4688 128.477H88.3587Z" fill="#0A1833"/>
<path d="M88.3587 333.087L129.969 251.947L88.3587 170.347H43.4688L43.4187 170.367L74.4987 230.987H-14.0413V270.987H75.2487L53.6987 313.017L43.4187 333.057L43.4688 333.087H88.3587Z" fill="#0A1833"/>
<path d="M88.3587 537.707L129.969 456.557L88.3587 374.957H43.4688L43.4187 374.987L74.4987 435.607H-14.0413V475.607H75.2487L53.6987 517.637L43.4187 537.677L43.4688 537.707H88.3587Z" fill="#0A1833"/>
<path d="M232.359 26.7266L273.969 -54.4135L232.359 -136.023H187.469L187.419 -135.993L218.499 -75.3735L129.959 -75.3735V-35.3735L219.249 -35.3735L197.699 6.65656L187.419 26.6965L187.469 26.7266H232.359Z" fill="#0A1833"/>
<path d="M232.359 230.777L273.969 149.637L232.359 68.0372L187.469 68.0372L187.419 68.0672L218.499 128.677H129.959V168.677H219.249L197.699 210.707L187.419 230.747L187.469 230.777H232.359Z" fill="#0A1833"/>
<path d="M232.359 435.397L273.969 354.257L232.359 272.647H187.469L187.419 272.677L218.499 333.297H129.959V373.297H219.249L197.699 415.327L187.419 435.367L187.469 435.397H232.359Z" fill="#0A1833"/>
<path d="M232.359 640.007L273.969 558.867L232.359 477.267H187.469L187.419 477.297L218.499 537.907H129.959V577.907H219.249L197.699 619.937L187.419 639.987L187.469 640.007H232.359Z" fill="#0A1833"/>
<path d="M88.3587 128.477L129.969 47.3268L88.3587 -34.2732H43.4688L43.4187 -34.2432L74.4987 26.3768L-14.0413 26.3768V66.3768L75.2487 66.3768L53.6987 108.407L43.4187 128.447L43.4688 128.477H88.3587Z" fill="#0A1833"/>
<path d="M88.3587 333.087L129.969 251.947L88.3587 170.347H43.4688L43.4187 170.367L74.4987 230.987H-14.0413V270.987H75.2487L53.6987 313.017L43.4187 333.057L43.4688 333.087H88.3587Z" fill="#0A1833"/>
<path d="M88.3587 537.707L129.969 456.557L88.3587 374.957H43.4688L43.4187 374.987L74.4987 435.607H-14.0413V475.607H75.2487L53.6987 517.637L43.4187 537.677L43.4688 537.707H88.3587Z" fill="#0A1833"/>
</g>
<defs>
<clipPath id="clip0_637_44180">
<rect width="503" height="676" fill="white" transform="matrix(0 1 -1 0 562 0)"/>
</clipPath>
</defs>
</svg>
