<svg width="332" height="640" viewBox="0 0 332 640" fill="none" xmlns="http://www.w3.org/2000/svg">
<g opacity="0.4">
<path d="M27.2754 592.555L77.8691 565.666L27.2754 538.777V592.555Z" stroke="#A8ADB9" stroke-width="0.5" stroke-miterlimit="10"/>
<path d="M27.2754 646.332L77.8691 619.443L27.2754 592.554V646.332Z" stroke="#A8ADB9" stroke-width="0.5" stroke-linecap="round" stroke-linejoin="round"/>
<path d="M-23.3194 565.666L27.2744 592.555V538.777L-23.3194 565.666Z" stroke="#A8ADB9" stroke-width="0.5" stroke-linecap="round" stroke-linejoin="round"/>
<path d="M-23.3184 619.443L27.2754 646.332V592.554L-23.3184 619.443Z" stroke="#A8ADB9" stroke-width="0.5" stroke-linecap="round" stroke-linejoin="round"/>
<path d="M78.0859 565.666V619.444" stroke="#A8ADB9" stroke-width="0.5" stroke-miterlimit="10"/>
<path d="M27.2754 592.554V646.332" stroke="#A8ADB9" stroke-width="0.5" stroke-miterlimit="10"/>
<path d="M77.7656 511.892L128.359 485.003L77.7656 458.114V511.892Z" stroke="#A8ADB9" stroke-width="0.5" stroke-miterlimit="10"/>
<path d="M77.7656 565.669L128.359 538.78L77.7656 511.891V565.669Z" stroke="#A8ADB9" stroke-width="0.5" stroke-linecap="round" stroke-linejoin="round"/>
<path d="M27.1709 485.003L77.7646 511.892V458.114L27.1709 485.003Z" stroke="#A8ADB9" stroke-width="0.5" stroke-linecap="round" stroke-linejoin="round"/>
<path d="M27.1709 538.78L77.7646 565.669V511.891L27.1709 538.78Z" stroke="#A8ADB9" stroke-width="0.5" stroke-linecap="round" stroke-linejoin="round"/>
<path d="M128.576 485.003V538.782" stroke="#A8ADB9" stroke-width="0.5" stroke-miterlimit="10"/>
<path d="M77.7646 511.891V565.669" stroke="#A8ADB9" stroke-width="0.5" stroke-miterlimit="10"/>
<path d="M27.1709 485.003V538.782" stroke="#A8ADB9" stroke-width="0.5" stroke-miterlimit="10"/>
<path d="M128.464 592.555L179.058 565.666L128.464 538.777V592.555Z" stroke="#A8ADB9" stroke-width="0.5" stroke-miterlimit="10"/>
<path d="M128.464 646.332L179.058 619.443L128.464 592.554V646.332Z" stroke="#A8ADB9" stroke-width="0.5" stroke-linecap="round" stroke-linejoin="round"/>
<path d="M77.8701 565.666L128.464 592.555V538.777L77.8701 565.666Z" stroke="#A8ADB9" stroke-width="0.5" stroke-linecap="round" stroke-linejoin="round"/>
<path d="M77.8701 619.443L128.464 646.332V592.554L77.8701 619.443Z" stroke="#A8ADB9" stroke-width="0.5" stroke-linecap="round" stroke-linejoin="round"/>
<path d="M179.274 565.666V619.444" stroke="#A8ADB9" stroke-width="0.5" stroke-miterlimit="10"/>
<path d="M128.464 592.554V646.332" stroke="#A8ADB9" stroke-width="0.5" stroke-miterlimit="10"/>
<path d="M77.8672 565.666V619.444" stroke="#A8ADB9" stroke-width="0.5" stroke-miterlimit="10"/>
<path d="M-23.3155 511.892L27.2783 485.003L-23.3155 458.114V511.892Z" stroke="#A8ADB9" stroke-width="0.5" stroke-miterlimit="10"/>
<path d="M-23.3155 565.669L27.2783 538.78L-23.3155 511.891V565.669Z" stroke="#A8ADB9" stroke-width="0.5" stroke-linecap="round" stroke-linejoin="round"/>
<path d="M27.4951 485.003V538.781" stroke="#A8ADB9" stroke-width="0.5" stroke-miterlimit="10"/>
<path d="M-23.3155 673.223L27.2783 646.334L-23.3155 619.445V673.223Z" stroke="#A8ADB9" stroke-width="0.5" stroke-miterlimit="10"/>
<path d="M179.274 404.333L229.868 377.444L179.274 350.555V404.333Z" stroke="#A8ADB9" stroke-width="0.5" stroke-miterlimit="10"/>
<path d="M179.274 458.109L229.868 431.22L179.274 404.331V458.109Z" stroke="#A8ADB9" stroke-width="0.5" stroke-linecap="round" stroke-linejoin="round"/>
<path d="M128.681 377.444L179.274 404.333V350.555L128.681 377.444Z" stroke="#A8ADB9" stroke-width="0.5" stroke-linecap="round" stroke-linejoin="round"/>
<path d="M128.681 431.22L179.274 458.109V404.331L128.681 431.22Z" stroke="#A8ADB9" stroke-width="0.5" stroke-linecap="round" stroke-linejoin="round"/>
<path d="M230.085 377.444V431.222" stroke="#A8ADB9" stroke-width="0.5" stroke-miterlimit="10"/>
<path d="M179.274 404.331V458.109" stroke="#A8ADB9" stroke-width="0.5" stroke-miterlimit="10"/>
<path d="M128.68 377.444V431.222" stroke="#A8ADB9" stroke-width="0.5" stroke-miterlimit="10"/>
<path d="M229.764 323.665L280.357 296.776L229.764 269.887V323.665Z" stroke="#A8ADB9" stroke-width="0.5" stroke-miterlimit="10"/>
<path d="M229.764 377.441L280.357 350.552L229.764 323.663V377.441Z" stroke="#A8ADB9" stroke-width="0.5" stroke-linecap="round" stroke-linejoin="round"/>
<path d="M179.169 296.776L229.763 323.665V269.887L179.169 296.776Z" stroke="#A8ADB9" stroke-width="0.5" stroke-linecap="round" stroke-linejoin="round"/>
<path d="M179.169 350.552L229.763 377.441V323.663L179.169 350.552Z" stroke="#A8ADB9" stroke-width="0.5" stroke-linecap="round" stroke-linejoin="round"/>
<path d="M280.574 296.776V350.554" stroke="#A8ADB9" stroke-width="0.5" stroke-miterlimit="10"/>
<path d="M229.763 323.663V377.441" stroke="#A8ADB9" stroke-width="0.5" stroke-miterlimit="10"/>
<path d="M179.169 296.776V350.554" stroke="#A8ADB9" stroke-width="0.5" stroke-miterlimit="10"/>
<path d="M-23.1006 189.221L27.4932 162.332L-23.1006 135.443V189.221Z" stroke="#A8ADB9" stroke-width="0.5" stroke-miterlimit="10"/>
<path d="M-23.1006 242.997L27.4932 216.108L-23.1006 189.219V242.997Z" stroke="#A8ADB9" stroke-width="0.5" stroke-linecap="round" stroke-linejoin="round"/>
<path d="M27.71 162.332V216.11" stroke="#A8ADB9" stroke-width="0.5" stroke-miterlimit="10"/>
<path d="M78.0888 404.333L128.683 377.444L78.0888 350.555V404.333Z" stroke="#A8ADB9" stroke-width="0.5" stroke-miterlimit="10"/>
<path d="M78.0888 458.11L128.683 431.221L78.0888 404.332V458.11Z" stroke="#A8ADB9" stroke-width="0.5" stroke-linecap="round" stroke-linejoin="round"/>
<path d="M27.4941 377.444L78.0879 404.333V350.555L27.4941 377.444Z" stroke="#A8ADB9" stroke-width="0.5" stroke-linecap="round" stroke-linejoin="round"/>
<path d="M27.4941 431.221L78.0879 458.11V404.332L27.4941 431.221Z" stroke="#A8ADB9" stroke-width="0.5" stroke-linecap="round" stroke-linejoin="round"/>
<path d="M128.899 377.444V431.222" stroke="#A8ADB9" stroke-width="0.5" stroke-miterlimit="10"/>
<path d="M78.0879 404.332V458.11" stroke="#A8ADB9" stroke-width="0.5" stroke-miterlimit="10"/>
<path d="M27.4941 377.444V431.222" stroke="#A8ADB9" stroke-width="0.5" stroke-miterlimit="10"/>
<path d="M-23.1006 404.333L27.4932 377.444L-23.1006 350.555V404.333Z" stroke="#A8ADB9" stroke-width="0.5" stroke-miterlimit="10"/>
<path d="M-23.1006 458.11L27.4932 431.221L-23.1006 404.332V458.11Z" stroke="#A8ADB9" stroke-width="0.5" stroke-linecap="round" stroke-linejoin="round"/>
<path d="M27.71 377.444V431.222" stroke="#A8ADB9" stroke-width="0.5" stroke-miterlimit="10"/>
<path d="M280.463 404.333L331.057 377.444L280.463 350.555V404.333Z" stroke="#A8ADB9" stroke-width="0.5" stroke-miterlimit="10"/>
<path d="M280.463 458.11L331.057 431.221L280.463 404.332V458.11Z" stroke="#A8ADB9" stroke-width="0.5" stroke-linecap="round" stroke-linejoin="round"/>
<path d="M229.868 377.444L280.462 404.333V350.555L229.868 377.444Z" stroke="#A8ADB9" stroke-width="0.5" stroke-linecap="round" stroke-linejoin="round"/>
<path d="M229.868 431.22L280.462 458.109V404.331L229.868 431.22Z" stroke="#A8ADB9" stroke-width="0.5" stroke-linecap="round" stroke-linejoin="round"/>
<path d="M331.273 377.444V431.222" stroke="#A8ADB9" stroke-width="0.5" stroke-miterlimit="10"/>
<path d="M280.462 404.331V458.109" stroke="#A8ADB9" stroke-width="0.5" stroke-miterlimit="10"/>
<path d="M229.868 377.444V431.222" stroke="#A8ADB9" stroke-width="0.5" stroke-miterlimit="10"/>
<path d="M27.2754 485.001L77.8691 458.112L27.2754 431.223V485.001Z" stroke="#A8ADB9" stroke-width="0.5" stroke-miterlimit="10"/>
<path d="M27.2754 538.778L77.8691 511.889L27.2754 485V538.778Z" stroke="#A8ADB9" stroke-width="0.5" stroke-linecap="round" stroke-linejoin="round"/>
<path d="M-23.3194 458.112L27.2744 485.001V431.223L-23.3194 458.112Z" stroke="#A8ADB9" stroke-width="0.5" stroke-linecap="round" stroke-linejoin="round"/>
<path d="M-23.3184 511.889L27.2754 538.778V485L-23.3184 511.889Z" stroke="#A8ADB9" stroke-width="0.5" stroke-linecap="round" stroke-linejoin="round"/>
<path d="M78.0859 458.112V511.89" stroke="#A8ADB9" stroke-width="0.5" stroke-miterlimit="10"/>
<path d="M27.2754 485V538.778" stroke="#A8ADB9" stroke-width="0.5" stroke-miterlimit="10"/>
<path d="M128.682 323.665L179.275 296.776L128.682 269.887V323.665Z" stroke="#A8ADB9" stroke-width="0.5" stroke-miterlimit="10"/>
<path d="M128.682 377.441L179.275 350.552L128.682 323.663V377.441Z" stroke="#A8ADB9" stroke-width="0.5" stroke-linecap="round" stroke-linejoin="round"/>
<path d="M78.0879 296.776L128.682 323.665V269.887L78.0879 296.776Z" stroke="#A8ADB9" stroke-width="0.5" stroke-linecap="round" stroke-linejoin="round"/>
<path d="M78.0879 350.552L128.682 377.441V323.663L78.0879 350.552Z" stroke="#A8ADB9" stroke-width="0.5" stroke-linecap="round" stroke-linejoin="round"/>
<path d="M179.492 296.776V350.554" stroke="#A8ADB9" stroke-width="0.5" stroke-miterlimit="10"/>
<path d="M128.682 323.663V377.441" stroke="#A8ADB9" stroke-width="0.5" stroke-miterlimit="10"/>
<path d="M78.0869 296.776V350.554" stroke="#A8ADB9" stroke-width="0.5" stroke-miterlimit="10"/>
<path d="M27.3896 269.889L77.9834 243L27.3896 216.111V269.889Z" stroke="#A8ADB9" stroke-width="0.5" stroke-miterlimit="10"/>
<path d="M27.3896 323.666L77.9834 296.777L27.3896 269.887V323.666Z" stroke="#A8ADB9" stroke-width="0.5" stroke-linecap="round" stroke-linejoin="round"/>
<path d="M-23.2041 243L27.3896 269.889V216.111L-23.2041 243Z" stroke="#A8ADB9" stroke-width="0.5" stroke-linecap="round" stroke-linejoin="round"/>
<path d="M-23.2041 296.777L27.3896 323.666V269.887L-23.2041 296.777Z" stroke="#A8ADB9" stroke-width="0.5" stroke-linecap="round" stroke-linejoin="round"/>
<path d="M78.2002 243V296.778" stroke="#A8ADB9" stroke-width="0.5" stroke-miterlimit="10"/>
<path d="M27.3896 269.887V323.666" stroke="#A8ADB9" stroke-width="0.5" stroke-miterlimit="10"/>
<path d="M27.6054 323.665L78.1992 296.776L27.6054 269.887V323.665Z" stroke="#A8ADB9" stroke-width="0.5" stroke-miterlimit="10"/>
<path d="M27.6054 377.441L78.1992 350.552L27.6054 323.663V377.441Z" stroke="#A8ADB9" stroke-width="0.5" stroke-linecap="round" stroke-linejoin="round"/>
<path d="M-22.9883 296.776L27.6055 323.665V269.887L-22.9883 296.776Z" stroke="#A8ADB9" stroke-width="0.5" stroke-linecap="round" stroke-linejoin="round"/>
<path d="M-22.9883 350.552L27.6055 377.441V323.663L-22.9883 350.552Z" stroke="#A8ADB9" stroke-width="0.5" stroke-linecap="round" stroke-linejoin="round"/>
<path d="M78.416 296.776V350.554" stroke="#A8ADB9" stroke-width="0.5" stroke-miterlimit="10"/>
<path d="M27.6055 323.663V377.441" stroke="#A8ADB9" stroke-width="0.5" stroke-miterlimit="10"/>
<path d="M128.682 485.002L179.275 458.113L128.682 431.224V485.002Z" stroke="#A8ADB9" stroke-width="0.5" stroke-miterlimit="10"/>
<path d="M128.682 538.779L179.275 511.89L128.682 485V538.779Z" stroke="#A8ADB9" stroke-width="0.5" stroke-linecap="round" stroke-linejoin="round"/>
<path d="M78.0879 458.113L128.682 485.002V431.224L78.0879 458.113Z" stroke="#A8ADB9" stroke-width="0.5" stroke-linecap="round" stroke-linejoin="round"/>
<path d="M78.0879 511.89L128.682 538.779V485L78.0879 511.89Z" stroke="#A8ADB9" stroke-width="0.5" stroke-linecap="round" stroke-linejoin="round"/>
<path d="M179.492 458.113V511.891" stroke="#A8ADB9" stroke-width="0.5" stroke-miterlimit="10"/>
<path d="M128.682 485V538.779" stroke="#A8ADB9" stroke-width="0.5" stroke-miterlimit="10"/>
<path d="M78.0869 458.113V511.891" stroke="#A8ADB9" stroke-width="0.5" stroke-miterlimit="10"/>
</g>
</svg>
