<svg width="1000" height="1000" viewBox="0 0 1000 1000" xmlns="http://www.w3.org/2000/svg"><path class="path" stroke="#000000" d="M-45,526L42,569L44,566L-43,522L-45,526zM-42,611V524H-46V611H-42zM42,566L-45,609L-43,613L44,569L42,566zM-44,524L-43,523C-44,522-44,522-45,523C-45,523-46,524-46,524H-44zM-44,611H-46C-46,612-45,612-45,613C-44,613-44,613-43,613L-44,611zM43,568L44,569C45,569,45,568,45,568C45,567,45,566,44,566L43,568zM45,568H41V655H45V568zM389,307V394H393V307H389zM305,352L392,309L390,305L303,349L305,352zM392,392L305,349L303,352L390,396L392,392zM391,307H393V304L390,306L391,307zM304,351L303,349L300,351L303,352L304,351zM391,394L390,395L393,397V394H391zM389,394V481H393V394H389zM305,439L392,396L390,392L303,436L305,439zM392,479L305,436L303,439L390,483L392,479zM391,394H393C393,393,392,393,392,392C392,392,391,392,390,392L391,394zM304,437L303,436C303,436,302,437,302,437C302,438,303,439,303,439L304,437zM391,481L390,482C391,483,391,483,392,482C392,482,393,481,393,481H391zM390,309L477,352L479,349L392,305L390,309zM393,394V307H389V394H393zM477,349L390,392L392,396L479,352L477,349zM391,307L392,306C391,305,390,305,390,306C389,306,389,307,389,307H391zM391,394H389C389,395,389,395,390,395C390,396,391,396,392,395L391,394zM478,351L479,352C479,352,480,351,480,351C480,350,479,349,479,349L478,351zM390,396L477,439L479,436L392,392L390,396zM393,481V394H389V481H393zM477,436L390,479L392,483L479,439L477,436zM391,394L392,392C391,392,390,392,390,392C389,393,389,393,389,394H391zM391,481H389C389,482,389,482,390,482C390,483,391,483,392,482L391,481zM478,437L479,439C479,438,480,438,480,437C480,437,479,436,479,436L478,437zM306,351H302V438H306V351zM393,394H389V481H393V394zM480,351H476V438H480V351zM127,524V611H132V524H127zM44,569L131,526L129,522L42,566L44,569zM131,609L44,566L42,569L129,613L131,609zM130,524H132V521L129,523L130,524zM43,568L42,566L38,568L42,569L43,568zM130,611L129,613L132,614V611H130zM129,526L216,569L217,566L130,522L129,526zM132,611V524H127V611H132zM216,566L129,609L130,613L217,569L216,566zM130,524V523C130,522,129,522,128,523C128,523,127,524,127,524H130zM130,611H127C127,612,128,612,128,613C129,613,130,613,130,613V611zM216,568L217,569C218,569,219,568,219,568C219,567,218,566,217,566L216,568zM45,568H40V655H45V568zM219,568H214V655H219V568zM301,437V524H305V437H301zM218,483L305,439L303,436L216,479L218,483zM304,522L217,479L216,482L303,526L304,522zM303,437H305V434L303,436V437zM216,481V479L212,481L216,482V481zM303,524V526L305,527V524H303zM301,524V611H305V524H301zM218,569L305,526L303,522L216,566L218,569zM304,609L217,566L216,569L303,613L304,609zM303,524H305C305,523,305,523,305,523C304,522,303,522,303,523V524zM216,568V566C215,566,214,567,214,568C214,569,215,569,216,569V568zM303,611V613C303,613,304,613,305,613C305,612,305,612,305,611H303zM303,439L390,483L391,479L304,436L303,439zM305,524V437H301V524H305zM389,479L302,523L304,526L391,483L389,479zM303,437L304,436C303,435,303,435,302,436C302,436,301,437,301,437H303zM303,524H301C301,525,302,525,302,526C303,526,303,526,304,526L303,524zM390,481L391,482C392,482,392,481,392,481C392,480,392,479,391,479L390,481zM303,526L390,569L391,566L304,522L303,526zM305,611V524H301V611H305zM389,566L302,609L304,613L391,569L389,566zM303,524L304,523C303,522,303,522,302,523C302,523,301,524,301,524H303zM303,611H301C301,612,302,612,302,613C303,613,303,613,304,613L303,611zM390,568L391,569C392,569,392,568,392,568C392,567,392,566,391,566L390,568zM218,481H214V568H218V481zM305,524H301V611H305V524zM392,481H388V568H392V481zM301,524V611H305V524H301zM217,569L304,526L303,522L216,566L217,569zM304,609L217,566L215,569L302,613L304,609zM303,524H305V521L302,523L303,524zM216,568L215,566L212,568L215,569L216,568zM303,611L302,613L305,614V611H303zM302,526L389,569L391,566L304,522L302,526zM305,611V524H301V611H305zM389,566L302,609L303,613L390,569L389,566zM303,524L304,523C303,522,303,522,302,523C301,523,301,524,301,524H303zM303,611H301C301,612,301,612,302,613C302,613,303,613,304,613L303,611zM390,568L391,569C392,569,392,568,392,568C392,567,392,566,391,566L390,568zM218,568H214V655H218V568zM392,568H388V655H392V568zM475,524V611H479V524H475zM391,569L478,526L477,522L390,566L391,569zM478,609L391,566L390,569L477,613L478,609zM477,524H479V521L476,523L477,524zM390,568L389,566L385,568L389,569L390,568zM477,611L476,613L479,614V611H477zM476,526L563,569L565,566L478,522L476,526zM479,611V524H475V611H479zM563,566L476,609L477,613L564,569L563,566zM477,524L478,523C477,522,477,522,476,523C475,523,475,524,475,524H477zM477,611H475C475,612,475,612,476,613C476,613,477,613,478,613L477,611zM564,568L565,569C566,569,566,568,566,568C566,567,566,566,565,566L564,568zM392,568H388V655H392V568zM566,568H562V655H566V568zM475,437V524H479V437H475zM392,483L479,439L477,436L390,479L392,483zM479,522L392,479L390,482L477,526L479,522zM477,437H479V434L477,436V437zM391,481L390,479L386,481L390,482L391,481zM477,524V526L479,527V524H477zM475,524V611H479V524H475zM392,569L479,526L477,522L390,566L392,569zM479,609L392,566L390,569L477,613L479,609zM477,524H479C479,523,479,523,479,523C478,522,477,522,477,523V524zM391,568L390,566C389,566,389,567,389,568C389,569,389,569,390,569L391,568zM477,611V613C477,613,478,613,479,613C479,612,479,612,479,611H477zM477,439L564,483L565,479L479,436L477,439zM479,524V437H475V524H479zM564,479L477,523L478,526L565,483L564,479zM477,437L478,436C477,435,477,435,476,436C476,436,475,437,475,437H477zM477,524H475C475,525,476,525,476,526C477,526,477,526,478,526L477,524zM564,481L565,482C566,482,566,481,566,481C566,480,566,479,565,479L564,481zM477,526L564,569L565,566L478,522L477,526zM479,611V524H475V611H479zM564,566L477,609L478,613L565,569L564,566zM477,524L478,523C477,522,477,522,476,523C476,523,475,524,475,524H477zM477,611H475C475,612,476,612,476,613C477,613,477,613,478,613L477,611zM564,568L565,569C566,569,566,568,566,568C566,567,566,566,565,566L564,568zM392,481H388V568H392V481zM479,524H475V611H479V524zM566,481H562V568H566V481zM128,3V90H132V3H128zM44,48L131,5L130,1L43,45L44,48zM131,88L44,45L43,48L130,92L131,88zM130,3H132V0L130,2V3zM43,47V45L39,47L43,48V47zM130,90V92L132,94V90H130zM128,90V177H132V90H128zM44,135L131,92L130,88L43,132L44,135zM131,175L44,132L43,135L130,179L131,175zM130,90H132C132,89,132,89,132,89C131,88,130,88,130,89V90zM43,133V132C42,132,41,133,41,133C41,134,42,135,43,135V133zM130,177V178C130,179,131,179,132,178C132,178,132,177,132,177H130zM130,5L216,48L218,45L131,1L130,5zM132,90V3H128V90H132zM216,45L129,88L131,92L218,48L216,45zM130,3L131,2C130,1,130,1,129,2C129,2,128,3,128,3H130zM130,90H128C128,91,129,91,129,92C130,92,130,92,131,92L130,90zM217,47L218,48C219,48,219,47,219,47C219,46,219,45,218,45L217,47zM130,92L216,135L218,132L131,88L130,92zM132,177V90H128V177H132zM216,132L129,175L131,179L218,135L216,132zM130,90L131,89C130,88,130,88,129,89C129,89,128,90,128,90H130zM130,177H128C128,178,129,178,129,178C130,179,130,179,131,178L130,177zM217,133L218,135C219,135,219,134,219,133C219,133,219,132,218,132L217,133zM45,47H41V134H45V47zM132,90H128V177H132V90zM219,47H215V134H219V47zM-45,352L42,396L43,392L-44,349L-45,352zM-42,437V350H-46V437H-42zM42,392L-45,436L-44,439L43,396L42,392zM-44,351V349C-44,349-45,349-46,349C-46,349-46,350-46,351H-44zM-44,437H-46C-46,438-46,438-46,439C-45,439-44,439-44,439V437zM43,394V395C44,395,45,394,45,394C45,393,44,392,43,392V394zM-45,439L42,483L43,479L-43,436L-45,439zM-42,524V437H-46V524H-42zM42,479L-45,523L-44,526L43,483L42,479zM-44,437V436C-44,435-45,435-46,436C-46,436-46,437-46,437H-44zM-44,524H-46C-46,525-46,525-46,526C-45,526-44,526-44,526V524zM43,481V482C44,482,45,481,45,481C45,480,44,479,43,479V481zM45,394H40V481H45V394zM127,351V438H131V351H127zM43,396L130,352L129,349L42,392L43,396zM130,436L43,392L42,396L129,439L130,436zM129,351H131V347L128,349L129,351zM43,394L42,392L38,394L42,395L43,394zM129,437L128,439L131,441V437H129zM127,437V524H131V437H127zM43,483L130,439L129,436L42,479L43,483zM130,522L43,479L42,482L129,526L130,522zM129,437H131C131,436,131,436,130,436C130,435,129,435,128,436L129,437zM43,481L42,479C41,480,40,480,40,481C40,482,41,482,42,482L43,481zM129,524L128,526C129,526,130,526,130,526C131,525,131,525,131,524H129zM128,352L215,396L217,392L130,349L128,352zM131,437V350H127V437H131zM215,392L128,436L130,439L217,396L215,392zM129,351L130,349C129,349,129,349,128,349C127,349,127,350,127,351H129zM129,437H127C127,438,127,438,128,439C128,439,129,439,130,439L129,437zM216,394L217,395C218,395,218,394,218,394C218,393,218,392,217,392L216,394zM128,439L215,483L217,479L130,436L128,439zM131,524V437H127V524H131zM215,479L128,523L130,526L217,483L215,479zM129,437L130,436C129,435,129,435,128,436C127,436,127,437,127,437H129zM129,524H127C127,525,127,525,128,526C128,526,129,526,130,526L129,524zM216,481L217,482C218,482,218,481,218,481C218,480,218,479,217,479L216,481zM44,394H40V481H44V394zM131,437H127V524H131V437zM218,394H214V481H218V394zM41,481V568H45V481H41zM-43,526L44,482L42,479L-45,522L-43,526zM44,566L-43,522L-45,526L42,569L44,566zM43,481H45V477L42,479L43,481zM-44,524L-45,523L-49,524L-45,526L-44,524zM43,568L42,569L45,571V568H43zM41,568V655H45V568H41zM-43,613L44,569L42,566L-45,609L-43,613zM44,653L-43,609L-45,613L42,656L44,653zM43,568H45C45,567,45,566,44,566C44,566,43,566,42,566L43,568zM-44,611L-45,610C-46,610-46,611-46,611C-46,612-46,613-45,613L-44,611zM43,654L42,656C43,656,43,656,44,656C45,655,45,655,45,654H43zM42,483L129,526L130,522L43,479L42,483zM45,568V481H41V568H45zM129,522L42,566L43,569L130,526L129,522zM43,481L44,479C43,479,43,479,42,479C41,479,41,480,41,481H43zM43,568H41C41,569,41,569,42,569C42,570,43,570,44,569L43,568zM130,524V526C131,525,132,525,132,524C132,524,131,523,130,523V524zM42,569L129,613L131,609L44,566L42,569zM45,654V567H41V654H45zM129,609L42,653L43,656L130,613L129,609zM43,568L44,566C43,566,43,566,42,566C41,566,41,567,41,568H43zM43,654H41C41,655,41,655,42,656C42,656,43,656,44,656L43,654zM130,611V613C131,612,132,612,132,611C132,611,131,610,130,610V611zM45,568H41V655H45V568zM132,524H127V611H132V524zM301,351V438H305V351H301zM217,396L304,352L303,349L216,392L217,396zM304,436L217,392L216,396L303,439L304,436zM303,351H305V347L302,349L303,351zM216,394V392L212,394L216,395V394zM303,437L302,439L305,441V437H303zM301,437V524H305V437H301zM217,483L304,439L303,436L216,479L217,483zM304,522L217,479L216,482L303,526L304,522zM303,437H305C305,436,305,436,304,436C304,435,303,435,302,436L303,437zM216,481V479C215,480,214,480,214,481C214,482,215,482,216,482V481zM303,524L302,526C303,526,303,526,304,526C305,525,305,525,305,524H303zM302,352L389,396L391,392L304,349L302,352zM305,437V350H301V437H305zM389,392L302,436L304,439L391,396L389,392zM303,351L304,349C303,349,303,349,302,349C301,349,301,350,301,351H303zM303,437H301C301,438,301,438,302,439C302,439,303,439,304,439L303,437zM390,394L391,395C392,395,392,394,392,394C392,393,392,392,391,392L390,394zM302,439L389,483L391,479L304,436L302,439zM305,524V437H301V524H305zM389,479L302,523L304,526L391,483L389,479zM303,437L304,436C303,435,303,435,302,436C301,436,301,437,301,437H303zM303,524H301C301,525,301,525,302,526C302,526,303,526,304,526L303,524zM390,481L391,482C392,482,392,481,392,481C392,480,392,479,391,479L390,481zM218,394H214V481H218V394zM305,437H301V524H305V437zM392,394H388V481H392V394zM214,481V568H219V481H214zM131,526L218,482L216,479L129,522L131,526zM218,566L131,522L129,526L216,569L218,566zM216,481H219V477L216,479V481zM130,524L129,523L125,524L129,526L130,524zM216,568V569L219,571V568H216zM214,568V655H219V568H214zM131,613L218,569L216,566L129,609L131,613zM218,653L131,609L129,613L216,656L218,653zM216,568H219C219,567,218,566,218,566C217,566,216,566,216,566V568zM130,611L129,610C128,610,128,611,128,611C128,612,128,613,129,613L130,611zM216,654V656C216,656,217,656,218,656C218,655,219,655,219,654H216zM216,483L303,526L304,523L217,479L216,483zM219,568V481H214V568H219zM303,522L216,566L217,569L304,526L303,522zM216,481L217,479C216,479,216,479,215,479C215,479,214,480,214,481H216zM216,568H214C214,569,215,569,215,569C216,570,216,570,217,569L216,568zM303,524L304,526C305,525,305,525,305,524C305,524,305,523,304,523L303,524zM216,569L303,613L304,609L217,566L216,569zM219,654V567H214V654H219zM303,609L216,653L217,656L304,613L303,609zM216,568L217,566C216,566,216,566,215,566C215,566,214,567,214,568H216zM216,654H214C214,655,215,655,215,656C216,656,216,656,217,656L216,654zM303,611L304,613C305,612,305,612,305,611C305,611,305,610,304,610L303,611zM132,524H127V611H132V524zM219,568H214V655H219V568zM305,524H301V611H305V524zM40,133V220H45V133H40zM-43,179L44,135L42,132L-45,175L-43,179zM44,219L-43,175L-45,179L42,222L44,219zM43,133H45V130L42,132L43,133zM-44,177L-45,175L-49,177L-45,178L-44,177zM43,220L42,222L45,224V220H43zM40,220V307H45V220H40zM-43,265L44,222L42,218L-45,262L-43,265zM44,305L-43,262L-45,265L42,309L44,305zM43,220H45C45,219,44,219,44,219C43,218,43,218,42,219L43,220zM-44,264L-45,262C-46,263-46,263-46,264C-46,265-46,265-45,265L-44,264zM43,307L42,309C43,309,43,309,44,309C44,308,45,308,45,307H43zM42,135L129,179L130,175L43,132L42,135zM45,220V133H40V220H45zM129,175L42,219L43,222L130,179L129,175zM43,133V132C43,131,42,131,41,132C41,132,40,133,40,133H43zM43,220H40C40,221,41,221,41,222C42,222,43,222,43,222V220zM130,177V178C131,178,132,177,132,177C132,176,131,175,130,175V177zM42,222L129,266L130,262L43,219L42,222zM45,307V220H40V307H45zM129,262L42,305L43,309L130,265L129,262zM43,220V219C43,218,42,218,41,219C41,219,40,220,40,220H43zM43,307H40C40,308,41,308,41,309C42,309,43,309,43,309V307zM130,264V265C131,265,132,264,132,264C132,263,131,262,130,262V264zM45,220H40V307H45V220zM132,177H127V264H132V177zM40,220V307H44V220H40zM-44,265L43,222L42,218L-45,262L-44,265zM43,305L-44,262L-45,265L42,309L43,305zM42,220H44V217L41,219L42,220zM-44,264L-45,262L-49,264L-45,265L-44,264zM42,307L41,309L44,310V307H42zM40,307V394H44V307H40zM-44,352L43,309L42,305L-45,349L-44,352zM43,392L-44,349L-45,352L42,396L43,392zM42,307H44C44,306,44,306,43,306C43,305,42,305,41,306L42,307zM-44,351L-45,349C-46,349-46,350-46,351C-46,352-46,352-45,352L-44,351zM42,394L41,395C42,396,43,396,43,395C44,395,44,394,44,394H42zM41,222L128,266L130,262L43,219L41,222zM44,307V220H40V307H44zM128,262L41,305L43,309L130,265L128,262zM42,220L43,219C42,218,42,218,41,219C40,219,40,220,40,220H42zM42,307H40C40,308,40,308,41,309C41,309,42,309,43,309L42,307zM129,264L130,265C131,265,131,264,131,264C131,263,131,262,130,262L129,264zM41,309L128,352L130,349L43,305L41,309zM44,394V307H40V394H44zM128,349L41,392L43,396L130,352L128,349zM42,307L43,306C42,305,42,305,41,306C40,306,40,307,40,307H42zM42,394H40C40,395,40,395,41,395C41,396,42,396,43,395L42,394zM129,351L130,352C131,352,131,351,131,351C131,350,131,349,130,349L129,351zM44,307H40V394H44V307zM131,264H127V351H131V264zM214,220V307H218V220H214zM130,265L217,222L216,218L129,262L130,265zM217,305L130,262L129,265L216,309L217,305zM216,220H218V217L215,219L216,220zM130,264L129,262L125,264L129,265L130,264zM216,307L215,309L218,310V307H216zM214,307V394H218V307H214zM130,352L217,309L216,305L129,349L130,352zM217,392L130,349L129,352L216,396L217,392zM216,307H218C218,306,218,306,217,306C217,305,216,305,215,306L216,307zM130,351L129,349C128,349,127,350,127,351C127,352,128,352,129,352L130,351zM216,394L215,395C216,396,216,396,217,395C218,395,218,394,218,394H216zM215,222L302,266L304,262L217,219L215,222zM218,307V220H214V307H218zM302,262L215,305L217,309L304,265L302,262zM216,220L217,219C216,218,216,218,215,219C214,219,214,220,214,220H216zM216,307H214C214,308,214,308,215,309C215,309,216,309,217,309L216,307zM303,264L304,265C305,265,305,264,305,264C305,263,305,262,304,262L303,264zM215,309L302,352L304,349L217,305L215,309zM218,394V307H214V394H218zM302,349L215,392L217,396L304,352L302,349zM216,307L217,306C216,305,216,305,215,306C214,306,214,307,214,307H216zM216,394H214C214,395,214,395,215,395C215,396,216,396,217,395L216,394zM303,351L304,352C305,352,305,351,305,351C305,350,305,349,304,349L303,351zM131,264H127V351H131V264zM218,307H214V394H218V307zM305,264H301V351H305V264zM215,133V220H219V133H215zM131,179L218,135L216,132L130,175L131,179zM218,219L131,175L129,179L216,222L218,219zM217,133H219V130L216,132L217,133zM130,177L129,175L125,177L129,178L130,177zM217,220L216,222L219,224V220H217zM215,220V307H219V220H215zM131,265L218,222L216,218L130,262L131,265zM218,305L131,262L129,265L216,309L218,305zM217,220H219C219,219,219,219,218,219C218,218,217,218,216,219L217,220zM130,264L129,262C128,263,128,263,128,264C128,265,128,265,129,265L130,264zM217,307L216,309C217,309,217,309,218,309C219,308,219,308,219,307H217zM216,135L303,179L305,175L218,132L216,135zM219,220V133H215V220H219zM303,175L216,219L217,222L304,179L303,175zM217,133L218,132C217,131,216,131,216,132C215,132,215,133,215,133H217zM217,220H215C215,221,215,221,216,222C216,222,217,222,218,222L217,220zM303,177L304,178C305,178,305,177,305,177C305,176,305,175,304,175L303,177zM216,222L303,266L305,262L218,219L216,222zM219,307V220H215V307H219zM303,262L216,305L217,309L304,265L303,262zM217,220L218,219C217,218,216,218,216,219C215,219,215,220,215,220H217zM217,307H215C215,308,215,308,216,309C216,309,217,309,218,309L217,307zM303,264L304,265C305,265,305,264,305,264C305,263,305,262,304,262L303,264zM132,177H127V264H132V177zM219,220H215V307H219V220zM305,177H301V264H305V177zM823,437V524H827V437H823zM739,483L826,439L824,436L737,479L739,483zM826,522L739,479L737,482L824,526L826,522zM825,437H827V434L824,436L825,437zM738,481L737,479L733,481L737,482L738,481zM825,524L824,526L827,527V524H825zM823,524V611H827V524H823zM739,569L826,526L824,522L737,566L739,569zM826,609L739,566L737,569L824,613L826,609zM825,524H827C827,523,826,523,826,523C826,522,825,522,824,523L825,524zM738,568L737,566C736,566,736,567,736,568C736,569,736,569,737,569L738,568zM825,611L824,613C825,613,825,613,826,613C826,612,827,612,827,611H825zM824,439L911,483L913,479L826,436L824,439zM827,524V437H823V524H827zM911,479L824,523L825,526L912,483L911,479zM825,437L826,436C825,435,824,435,824,436C823,436,823,437,823,437H825zM825,524H823C823,525,823,525,824,526C824,526,825,526,826,526L825,524zM911,481L912,482C913,482,913,481,913,481C913,480,913,479,912,479L911,481zM824,526L911,569L913,566L826,522L824,526zM827,611V524H823V611H827zM911,566L824,609L825,613L912,569L911,566zM825,524L826,523C825,522,824,522,824,523C823,523,823,524,823,524H825zM825,611H823C823,612,823,612,824,613C824,613,825,613,826,613L825,611zM911,568L912,569C913,569,913,568,913,568C913,567,913,566,912,566L911,568zM740,481H735V568H740V481zM827,524H823V611H827V524zM913,481H909V568H913V481zM909,568V655H913V568H909zM825,613L912,569L911,566L824,609L825,613zM912,653L825,609L824,613L911,656L912,653zM911,568H913V564L911,566V568zM824,611V610L820,611L824,613V611zM911,654V656L913,658V654H911zM910,569L997,613L999,609L912,566L910,569zM913,654V567H909V654H913zM997,609L910,653L912,656L999,613L997,609zM911,568L912,566C911,566,911,566,910,566C910,566,909,567,909,568H911zM911,654H909C909,655,910,655,910,656C911,656,911,656,912,656L911,654zM998,611L999,613C1000,612,1000,612,1000,611C1000,611,1000,610,999,610L998,611zM736,568V655H740V568H736zM652,613L739,569L737,566L650,609L652,613zM739,653L652,609L650,613L737,656L739,653zM738,568H740V564L737,566L738,568zM651,611L650,610L647,611L650,613L651,611zM738,654L737,656L740,658V654H738zM737,569L824,613L826,609L739,566L737,569zM740,654V567H736V654H740zM824,609L737,653L739,656L826,613L824,609zM738,568L739,566C738,566,737,566,737,566C736,566,736,567,736,568H738zM738,654H736C736,655,736,655,737,656C737,656,738,656,739,656L738,654zM825,611L826,613C826,612,827,612,827,611C827,611,826,610,826,610L825,611zM650,437V524H655V437H650zM567,483L654,439L652,436L565,479L567,483zM653,522L566,479L565,482L652,526L653,522zM653,437H655V434L652,436L653,437zM566,481L565,479L561,481L565,482L566,481zM653,524L652,526L655,527V524H653zM650,524V611H655V524H650zM567,569L654,526L652,522L565,566L567,569zM653,609L566,566L565,569L652,613L653,609zM653,524H655C655,523,654,523,654,523C653,522,653,522,652,523L653,524zM566,568L565,566C564,566,564,567,564,568C564,569,564,569,565,569L566,568zM653,611L652,613C653,613,653,613,654,613C654,612,655,612,655,611H653zM652,439L739,483L740,479L653,436L652,439zM655,524V437H650V524H655zM738,479L651,523L653,526L740,483L738,479zM653,437V436C653,435,652,435,651,436C651,436,650,437,650,437H653zM653,524H650C650,525,651,525,651,526C652,526,653,526,653,526V524zM739,481L740,482C741,482,741,481,741,481C741,480,741,479,740,479L739,481zM652,526L739,569L740,566L653,522L652,526zM655,611V524H650V611H655zM738,566L651,609L653,613L740,569L738,566zM653,524V523C653,522,652,522,651,523C651,523,650,524,650,524H653zM653,611H650C650,612,651,612,651,613C652,613,653,613,653,613V611zM739,568L740,569C741,569,741,568,741,568C741,567,741,566,740,566L739,568zM567,481H563V568H567V481zM655,524H650V611H655V524zM741,481H737V568H741V481z"/></svg>