<svg width="230" height="40" viewBox="0 0 230 40" fill="none" xmlns="http://www.w3.org/2000/svg">
<path d="M40.95 2.93702L35.1546 0.00488281H35.1239L27.3047 3.95576L27.3405 30.7225L29.5227 29.9416C31.4392 29.2228 33.0899 27.6455 33.1257 24.9565C33.1614 22.6707 33.1359 9.53561 33.1257 6.89824L40.95 2.93702Z" fill="white"/>
<path d="M27.3045 19.2578L21.5091 16.3257H21.4784L13.6592 20.2766L13.6796 30.7381V32.0775L13.6898 39.9999L15.8721 39.2191C17.7885 38.5003 19.4393 36.923 19.475 34.2339C19.5108 31.9482 19.4853 25.8616 19.475 23.219L27.2994 19.2578H27.3045Z" fill="white"/>
<path d="M13.6543 14.9502L7.85883 12.0181H7.82817L0.00383295 15.9638C0.00383295 15.9638 -0.0114989 27.6251 0.0191648 29.9108C0.0600496 32.5999 1.70566 34.172 3.62214 34.8959L5.80437 35.6768L5.81459 27.7544V26.415L5.82992 18.9011L13.644 14.945L13.6543 14.9502Z" fill="white"/>
<path d="M56.8806 28.901C56.4768 28.5982 56.1942 28.0625 56.0384 27.2823L52.7793 10.7692H56.4595L58.7208 23.9633H58.7727L62.5856 11.7474H63.9008C64.3392 11.7474 64.7199 11.8639 65.0429 12.091C65.366 12.3239 65.6198 12.7373 65.7928 13.337L69 23.9284H69.052L71.3132 10.7576H74.9934L71.7054 27.2706C71.567 27.981 71.3074 28.4992 70.9267 28.8369C70.5517 29.1746 70.0384 29.3435 69.3865 29.3435H67.8637L63.9469 16.5977H63.895L59.8975 29.3435H58.3746C57.7805 29.3435 57.2786 29.1921 56.8749 28.8893L56.8806 28.901Z" fill="white"/>
<path d="M77.7622 28.6628C77.2892 28.2028 77.0527 27.603 77.0527 26.8577V10.7639H91.0988V13.9489H80.6811V18.2518H90.3085V21.4368H80.6811V26.1648H91.0988V29.3498H79.6024C78.8467 29.3498 78.2353 29.1227 77.7622 28.6569V28.6628Z" fill="white"/>
<path d="M94.2828 28.6628C93.8097 28.2028 93.5732 27.603 93.5732 26.8577V10.7639H102.728C104.395 10.7639 105.733 11.1599 106.737 11.9576C107.746 12.7553 108.248 13.8266 108.248 15.1717V16.4992C108.248 17.0815 108.104 17.6405 107.815 18.1703C107.527 18.7002 107.117 19.1369 106.593 19.4688V19.4979C107.435 19.8007 108.115 20.284 108.629 20.9594C109.148 21.6348 109.402 22.3859 109.402 23.2186V24.5985C109.402 26.0484 108.883 27.2071 107.838 28.063C106.794 28.9248 105.387 29.3498 103.616 29.3498H96.1171C95.3614 29.3498 94.75 29.1227 94.277 28.6569L94.2828 28.6628ZM102.728 18.4673C103.287 18.4673 103.743 18.2868 104.095 17.9258C104.447 17.5648 104.62 17.0815 104.62 16.4759V15.5734C104.62 15.0785 104.435 14.6826 104.066 14.3914C103.697 14.1003 103.206 13.9547 102.595 13.9547H97.2016V18.4673H102.728ZM103.356 26.1648C104.129 26.1648 104.724 26.0076 105.145 25.699C105.566 25.3904 105.773 24.9537 105.773 24.3831V23.2128C105.773 22.7004 105.589 22.2811 105.22 21.9667C104.85 21.6465 104.36 21.4892 103.749 21.4892H97.2016V26.1648H103.356Z" fill="white"/>
<path d="M112.419 28.6744C111.951 28.2202 111.721 27.6263 111.721 26.881V10.7639H115.349V26.1648H125.346V29.3498H114.27C113.497 29.3498 112.88 29.1227 112.413 28.6744H112.419Z" fill="white"/>
<path d="M127.901 28.6628C127.428 28.2028 127.191 27.603 127.191 26.8577V10.7639H141.237V13.9489H130.82V18.2518H140.447V21.4368H130.82V26.1648H141.237V29.3498H129.741C128.985 29.3498 128.374 29.1227 127.901 28.6569V28.6628Z" fill="white"/>
<path d="M154.492 25.0236H147.599L145.967 29.3498H142.177L149.381 10.7639H151.014C152.156 10.7639 152.923 11.2938 153.327 12.3593L159.874 29.3498H156.084L154.481 25.0236H154.492ZM148.574 21.9434H153.517L151.072 15.2532H151.043L148.568 21.9434H148.574Z" fill="white"/>
<path d="M162.176 28.6628C161.703 28.2028 161.467 27.603 161.467 26.8577V10.7639H170.252C171.654 10.7639 172.888 11.0318 173.95 11.5616C175.011 12.0915 175.836 12.8426 176.424 13.8208C177.013 14.7932 177.307 15.917 177.307 17.1921V22.3976C177.307 24.6801 176.718 26.4094 175.547 27.5856C174.371 28.7617 172.646 29.3498 170.367 29.3498H164.028C163.272 29.3498 162.661 29.1227 162.188 28.6569L162.176 28.6628ZM170.252 26.1124C171.377 26.1124 172.225 25.7864 172.802 25.1284C173.379 24.4763 173.667 23.5097 173.667 22.2345V17.3493C173.667 16.342 173.344 15.5327 172.692 14.9213C172.04 14.3099 171.192 14.0071 170.142 14.0071H165.095V26.1124H170.252Z" fill="white"/>
<path d="M180.641 28.6628C180.168 28.2028 179.932 27.603 179.932 26.8577V10.7639H193.978V13.9489H183.56V18.2518H193.187V21.4368H183.56V26.1648H193.978V29.3498H182.481C181.726 29.3498 181.114 29.1227 180.641 28.6569V28.6628Z" fill="white"/>
<path d="M196.447 10.7639H206.23C207.828 10.7639 209.109 11.2006 210.084 12.0624C211.058 12.9299 211.543 14.0712 211.543 15.4861V17.3435C211.543 18.2635 211.283 19.067 210.764 19.7483C210.245 20.4295 209.495 20.9477 208.515 21.3029V21.3553C209.074 21.728 209.501 22.153 209.789 22.6305C210.078 23.1079 210.366 23.7717 210.643 24.6218L212.114 29.3498H208.353L206.957 24.9421C206.726 24.1793 206.415 23.6145 206.011 23.2419C205.607 22.8692 205.105 22.6829 204.511 22.6829H200.064V29.3498H196.436V10.7639H196.447ZM205.55 19.527C206.288 19.527 206.865 19.329 207.286 18.9273C207.707 18.5313 207.915 18.0131 207.915 17.3726V15.6491C207.915 15.1367 207.759 14.7233 207.442 14.4147C207.124 14.1061 206.703 13.9489 206.178 13.9489H200.075V19.527H205.55Z" fill="white"/>
<path d="M215.281 27.9349C214.191 26.8461 213.648 25.3264 213.648 23.3816H217.225C217.225 24.3016 217.456 25.0236 217.923 25.5476C218.39 26.0717 219.03 26.3337 219.855 26.3337H222.774C223.547 26.3337 224.17 26.1707 224.655 25.8446C225.139 25.5185 225.376 25.0818 225.376 24.5287V23.6262C225.376 22.7586 224.747 22.2171 223.484 22.0075L218.644 21.1865C217.063 20.9186 215.869 20.4121 215.056 19.6609C214.243 18.9098 213.833 17.9491 213.833 16.7787V15.2939C213.833 14.3565 214.081 13.5297 214.583 12.8135C215.085 12.0973 215.794 11.5442 216.711 11.154C217.634 10.7639 218.696 10.5718 219.907 10.5718H222.878C224.02 10.5718 225.024 10.8105 225.901 11.288C226.777 11.7654 227.458 12.435 227.937 13.291C228.421 14.1527 228.658 15.1484 228.658 16.278H225.081C225.081 15.5327 224.88 14.9388 224.476 14.4846C224.072 14.0304 223.535 13.8092 222.872 13.8092H219.901C219.163 13.8092 218.575 13.9664 218.125 14.2866C217.681 14.6069 217.456 15.0319 217.456 15.5618V16.278C217.456 17.163 218.061 17.7104 219.273 17.9258L224.083 18.7759C225.681 19.0612 226.898 19.562 227.741 20.2781C228.583 20.9943 229.004 21.9201 229.004 23.0555V24.8082C229.004 25.7456 228.744 26.5783 228.225 27.3061C227.706 28.0339 226.985 28.5929 226.056 28.9947C225.128 29.3964 224.049 29.5944 222.82 29.5944H219.798C217.865 29.5944 216.36 29.0529 215.275 27.964L215.281 27.9349Z" fill="white"/>
</svg>
