<svg width="1512" height="42" viewBox="0 0 1512 42" fill="none" xmlns="http://www.w3.org/2000/svg">
<path d="M41.5559 11.8748C42.9239 11.8748 44.0333 10.8037 44.0333 9.48234C44.0333 8.16099 42.9239 7.08984 41.5559 7.08984C40.1879 7.08984 39.0791 8.16099 39.0791 9.48234C39.0791 10.8037 40.1879 11.8748 41.5559 11.8748Z" fill="#0A1833"/>
<path d="M4.02552 7.46716H-0.538086V31.0464H4.02552V7.46716Z" fill="#0A1833"/>
<path d="M10.8976 7.46716H6.33398V31.0464H10.8976V7.46716Z" fill="#0A1833"/>
<path d="M22.3318 31.2649C16.8802 31.2649 12.9238 27.5733 12.9238 22.4911C12.9238 17.4088 16.8802 13.7461 22.3318 13.7461C24.988 13.7461 27.394 14.6169 29.1106 16.1962C30.8272 17.7755 31.7764 20.0174 31.7764 22.4911C31.7764 24.9647 30.8272 27.2053 29.1106 28.8017C27.394 30.3979 24.9838 31.2649 22.3318 31.2649ZM22.3318 17.5607C19.498 17.5607 17.5186 19.5879 17.5186 22.4885C17.5186 25.389 19.498 27.4161 22.3318 27.4161C25.2292 27.4161 27.175 25.4361 27.175 22.4885C27.175 19.5407 25.2292 17.5568 22.3318 17.5568V17.5607Z" fill="#0A1833"/>
<path d="M43.839 13.7437H39.2754V31.0464H43.839V13.7437Z" fill="#0A1833"/>
<path d="M55.5552 31.2649C50.1048 31.2649 46.1484 27.5733 46.1484 22.4911C46.1484 17.4088 50.1048 13.7461 55.5552 13.7461C58.2126 13.7461 60.6174 14.6169 62.334 16.1962C64.0506 17.7755 64.9998 20.0174 64.9998 22.4911C64.9998 24.9647 64.0506 27.2053 62.334 28.8017C60.6174 30.3979 58.2096 31.2649 55.5552 31.2649ZM55.5552 17.5607C52.7226 17.5607 50.7432 19.5879 50.7432 22.4885C50.7432 25.389 52.7226 27.4161 55.5552 27.4161C58.4526 27.4161 60.3996 25.4361 60.3996 22.4885C60.3996 19.5407 58.4526 17.5568 55.5552 17.5568V17.5607Z" fill="#0A1833"/>
<path d="M34.914 31.0455C34.5252 31.0456 34.1454 30.9347 33.8226 30.7264C33.4992 30.5181 33.2478 30.2221 33.099 29.8755C32.9502 29.5289 32.9112 29.1477 32.9868 28.7796C33.0624 28.4118 33.2496 28.0738 33.5244 27.8085C33.7986 27.5433 34.1484 27.3625 34.5294 27.2895C34.9104 27.2164 35.3052 27.254 35.664 27.3976C36.0228 27.5413 36.3294 27.7845 36.5454 28.0967C36.7608 28.4086 36.876 28.7754 36.8754 29.1506C36.8748 29.6529 36.6678 30.1345 36.3 30.4897C35.9322 30.8449 35.4336 31.0448 34.914 31.0455Z" fill="#0A1833"/>
<path d="M250.556 11.8748C251.924 11.8748 253.033 10.8037 253.033 9.48234C253.033 8.16099 251.924 7.08984 250.556 7.08984C249.188 7.08984 248.079 8.16099 248.079 9.48234C248.079 10.8037 249.188 11.8748 250.556 11.8748Z" fill="#0A1833"/>
<path d="M196.999 31.2649C191.547 31.2649 187.591 27.5733 187.591 22.4911C187.591 17.4088 191.547 13.7461 196.999 13.7461C199.655 13.7461 202.061 14.6169 203.778 16.1962C205.495 17.7755 206.443 20.0174 206.443 22.4911C206.443 24.9647 205.495 27.2053 203.778 28.8017C202.061 30.3979 199.654 31.2649 196.999 31.2649ZM196.999 17.5607C194.165 17.5607 192.187 19.5879 192.187 22.4885C192.187 25.389 194.165 27.4161 196.999 27.4161C199.896 27.4161 201.842 25.4361 201.842 22.4885C201.842 19.5407 199.896 17.5568 196.999 17.5568V17.5607Z" fill="#0A1833"/>
<path d="M213.026 7.46716H208.462V31.0464H213.026V7.46716Z" fill="#0A1833"/>
<path d="M219.898 7.46716H215.334V31.0464H219.898V7.46716Z" fill="#0A1833"/>
<path d="M231.332 31.2649C225.88 31.2649 221.924 27.5733 221.924 22.4911C221.924 17.4088 225.88 13.7461 231.332 13.7461C233.988 13.7461 236.394 14.6169 238.111 16.1962C239.827 17.7755 240.776 20.0174 240.776 22.4911C240.776 24.9647 239.827 27.2053 238.111 28.8017C236.394 30.3979 233.984 31.2649 231.332 31.2649ZM231.332 17.5607C228.498 17.5607 226.519 19.5879 226.519 22.4885C226.519 25.389 228.498 27.4161 231.332 27.4161C234.229 27.4161 236.175 25.4361 236.175 22.4885C236.175 19.5407 234.229 17.5568 231.332 17.5568V17.5607Z" fill="#0A1833"/>
<path d="M252.839 13.7437H248.275V31.0464H252.839V13.7437Z" fill="#0A1833"/>
<path d="M264.555 31.2649C259.105 31.2649 255.148 27.5733 255.148 22.4911C255.148 17.4088 259.105 13.7461 264.555 13.7461C267.213 13.7461 269.617 14.6169 271.334 16.1962C273.051 17.7755 274 20.0174 274 22.4911C274 24.9647 273.051 27.2053 271.334 28.8017C269.617 30.3979 267.21 31.2649 264.555 31.2649ZM264.555 17.5607C261.723 17.5607 259.743 19.5879 259.743 22.4885C259.743 25.389 261.723 27.4161 264.555 27.4161C267.453 27.4161 269.4 25.4361 269.4 22.4885C269.4 19.5407 267.453 17.5568 264.555 17.5568V17.5607Z" fill="#0A1833"/>
<path d="M167.176 37.2001V13.6195H171.74V14.8727C173.232 14.1156 174.896 13.7277 176.582 13.7439C179.24 13.7439 181.645 14.6147 183.362 16.194C185.078 17.7733 186.027 20.0152 186.027 22.4889C186.027 24.9626 185.078 27.2032 183.362 28.7994C181.645 30.3958 179.241 31.2654 176.582 31.2654C174.895 31.2812 173.231 30.8906 171.74 30.1287V37.2001H167.176ZM176.582 17.5572C173.75 17.5572 171.771 19.5844 171.771 22.485C171.771 25.3855 173.75 27.4128 176.582 27.4128C179.48 27.4128 181.427 25.4328 181.427 22.485C181.427 19.5372 179.48 17.5572 176.582 17.5572Z" fill="#0A1833"/>
<path d="M243.914 31.0455C243.525 31.0456 243.145 30.9347 242.823 30.7264C242.499 30.5181 242.248 30.2221 242.099 29.8755C241.95 29.5289 241.911 29.1477 241.987 28.7796C242.062 28.4118 242.25 28.0738 242.524 27.8085C242.799 27.5433 243.148 27.3625 243.529 27.2895C243.91 27.2164 244.305 27.254 244.664 27.3976C245.023 27.5413 245.329 27.7845 245.545 28.0967C245.761 28.4086 245.876 28.7754 245.875 29.1506C245.875 29.6529 245.668 30.1345 245.3 30.4897C244.932 30.8449 244.434 31.0448 243.914 31.0455Z" fill="#0A1833"/>
<path d="M161.116 9.38672H156.809L159.042 13.1215L161.116 9.38672Z" fill="#0A1833"/>
<path d="M163.546 24.3797L160.635 19.5031L151.449 4.20001L135.4 31.0452H143.996C145.145 31.0437 146.273 30.7532 147.269 30.2021C148.266 29.6508 149.096 28.8581 149.678 27.9024L154.073 20.4996L151.632 16.4179L146.328 25.3358C146.027 25.8305 145.598 26.2408 145.083 26.5263C144.568 26.8117 143.984 26.9624 143.39 26.9635H142.738L151.452 12.3858L162.609 31.0452H165.772V28.0739L163.555 24.3797H163.546Z" fill="#0A1833"/>
<path d="M357.944 10.8H361.784V19.4696H369.882V10.8H373.726V32.0811H369.882V23.2295H361.784V32.0811H357.944V10.8ZM385.89 25.1495C385.89 26.931 384.461 28.3807 382.709 28.3807C380.956 28.3807 379.529 26.931 379.529 25.1495V15.9873H375.887V25.1495C375.887 28.9719 378.948 32.0811 382.709 32.0811C386.469 32.0811 389.529 28.9719 389.529 25.1495V15.9873H385.89V25.1495ZM399.695 16.0946C397.888 16.0946 396.627 16.6273 395.41 17.8419V10.8H391.757V23.8507C391.757 28.7357 395.232 32.0811 399.136 32.0811C403.477 32.0811 407.279 28.676 407.279 24.0881C407.279 19.5583 403.773 16.0946 399.695 16.0946ZM399.785 28.6465C397.31 28.6465 395.417 26.5454 395.417 24.0881C395.417 21.6303 397.31 19.5286 399.785 19.5286C401.883 19.5286 403.776 21.6303 403.776 24.0881C403.776 26.5454 401.883 28.6465 399.785 28.6465ZM413.415 17.0299C413.415 15.1636 414.638 14.5719 415.978 14.5719C417.056 14.5719 418.483 15.4008 419.415 16.4076L421.803 13.5657C420.609 11.9377 418.192 10.8125 416.211 10.8125C412.249 10.8125 409.394 13.1513 409.394 17.0299C409.394 24.2236 418.105 21.9433 418.105 25.9706C418.105 27.2126 416.91 28.309 415.542 28.309C413.386 28.309 412.687 27.2432 411.696 26.1179L409.045 28.9002C410.736 31.0024 412.832 32.0687 415.338 32.0687C419.095 32.0687 422.124 29.7003 422.124 25.9992C422.124 18.0063 413.415 20.4934 413.415 17.0299ZM431.741 15.8861C427.838 15.8861 424.362 19.2296 424.362 24.1156V37.2H428.015V30.1245C429.232 31.3383 430.493 31.8719 432.3 31.8719C436.378 31.8719 439.885 28.4087 439.885 23.8789C439.885 19.2903 436.081 15.8861 431.741 15.8861ZM432.391 28.4384C429.916 28.4384 428.022 26.3345 428.022 23.8789C428.022 21.4211 429.916 19.3194 432.391 19.3194C434.488 19.3194 436.381 21.4211 436.381 23.8789C436.381 26.3345 434.488 28.4384 432.391 28.4384ZM466.773 28.6465C464.619 28.6465 464.007 27.6996 464.007 26.2484V19.8245H467.357V16.5685H464.007V12.2754L460.309 13.9625V27.0477C460.309 30.3934 462.58 32.0811 465.695 32.0811C466.162 32.0811 466.803 32.0505 467.153 31.9629L468.056 28.5883C467.648 28.617 467.183 28.6465 466.773 28.6465Z" fill="#0A1833"/>
<path d="M456.977 19.9055C456.278 18.6936 455.293 17.7221 454.062 16.9907C453.143 16.4519 452.189 16.1099 451.115 15.963V12.1125C452.189 11.6532 452.857 10.6367 452.857 9.45089C452.857 7.83453 451.568 6.52471 449.964 6.52471C448.358 6.52471 447.048 7.83453 447.048 9.45089C447.048 10.6367 447.676 11.6532 448.751 12.1125V15.9647C447.891 16.0898 447 16.3595 446.186 16.774C444.523 15.5029 439.071 11.3328 435.881 8.89731C435.957 8.6228 436.015 8.33985 436.015 8.04134C436.015 6.25106 434.574 4.79999 432.795 4.79999C431.016 4.79999 429.576 6.25106 429.576 8.04134C429.576 9.83141 431.017 11.2829 432.797 11.2829C433.403 11.2829 433.965 11.1042 434.45 10.8104L435.123 11.3244L444.371 18.0321C443.882 18.484 443.427 18.998 443.063 19.5747C442.325 20.7504 441.874 22.044 441.874 23.4551V23.7494C441.874 24.74 442.06 25.6751 442.379 26.5536C442.659 27.3207 443.07 28.0181 443.578 28.6487L440.508 31.746C440.063 31.5793 439.58 31.5451 439.116 31.6475C438.653 31.7498 438.228 31.9844 437.893 32.3231C437.661 32.5553 437.478 32.8314 437.353 33.1355C437.228 33.4396 437.164 33.7656 437.165 34.0947C437.165 34.7639 437.424 35.3927 437.894 35.8658C438.125 36.0992 438.399 36.2843 438.701 36.4104C439.003 36.5364 439.327 36.6008 439.654 36.6C439.981 36.6008 440.305 36.5364 440.608 36.4103C440.909 36.2843 441.184 36.0992 441.414 35.8658C441.646 35.6336 441.83 35.3576 441.955 35.0537C442.08 34.7496 442.144 34.4238 442.143 34.0947C442.143 33.8358 442.103 33.5832 442.028 33.3431L445.201 30.1491C445.637 30.4515 446.106 30.7061 446.611 30.9257C447.607 31.3592 448.707 31.6233 449.91 31.6233H450.13C451.461 31.6233 452.716 31.3088 453.896 30.6654C455.139 29.9855 456.111 29.0558 456.847 27.8688C457.585 26.6786 457.992 25.3637 457.992 23.9169V23.8446C457.992 22.4214 457.665 21.1084 456.977 19.9055ZM453.1 26.6055C452.24 27.5688 451.25 28.1622 450.13 28.1622H449.946C449.307 28.1622 448.682 27.9843 448.07 27.6609C447.38 27.3049 446.855 26.797 446.426 26.1539C445.983 25.5226 445.742 24.8334 445.742 24.1027V23.8808C445.742 23.1624 445.879 22.4811 446.224 21.8378C446.593 21.1346 447.092 20.5877 447.754 20.1529C448.405 19.7211 449.1 19.5093 449.874 19.5093H449.946C450.648 19.5093 451.313 19.6487 451.94 19.9716C452.579 20.316 453.1 20.7865 453.505 21.4054C453.899 22.0245 454.132 22.6923 454.208 23.4198C454.219 23.571 454.225 23.7258 454.225 23.8739C454.225 24.8611 453.851 25.7755 453.1 26.6055Z" fill="#0A1833"/>
<path d="M560.056 33.6014H565.542V20.6228L557.704 14.8969V31.3111C557.704 32.5765 558.756 33.6016 560.056 33.6016V33.6014Z" fill="#0A1833"/>
<path d="M584.354 33.6014H589.84C591.139 33.6014 592.192 32.5765 592.192 31.3111V14.8969L584.354 20.6228V33.6014Z" fill="#0A1833"/>
<path d="M584.354 10.6965V20.6214L592.192 14.8955V11.8417C592.192 9.01123 588.874 7.39461 586.548 9.09331L584.354 10.6965Z" fill="#0A1833"/>
<path fill-rule="evenodd" clip-rule="evenodd" d="M565.542 20.6194V10.6945L574.948 17.5657L584.353 10.6945V20.6194L574.948 27.4904L565.542 20.6194Z" fill="#0A1833"/>
<path d="M557.704 11.8417V14.8955L565.542 20.6214V10.6965L563.348 9.09332C561.022 7.39461 557.704 9.01124 557.704 11.8416V11.8417Z" fill="#0A1833"/>
<path d="M622.051 14.8032V12.6117H629.521C629.606 13.0584 629.648 13.5121 629.644 13.9664C629.644 15.5602 629.192 17.5922 627.715 18.9867C626.278 20.461 624.472 21.218 622.009 21.218C617.536 21.218 613.76 17.6719 613.76 13.3289C613.76 8.98596 617.536 5.40002 622.009 5.40002C624.513 5.40002 626.278 6.35627 627.633 7.59143L626.032 9.1055C625.198 8.33302 624.147 7.81787 623.011 7.62519C621.876 7.43251 620.708 7.57094 619.653 8.02298C618.599 8.47502 617.706 9.2204 617.089 10.1648C616.47 11.1093 616.155 12.2104 616.181 13.3289C616.181 16.5164 618.767 19.0664 622.009 19.0664C624.144 19.0664 625.375 18.2297 626.155 17.4727C626.771 16.875 627.181 15.9985 627.345 14.8032H622.051Z" fill="#0A1833"/>
<path d="M641.013 16.118C641.013 19.0664 638.632 21.218 635.719 21.218C632.804 21.218 630.465 19.0664 630.465 16.118C630.465 13.1695 632.846 11.018 635.719 11.018C638.592 11.018 641.013 13.1695 641.013 16.118ZM638.674 16.118C638.674 14.2852 637.319 13.05 635.719 13.05C634.118 13.05 632.763 14.2852 632.763 16.118C632.763 17.9508 634.159 19.2258 635.719 19.2258C637.278 19.2258 638.674 17.9508 638.674 16.118Z" fill="#0A1833"/>
<path d="M652.505 16.118C652.505 19.0664 650.125 21.218 647.211 21.218C644.297 21.218 641.957 19.0664 641.957 16.118C641.957 13.1695 644.338 11.018 647.211 11.018C650.084 11.018 652.505 13.1695 652.505 16.118ZM650.166 16.118C650.166 14.2852 648.812 13.05 647.211 13.05C645.61 13.05 644.256 14.2852 644.256 16.118C644.256 17.9508 645.651 19.2258 647.211 19.2258C648.771 19.2258 650.166 17.9508 650.166 16.118Z" fill="#0A1833"/>
<path d="M663.505 11.3367V20.5008C663.505 24.2461 661.207 25.8 658.497 25.8C655.953 25.8 654.434 24.1266 653.859 22.7719L655.871 21.975C656.24 22.8117 657.102 23.8078 658.497 23.8078C660.262 23.8078 661.329 22.732 661.329 20.8195V20.0625H661.247C660.898 20.4423 660.467 20.7426 659.984 20.9424C659.502 21.142 658.98 21.2362 658.456 21.218C655.871 21.218 653.449 18.9867 653.449 16.1578C653.449 13.2891 655.871 11.018 658.456 11.018C659.729 11.018 660.714 11.5758 661.247 12.1735H661.329V11.3367H663.505ZM661.494 16.1578C661.494 14.3649 660.262 13.05 658.662 13.05C657.102 13.05 655.748 14.3649 655.748 16.1578C655.748 17.911 657.102 19.2258 658.662 19.2258C660.262 19.2258 661.494 17.911 661.494 16.1578Z" fill="#0A1833"/>
<path d="M665.105 5.99768H667.404V20.9391H665.105V5.99768Z" fill="#0A1833"/>
<path d="M676.311 17.7914L678.117 18.9867C677.542 19.7836 676.147 21.218 673.725 21.218C670.729 21.218 668.513 18.9867 668.513 16.118C668.513 13.0899 670.77 11.018 673.479 11.018C676.187 11.018 677.542 13.1297 677.953 14.2852L678.199 14.843L671.181 17.6719C671.714 18.7078 672.535 19.2258 673.725 19.2258C674.915 19.2258 675.695 18.668 676.311 17.7914ZM670.811 15.9586L675.49 14.086C675.244 13.4485 674.464 13.0102 673.561 13.0102C672.371 13.0102 670.729 14.0063 670.811 15.9586Z" fill="#0A1833"/>
<path d="M630.994 32.1499C630.994 31.2333 631.294 30.475 631.893 29.875C632.493 29.275 633.255 28.975 634.18 28.975C635.105 28.975 635.859 29.275 636.441 29.875C637.04 30.475 637.34 31.2333 637.34 32.1499C637.34 33.0833 637.04 33.85 636.441 34.45C635.841 35.05 635.087 35.35 634.18 35.35C633.272 35.35 632.509 35.05 631.893 34.45C631.294 33.85 630.994 33.0833 630.994 32.1499ZM632.15 32.1499C632.15 32.8 632.347 33.325 632.741 33.7249C633.135 34.125 633.615 34.3249 634.18 34.3249C634.745 34.3249 635.225 34.125 635.618 33.7249C636.013 33.325 636.201 32.8 636.184 32.1499C636.184 31.5166 635.995 31 635.618 30.6C635.225 30.1999 634.745 30 634.18 30C633.615 30 633.135 30.1999 632.741 30.6C632.347 31 632.15 31.5166 632.15 32.1499ZM639.319 35.1499H638.163V29.1499H639.267V30.15H639.319C639.438 29.8166 639.687 29.5416 640.064 29.325C640.44 29.1083 640.8 28.9916 641.143 28.975C641.468 28.975 641.751 29.025 641.99 29.125L641.631 30.225C641.494 30.175 641.271 30.15 640.963 30.15C640.517 30.15 640.132 30.3166 639.807 30.6499C639.481 30.9833 639.319 31.3833 639.319 31.8499V35.1499ZM647.951 35.1499H646.538L644.637 32.325L643.686 33.25V35.1499H642.53V26.4H643.686V31.8L646.358 29.1499H647.823V29.2L645.433 31.525L647.951 35.1V35.1499Z" fill="#0A1833"/>
<path d="M652.961 33.5C652.961 34.0167 652.73 34.4584 652.268 34.825C651.805 35.1917 651.206 35.3667 650.469 35.35C649.852 35.35 649.313 35.1917 648.851 34.875C648.395 34.5766 648.045 34.1488 647.849 33.65L648.876 33.225C649.031 33.575 649.244 33.85 649.519 34.05C649.794 34.2466 650.127 34.3518 650.469 34.35C650.846 34.35 651.155 34.275 651.394 34.125C651.634 33.975 651.763 33.7917 651.779 33.575C651.779 33.1917 651.48 32.9083 650.881 32.725L649.801 32.475C648.602 32.175 648.003 31.6084 648.003 30.775C648.003 30.225 648.234 29.7834 648.696 29.45C649.159 29.1167 649.742 28.95 650.444 28.95C650.991 28.95 651.489 29.0833 651.934 29.35C652.379 29.6167 652.687 29.95 652.859 30.35L651.831 30.775C651.715 30.5203 651.516 30.3096 651.266 30.175C650.989 30.0334 650.679 29.9645 650.366 29.975C650.079 29.9629 649.793 30.0324 649.544 30.175C649.304 30.325 649.185 30.5083 649.185 30.725C649.185 31.075 649.519 31.3167 650.186 31.45L651.112 31.7C652.345 31.9834 652.961 32.5834 652.961 33.5ZM656.97 35.35C656.524 35.35 656.114 35.2584 655.737 35.075C655.36 34.8917 655.077 34.6417 654.888 34.325H654.837L654.888 35.15V37.8H653.732V29.15H654.837V30H654.888C655.077 29.6833 655.36 29.4334 655.737 29.25C656.114 29.0667 656.533 28.975 656.996 28.975C657.8 28.975 658.486 29.2834 659.051 29.9C659.633 30.5167 659.924 31.2667 659.924 32.15C659.924 33.05 659.633 33.8083 659.051 34.425C658.486 35.0417 657.8 35.35 656.996 35.35H656.97ZM656.79 34.325C657.355 34.325 657.826 34.125 658.203 33.725C658.58 33.325 658.768 32.8 658.768 32.15C658.768 31.5334 658.58 31.0167 658.203 30.6C657.826 30.1834 657.355 29.9833 656.79 30C656.224 30 655.754 30.2 655.377 30.6C655.017 31.0167 654.837 31.5334 654.837 32.15C654.837 32.8 655.017 33.325 655.377 33.725C655.754 34.125 656.224 34.325 656.79 34.325ZM663.085 28.975C663.941 28.975 664.617 29.1917 665.114 29.625C665.611 30.0583 665.859 30.6667 665.859 31.45V35.15H664.755V34.325H664.704C664.224 35.0083 663.581 35.35 662.776 35.35C662.108 35.35 661.543 35.1583 661.08 34.775C660.618 34.3917 660.387 33.9 660.387 33.3C660.387 32.6833 660.627 32.1917 661.106 31.825C661.586 31.4584 662.237 31.275 663.059 31.275C663.744 31.275 664.309 31.3917 664.755 31.625V31.375C664.755 30.975 664.592 30.6417 664.266 30.375C663.962 30.1134 663.568 29.9709 663.162 29.975C662.511 29.975 661.997 30.2417 661.62 30.775L660.592 30.15C661.158 29.3667 661.988 28.975 663.085 28.975ZM661.595 33.325C661.595 33.625 661.723 33.8667 661.98 34.05C662.237 34.2334 662.537 34.3333 662.879 34.35C663.359 34.35 663.787 34.175 664.164 33.825C664.54 33.475 664.738 33.0667 664.755 32.6C664.395 32.3167 663.89 32.175 663.239 32.175C662.776 32.175 662.383 32.2834 662.057 32.5C661.731 32.7167 661.577 32.9917 661.595 33.325ZM669.791 35.35C668.866 35.35 668.103 35.05 667.504 34.45C666.905 33.8334 666.605 33.0667 666.605 32.15C666.605 31.2334 666.905 30.475 667.504 29.875C668.103 29.275 668.866 28.975 669.791 28.975C670.424 28.975 670.973 29.125 671.435 29.425C671.897 29.725 672.248 30.15 672.489 30.7L671.435 31.125C671.109 30.375 670.536 30 669.714 30C669.183 30 668.72 30.2083 668.326 30.625C667.949 31.0417 667.761 31.55 667.761 32.15C667.761 32.75 667.949 33.2667 668.326 33.7C668.72 34.1167 669.183 34.325 669.714 34.325C670.553 34.325 671.144 33.95 671.486 33.2L672.54 33.625C672.3 34.175 671.94 34.6 671.461 34.9C670.981 35.2 670.424 35.35 669.791 35.35ZM676.008 35.35C675.1 35.35 674.355 35.05 673.773 34.45C673.191 33.85 672.9 33.0834 672.9 32.15C672.9 31.25 673.182 30.4917 673.747 29.875C674.313 29.2584 675.041 28.9584 675.931 28.975C676.856 28.975 677.584 29.2584 678.115 29.825C678.646 30.3917 678.92 31.2 678.938 32.25V32.375H674.082C674.098 32.9584 674.295 33.4333 674.672 33.8C675.049 34.1667 675.511 34.3417 676.06 34.325C676.796 34.325 677.378 33.9667 677.807 33.25L678.835 33.75C678.568 34.2378 678.168 34.6444 677.678 34.925C677.199 35.2084 676.642 35.35 676.008 35.35ZM674.159 31.425H677.704C677.67 31.0084 677.499 30.6667 677.19 30.4C676.882 30.1333 676.454 30 675.906 30C675.477 30 675.109 30.125 674.8 30.375C674.492 30.625 674.278 30.975 674.159 31.425Z" fill="#0A1833"/>
<path d="M629.813 26.4H631.008L628.617 35.4H627.447L625.54 29.46H625.489L623.557 35.4H622.387L619.92 26.4H621.115L622.997 33.4714H623.048L624.981 27.6085H626.049L627.982 33.4714H628.033L629.813 26.4Z" fill="#0A1833"/>
<path d="M767.886 21.6527C767.626 21.6394 767.366 21.6573 767.111 21.706C766.684 21.7759 766.276 21.9313 765.91 22.1631C765.543 22.395 765.226 22.6987 764.976 23.0565C764.726 23.4143 764.548 23.819 764.454 24.2471C764.359 24.6753 764.35 25.1183 764.425 25.5503C764.611 27.3318 766.48 28.8341 768.21 28.8789C768.388 28.8835 768.566 28.8715 768.741 28.8431C770.613 28.5351 771.103 26.5743 770.795 24.6484C770.446 22.4739 768.921 21.7073 767.886 21.6527ZM769.721 26.8047C769.642 26.9249 769.532 27.0211 769.403 27.0829C769.275 27.1447 769.132 27.1698 768.99 27.1555C768.741 27.1355 768.509 27.0201 768.341 26.8326C768.173 26.6452 768.081 26.3997 768.084 26.146C768.079 25.8079 768.144 25.4725 768.272 25.1606C768.353 24.9625 768.36 24.7417 768.294 24.5382C768.228 24.3348 768.092 24.1623 767.911 24.0521C767.689 23.9121 767.422 23.8641 767.166 23.9181C766.918 23.9665 766.699 24.1124 766.557 24.3242C766.461 24.4822 766.385 24.6526 766.333 24.8307C766.323 24.8619 766.315 24.8864 766.309 24.9023C766.224 25.1222 766.089 25.1865 765.997 25.1745C765.964 25.1683 765.932 25.1523 765.907 25.1285C765.882 25.1047 765.865 25.074 765.856 25.0403C765.809 24.7467 765.831 24.4459 765.921 24.1629C766.011 23.88 766.167 23.623 766.374 23.4134C766.555 23.2299 766.775 23.0909 767.017 23.0067C767.259 22.9227 767.516 22.8957 767.77 22.9281C768.036 22.9606 768.29 23.0585 768.511 23.2133C768.732 23.3681 768.912 23.5753 769.036 23.8167C769.156 24.1073 769.204 24.4232 769.177 24.737C769.15 25.0509 769.049 25.3533 768.881 25.6184C768.86 25.6643 768.841 25.7063 768.824 25.7438C768.764 25.8477 768.731 25.9654 768.728 26.0859C768.725 26.2064 768.752 26.3258 768.806 26.4327C768.855 26.4979 768.917 26.5505 768.99 26.5858C769.062 26.6211 769.142 26.6383 769.222 26.6359C769.299 26.6349 769.375 26.6246 769.449 26.6051C769.545 26.5835 769.644 26.5613 769.705 26.6345C769.725 26.6575 769.737 26.6863 769.74 26.717C769.743 26.7476 769.736 26.7783 769.721 26.8047Z" fill="#0A1833"/>
<path d="M791.811 30.4585C792.202 29.4512 792.428 28.3857 792.48 27.3041C792.48 25.9745 791.739 25.4234 791.267 25.4234C791.253 25.3721 791.16 25.0253 791.031 24.6079C790.958 24.3659 790.871 24.1284 790.77 23.8966C791.156 23.3547 791.319 22.6813 791.226 22.0191C791.148 21.5085 790.909 21.0373 790.545 20.6771C789.854 20.0805 789.028 19.6657 788.142 19.4692C788.008 19.4313 787.568 19.3087 787.53 19.2967C787.527 19.2711 787.497 17.8319 787.471 17.2141C787.459 16.5945 787.369 15.9792 787.201 15.3835C786.992 14.5287 786.56 13.7468 785.951 13.1202C787.476 11.5161 788.428 9.7492 788.426 8.2334C788.421 5.31828 784.893 4.43613 780.546 6.26306C780.541 6.26511 779.631 6.65657 779.625 6.65994C779.621 6.65584 777.96 5.00189 777.935 4.97965C772.978 0.592294 757.48 18.0734 762.435 22.3191L763.518 23.2499C763.226 24.0457 763.123 24.9003 763.217 25.7441C763.364 26.9719 763.961 28.0982 764.889 28.898C765.79 29.729 766.954 30.2047 768.171 30.2387C770.099 34.748 774.504 37.5141 779.67 37.6698C785.211 37.8368 789.862 35.1983 791.811 30.4585ZM792.949 25.1222C793.423 25.7448 793.668 26.5171 793.639 27.3041C793.589 28.5318 793.336 29.7422 792.892 30.8847L792.881 30.9115C791.875 33.3687 790.12 35.4327 787.873 36.7994C785.534 38.1817 782.87 38.8917 780.165 38.8534H780.164C779.989 38.8534 779.811 38.8507 779.636 38.8454C776.966 38.7887 774.359 38.0069 772.087 36.5811C770.087 35.3073 768.469 33.5011 767.407 31.3585C766.184 31.1655 765.043 30.6167 764.121 29.7783C762.974 28.7827 762.239 27.3839 762.064 25.8615C761.986 25.1219 762.028 24.3741 762.189 23.6484L761.686 23.2164C761.279 22.8593 760.948 22.4213 760.714 21.9293C760.48 21.4375 760.348 20.9021 760.325 20.3561C760.284 19.223 760.476 18.0936 760.891 17.0407C761.922 14.1775 764.296 10.7681 767.241 7.92053C768.555 6.62454 770.013 5.48805 771.585 4.53387C772.897 3.68156 774.403 3.18861 775.957 3.10296C776.959 3.07639 777.936 3.42938 778.696 4.09338C778.74 4.13187 779.391 4.77871 779.884 5.27011C780.008 5.21699 780.097 5.17878 780.1 5.17777C781.56 4.53135 783.129 4.17741 784.722 4.13538C787.672 4.13538 789.581 5.74323 789.585 8.2316C789.587 9.76707 788.845 11.4883 787.478 13.1545C787.85 13.7392 788.131 14.3785 788.312 15.05C788.506 15.7374 788.613 16.4474 788.629 17.1624C788.642 17.47 788.655 17.9636 788.666 18.3993C789.675 18.6588 790.608 19.162 791.384 19.8661C791.911 20.3969 792.256 21.0853 792.369 21.8301C792.484 22.5653 792.372 23.3185 792.049 23.9868C792.078 24.0705 792.108 24.1614 792.138 24.2577C792.163 24.3417 792.188 24.4226 792.211 24.4994C792.495 24.6556 792.745 24.8673 792.949 25.1222H792.949Z" fill="#0A1833"/>
<path d="M789.437 23.6662C789.625 23.4867 789.771 23.2672 789.866 23.0235C789.961 22.7797 790.001 22.5177 789.985 22.2561C789.947 21.9925 789.826 21.7485 789.64 21.5609C789.094 21.1002 788.444 20.7839 787.748 20.6404C787.43 20.5487 787.215 20.4901 786.982 20.4115C786.569 20.2719 786.365 20.1593 786.319 19.3614C786.299 19.0124 786.24 17.7967 786.218 17.2943C786.181 16.4141 786.077 15.2108 785.351 14.7141C785.166 14.5895 784.951 14.5189 784.73 14.5101C784.606 14.5023 784.481 14.5148 784.361 14.5471C783.992 14.6347 783.657 14.8296 783.395 15.108C783.057 15.4221 782.658 15.6612 782.223 15.8101C781.789 15.9591 781.329 16.0147 780.873 15.9733C780.364 15.9514 779.825 15.8701 779.207 15.8324C779.087 15.8252 778.967 15.8175 778.846 15.8111C778.048 15.835 777.285 16.1498 776.696 16.6979C776.107 17.2461 775.732 17.9911 775.638 18.7971C775.285 21.2971 777.047 22.589 777.555 23.3471C777.634 23.4438 777.683 23.5621 777.695 23.6869C777.682 23.8254 777.617 23.9535 777.514 24.045L777.514 24.0457C776.81 24.8516 776.315 25.8239 776.076 26.874C775.836 27.9241 775.86 29.0184 776.143 30.0571C776.21 30.3065 776.297 30.5503 776.401 30.7862C777.687 33.8733 781.675 35.3109 785.572 34.0034C786.082 33.8321 786.577 33.6171 787.052 33.3607C787.907 32.9267 788.675 32.3367 789.319 31.6201C790.324 30.5841 790.984 29.254 791.207 27.8169C791.324 27.0213 791.152 26.7133 790.918 26.5653C790.753 26.4708 790.561 26.4349 790.374 26.4632C790.275 25.8386 790.1 25.2287 789.855 24.6472L789.437 23.6662Z" fill="#0A1833"/>
<path d="M783.051 11.7441C783.114 11.7587 783.154 11.6484 783.098 11.6163C782.167 11.1261 781.14 10.853 780.092 10.817C780.082 10.8169 780.072 10.8139 780.064 10.8084C780.055 10.8029 780.048 10.7951 780.044 10.7859C780.039 10.7767 780.037 10.7665 780.038 10.7563C780.039 10.7461 780.043 10.7364 780.049 10.7281C780.212 10.5118 780.402 10.3181 780.615 10.1521C780.624 10.1447 780.631 10.1343 780.634 10.1225C780.638 10.1107 780.637 10.0981 780.633 10.0867C780.629 10.0752 780.621 10.0654 780.611 10.0587C780.601 10.0521 780.589 10.0489 780.577 10.0496C779.294 10.1777 778.06 10.6196 776.982 11.3375C776.973 11.3439 776.962 11.3472 776.951 11.3472C776.94 11.3471 776.929 11.3437 776.92 11.3374C776.91 11.3311 776.903 11.3221 776.899 11.3115C776.895 11.3011 776.894 11.2896 776.897 11.2786C776.984 10.9493 777.111 10.6327 777.277 10.3364C777.283 10.3263 777.285 10.3146 777.283 10.3031C777.282 10.2916 777.276 10.2809 777.268 10.2727C777.26 10.2644 777.25 10.2589 777.239 10.2571C777.228 10.2553 777.216 10.2572 777.206 10.2625C775.649 11.1317 774.261 12.2827 773.11 13.6588C773.101 13.6693 773.097 13.6827 773.097 13.6967C773.097 13.7105 773.102 13.7239 773.111 13.7342C773.12 13.7445 773.133 13.7509 773.147 13.7524C773.16 13.7539 773.174 13.7502 773.185 13.7421C774.518 12.7955 776.02 12.1218 777.606 11.7589C779.397 11.339 781.258 11.334 783.051 11.7441" fill="#0A1833"/>
<path d="M778.464 7.27714C778.464 7.27714 777.115 5.68992 776.708 5.57285C774.202 4.88577 768.79 8.67354 765.334 13.6778C763.936 15.7026 761.935 19.2883 762.892 21.1325C763.232 21.5465 763.615 21.9218 764.035 22.2515C764.677 21.3381 765.642 20.7132 766.727 20.5087C768.09 16.6375 770.482 13.226 773.637 10.6529C775.151 9.39367 776.766 8.26447 778.464 7.27714Z" fill="#0A1833"/>
<path d="M769.63 26.7369C769.649 26.7608 769.661 26.7902 769.664 26.821C769.666 26.8519 769.66 26.8829 769.645 26.91C769.572 27.0299 769.468 27.1268 769.344 27.1898C769.22 27.2528 769.081 27.2792 768.943 27.2663C768.697 27.2394 768.47 27.1185 768.309 26.9282C768.147 26.7378 768.062 26.4922 768.072 26.241C768.068 25.8985 768.129 25.5586 768.253 25.24C768.331 25.0404 768.339 24.8196 768.276 24.6146C768.213 24.4096 768.082 24.233 767.906 24.1144C767.802 24.0443 767.685 23.9961 767.562 23.9727C767.439 23.9493 767.312 23.9512 767.19 23.9782C767.071 24.0038 766.957 24.0535 766.857 24.1243C766.756 24.1952 766.67 24.2857 766.605 24.3906C766.512 24.5521 766.44 24.725 766.39 24.905C766.38 24.9368 766.373 24.9616 766.367 24.9777C766.285 25.2012 766.155 25.2664 766.067 25.2544C766.025 25.2486 765.968 25.2203 765.932 25.118C765.885 24.8222 765.906 24.5196 765.993 24.2333C766.079 23.947 766.228 23.6844 766.429 23.4656C766.598 23.2812 766.808 23.1404 767.041 23.0548C767.274 22.969 767.524 22.941 767.77 22.9729C768.031 23.0093 768.278 23.1108 768.491 23.2682C768.703 23.4257 768.874 23.6343 768.987 23.8752C769.102 24.1714 769.149 24.4905 769.123 24.8078C769.097 25.1252 769 25.4322 768.839 25.7052C768.818 25.7516 768.799 25.7942 768.784 25.8326C768.726 25.9393 768.694 26.0585 768.691 26.1803C768.688 26.3021 768.714 26.4228 768.766 26.5322C768.811 26.5975 768.871 26.6505 768.941 26.6865C769.01 26.7225 769.088 26.7404 769.166 26.7385C769.239 26.7374 769.313 26.7269 769.384 26.7072C769.476 26.6852 769.572 26.6626 769.63 26.7369ZM792.431 27.3154C792.379 28.3944 792.154 29.4576 791.766 30.4633C789.83 35.193 785.209 37.826 779.704 37.6594C774.573 37.504 770.196 34.7436 768.28 30.2438C767.071 30.2094 765.914 29.7346 765.02 28.9059C764.097 28.1061 763.504 26.9826 763.359 25.7587C763.265 24.9166 763.368 24.064 763.658 23.2697L762.582 22.3407C757.66 18.104 773.056 0.659609 777.98 5.03785C778.005 5.05989 779.656 6.71051 779.66 6.71458C779.666 6.71118 780.57 6.32043 780.575 6.31853C784.894 4.4954 788.398 5.37567 788.403 8.28455C788.405 9.79729 787.459 11.5606 785.945 13.1612C786.55 13.7873 786.979 14.5674 787.186 15.4196C787.353 16.0142 787.443 16.6284 787.454 17.2466C787.481 17.863 787.51 19.2992 787.513 19.3248C787.551 19.3366 787.988 19.459 788.121 19.4969C789.002 19.6934 789.822 20.1074 790.508 20.7024C790.871 21.0624 791.108 21.5324 791.184 22.0414C791.278 22.7019 791.116 23.3735 790.732 23.915C790.832 24.1464 790.918 24.3834 790.991 24.625C791.119 25.0416 791.212 25.3872 791.226 25.4386C791.695 25.4386 792.431 25.9885 792.431 27.3154V27.3154ZM770.677 24.72C770.342 22.5114 768.877 21.7331 767.882 21.6776C767.632 21.6641 767.382 21.6822 767.137 21.7316C765.362 22.0966 764.359 23.6358 764.557 25.6358C764.7 26.5329 765.137 27.3546 765.797 27.968C766.457 28.5815 767.302 28.9508 768.194 29.0165C768.364 29.0211 768.535 29.0089 768.703 28.98C770.503 28.6672 770.974 26.676 770.677 24.72ZM773.711 10.7C775.215 9.44375 776.818 8.31695 778.506 7.33131C778.506 7.33131 777.166 5.74749 776.761 5.63077C774.272 4.94492 768.896 8.72475 765.463 13.7186C764.074 15.7391 762.085 19.3173 763.036 21.1576C763.374 21.5706 763.755 21.9451 764.172 22.2743C764.808 21.3638 765.767 20.7402 766.847 20.5352C768.198 16.6758 770.573 13.2717 773.711 10.7ZM779.121 28.1774C779.187 28.471 779.329 28.741 779.534 28.9588C779.738 29.1767 779.997 29.3344 780.282 29.4153C780.579 29.5277 780.885 29.6125 781.197 29.6686C785.134 30.359 788.815 28.0642 789.644 27.4863C789.706 27.4429 789.747 27.4852 789.697 27.5618C789.672 27.6026 789.645 27.642 789.616 27.6798C788.602 29.0134 785.875 30.5577 782.328 30.5572C780.78 30.5569 779.234 30.0012 778.666 29.1475C777.785 27.8228 778.623 25.8892 780.09 26.0906C780.092 26.0909 780.593 26.1488 780.733 26.1646C783.015 26.3876 785.315 26.0125 787.413 25.075C789.416 24.1274 790.172 23.0845 790.059 22.2403C790.021 21.9782 789.9 21.7358 789.714 21.5501C789.166 21.092 788.516 20.778 787.82 20.636C787.502 20.545 787.286 20.4868 787.054 20.4088C786.641 20.27 786.436 20.1583 786.39 19.3659C786.37 19.0194 786.311 17.8122 786.289 17.3132C786.251 16.4391 786.148 15.2442 785.421 14.7509C785.236 14.6271 785.021 14.557 784.799 14.5484C784.675 14.5406 784.55 14.5531 784.43 14.5852C784.061 14.6719 783.726 14.8654 783.463 15.1422C783.123 15.4545 782.724 15.692 782.289 15.8398C781.855 15.9877 781.395 16.0427 780.938 16.0014C780.429 15.9798 779.89 15.899 779.272 15.8616C779.151 15.8543 779.031 15.8467 778.91 15.8404C778.114 15.8617 777.352 16.1727 776.763 16.7169C776.173 17.2612 775.796 18.0024 775.699 18.8056C775.345 21.2882 777.109 22.571 777.618 23.3238C777.697 23.4197 777.745 23.5372 777.758 23.6614C777.745 23.7991 777.68 23.9264 777.577 24.0169V24.0177C776.873 24.8151 776.378 25.7802 776.138 26.8236C775.898 27.867 775.921 28.9551 776.204 29.9871C776.272 30.2349 776.358 30.477 776.462 30.7112C777.749 33.7768 781.742 35.2042 785.642 33.9058C786.153 33.7358 786.648 33.5224 787.124 33.2679C787.978 32.8376 788.747 32.2517 789.393 31.5392C790.397 30.5132 791.058 29.1918 791.282 27.7625C791.4 26.9723 791.228 26.6667 790.993 26.5196C790.828 26.4258 790.636 26.3901 790.448 26.4181C790.349 25.7976 790.175 25.1919 789.93 24.6147C788.816 25.469 787.556 26.1074 786.215 26.498C784.601 26.9614 782.922 27.1465 781.248 27.0455C780.17 26.9568 779.458 26.6362 779.19 27.5242C780.819 28.0779 782.549 28.2572 784.255 28.0494C784.267 28.0481 784.279 28.0492 784.291 28.0528C784.302 28.0563 784.313 28.0621 784.322 28.0699C784.331 28.0776 784.339 28.0872 784.345 28.098C784.351 28.1088 784.354 28.1207 784.355 28.1329C784.357 28.1534 784.353 28.174 784.342 28.1918C784.332 28.2095 784.317 28.2237 784.298 28.2322C784.298 28.2322 782.298 29.1791 779.121 28.1774ZM773.261 13.7811C774.585 12.837 776.077 12.1648 777.654 11.8022C779.433 11.3832 781.282 11.3782 783.063 11.7874C783.125 11.802 783.165 11.6919 783.109 11.66C782.185 11.171 781.164 10.8984 780.123 10.8622C780.113 10.862 780.103 10.859 780.095 10.8536C780.086 10.8481 780.079 10.8404 780.075 10.8312C780.071 10.822 780.069 10.8118 780.07 10.8017C780.071 10.7915 780.074 10.7818 780.08 10.7736C780.242 10.5578 780.431 10.3646 780.642 10.1988C780.652 10.1913 780.659 10.1809 780.662 10.1692C780.665 10.1574 780.665 10.145 780.66 10.1335C780.656 10.1221 780.649 10.1123 780.639 10.1056C780.628 10.099 780.617 10.0957 780.605 10.0964C779.329 10.2245 778.104 10.6656 777.033 11.3817C777.024 11.388 777.013 11.3914 777.002 11.3913C776.991 11.3913 776.98 11.3879 776.971 11.3816C776.962 11.3752 776.955 11.3662 776.951 11.3558C776.947 11.3453 776.946 11.3339 776.949 11.323C777.035 10.9946 777.162 10.6786 777.327 10.3828C777.332 10.3727 777.334 10.361 777.333 10.3496C777.331 10.3382 777.326 10.3276 777.318 10.3193C777.31 10.311 777.3 10.3056 777.289 10.3037C777.277 10.3018 777.266 10.3036 777.256 10.3089C775.708 11.1773 774.329 12.326 773.187 13.6983C773.178 13.7087 773.173 13.7221 773.173 13.7359C773.174 13.7498 773.179 13.763 773.188 13.7732C773.197 13.7835 773.21 13.79 773.223 13.7914C773.237 13.7928 773.25 13.7892 773.261 13.7811ZM783.629 22.2082C783.737 22.2775 783.866 22.3041 783.992 22.2828C784.118 22.2616 784.231 22.194 784.311 22.093C784.411 21.8976 784.267 21.6327 783.989 21.5011C783.881 21.4318 783.752 21.4052 783.626 21.4266C783.501 21.4478 783.387 21.5155 783.307 21.6166C783.208 21.8118 783.352 22.0767 783.629 22.2082ZM784.48 19.0406C784.546 19.3922 784.69 19.7242 784.9 20.0119C785.117 19.9848 785.336 19.9848 785.553 20.0119C785.68 19.6258 785.691 19.2102 785.585 18.8178C785.428 18.0936 785.216 17.6554 784.778 17.7235C784.339 17.7918 784.323 18.3164 784.48 19.0406ZM785.412 20.704C785.302 20.6718 785.184 20.6756 785.076 20.7148C784.967 20.7541 784.874 20.8268 784.808 20.9228C784.743 21.0189 784.709 21.1334 784.71 21.2502C784.712 21.3671 784.75 21.4804 784.818 21.5744C784.887 21.6683 784.982 21.7381 785.092 21.7739C785.201 21.8097 785.319 21.8098 785.429 21.7741C785.538 21.7384 785.634 21.6687 785.702 21.5748C785.771 21.481 785.809 21.3677 785.811 21.2508C785.827 21.125 785.794 20.9979 785.72 20.896C785.646 20.794 785.535 20.7253 785.412 20.704Z" fill="#D8ED58"/>
<path d="M778.136 20.6377C778.066 20.6277 778.036 20.5973 778.027 20.557C778 20.4321 778.189 20.2265 778.388 20.0781C778.679 19.8619 779.02 19.7255 779.377 19.6819C779.735 19.6383 780.098 19.6889 780.431 19.8289C780.742 19.9593 781.009 20.1781 781.201 20.459C781.273 20.5771 781.286 20.6687 781.24 20.7167C781.168 20.7937 780.985 20.7055 780.687 20.5727C780.33 20.3943 779.934 20.3077 779.536 20.3206C779.063 20.3995 778.596 20.5054 778.136 20.6377ZM781.105 21.259C780.976 21.1215 780.816 21.0185 780.639 20.9594C780.461 20.9003 780.272 20.8868 780.088 20.9202C779.817 20.9495 779.56 21.0583 779.349 21.2334C779.25 21.3053 779.183 21.4127 779.16 21.5337C779.159 21.5471 779.161 21.5605 779.166 21.5729C779.172 21.5853 779.179 21.5965 779.189 21.6055C779.207 21.6217 779.229 21.6305 779.253 21.6302C779.351 21.6157 779.446 21.5888 779.537 21.5502C779.935 21.3976 780.366 21.3522 780.786 21.4183C780.981 21.4406 781.073 21.453 781.116 21.385C781.127 21.3653 781.132 21.3427 781.13 21.3203C781.128 21.2977 781.119 21.2764 781.105 21.259Z" fill="black"/>
<path d="M780.553 21.442C780.676 20.9971 780.683 20.5272 780.573 20.0787C780.415 19.3534 780.175 18.939 779.73 19.0073C779.286 19.0755 779.274 19.66 779.418 20.3883C779.483 20.722 779.612 21.0398 779.796 21.3244C780.149 21.826 780.389 21.6962 780.552 21.442H780.553Z" fill="#D8ED58"/>
<path d="M812.97 19.0417C810.829 19.0417 809.772 20.7605 809.284 21.8698C809.015 22.487 808.938 22.9753 808.719 22.9753C808.403 22.9753 808.63 22.5534 808.377 21.6081C808.042 20.3659 807.035 19.0495 804.898 19.0495C802.653 19.0495 801.688 20.987 801.235 22.0534C800.92 22.78 800.92 22.9831 800.681 22.9831C800.335 22.9831 800.624 22.405 800.777 21.7253C800.966 20.948 800.993 20.1394 800.854 19.3503H797.291V33.0303H802.146V26.2334C802.146 24.8896 802.699 23.1904 803.641 23.1904C804.736 23.1904 804.948 24.0458 804.948 25.6279V33.0459H809.829V26.2334C809.829 25.0381 810.306 23.1904 811.328 23.1904C812.435 23.1904 812.627 24.3935 812.627 25.6279V33.042H817.424V24.9912C817.428 21.4209 816.194 19.042 812.97 19.042L812.97 19.0417Z" fill="#0A1833"/>
<path d="M895.497 19.0417C893.36 19.0417 892.299 20.7605 891.815 21.8698C891.542 22.487 891.469 22.9753 891.246 22.9753C890.934 22.9753 891.146 22.4362 890.907 21.6081C890.55 20.3737 889.662 19.0495 887.429 19.0495C885.192 19.0495 884.219 20.987 883.762 22.0534C883.451 22.78 883.451 22.9831 883.213 22.9831C882.862 22.9831 883.151 22.405 883.308 21.7253C883.497 20.948 883.52 20.1394 883.381 19.3503H879.818V33.0303H884.677V26.2334C884.677 24.8896 885.226 23.1904 886.168 23.1904C887.256 23.1904 887.478 24.0458 887.478 25.6279V33.0459H892.356V26.2334C892.356 25.0381 892.837 23.1904 893.859 23.1904C894.955 23.1904 895.158 24.3935 895.158 25.6279V33.042H899.952V24.9912C899.956 21.4209 898.726 19.042 895.497 19.042V19.0417Z" fill="#0A1833"/>
<path d="M825.73 19.0445C823.523 19.0327 821.34 19.5093 819.33 20.439V24.5523C819.33 24.5523 822.282 22.8179 824.676 22.8179C826.587 22.8179 826.822 23.8726 826.737 24.7398C826.737 24.7398 826.187 24.5913 824.504 24.5913C820.541 24.5913 818.538 26.4311 818.538 29.3805C818.538 32.1773 820.787 33.3453 822.682 33.3453C825.445 33.3453 826.66 31.4507 827.037 30.5483C827.294 29.9233 827.34 29.5053 827.575 29.5053C827.84 29.5053 827.748 29.8061 827.732 30.4272C827.709 31.517 827.759 32.3374 827.924 33.0327H831.595V26.3061C831.595 22.103 830.142 19.0444 825.73 19.0444V19.0445ZM824.542 29.8375C823.377 30.1109 822.778 29.7437 822.778 28.9586C822.778 27.8805 823.873 27.4469 825.426 27.4469C826.114 27.4469 826.76 27.5094 826.76 27.5094C826.764 27.9703 825.784 29.5446 824.542 29.8375Z" fill="#0A1833"/>
<path d="M839.606 15.2135H844.473V33.0375H839.606V15.2135Z" fill="#0A1833"/>
<path d="M849.823 26.1966C849.823 24.9661 850.942 23.8489 852.994 23.8489C855.235 23.8489 857.035 24.9505 857.438 25.1966V20.4388C857.438 20.4388 856.016 19.0443 852.521 19.0443C848.835 19.0443 845.769 21.2474 845.769 25.9857C845.769 30.724 848.551 33.3451 852.506 33.3451C855.597 33.3451 857.441 31.6107 857.441 31.6107V27.099C856.858 27.431 855.235 28.5834 853.013 28.5834C850.669 28.5834 849.823 27.4779 849.823 26.1967V26.1966Z" fill="#0A1833"/>
<path d="M867.286 19.0456C864.465 19.0456 863.401 21.7644 863.185 22.2448C862.966 22.7252 862.858 22.9908 862.682 22.983C862.37 22.9752 862.589 22.4049 862.713 22.0338C863.181 20.4869 863.416 18.8776 863.416 17.2565C863.416 15.7292 863.212 15.2213 863.212 15.2213H859.015V33.0373H863.873V26.2326C863.873 25.1232 864.307 23.1896 865.533 23.1896C866.548 23.1896 866.864 23.9592 866.864 25.5061V33.0413H871.722V25.7991C871.734 22.2834 871.161 19.0451 867.286 19.0451V19.0456Z" fill="#0A1833"/>
<path d="M873.318 19.375V33.039H878.177V19.375C878.177 19.375 877.358 19.8555 875.748 19.8555C874.141 19.8555 873.318 19.375 873.318 19.375Z" fill="#0A1833"/>
<path d="M878.71 17.0625C878.71 15.9648 877.376 15.0781 875.731 15.0781C874.09 15.0781 872.756 15.9649 872.756 17.0625C872.756 18.1563 874.09 19.0469 875.731 19.0469C877.376 19.0469 878.71 18.1563 878.71 17.0625Z" fill="#0A1833"/>
<path d="M833.172 19.375V33.039H838.031V19.375C838.031 19.375 837.212 19.8555 835.605 19.8555C833.998 19.8555 833.172 19.375 833.172 19.375Z" fill="#0A1833"/>
<path d="M838.564 17.0625C838.564 15.9648 837.231 15.0781 835.589 15.0781C833.944 15.0781 832.614 15.9649 832.614 17.0625C832.614 18.1563 833.944 19.0469 835.589 19.0469C837.231 19.0469 838.564 18.1563 838.564 17.0625Z" fill="#0A1833"/>
<path d="M909.618 19.0417C907.119 19.0417 905.974 20.9636 905.478 22.0456C905.147 22.7644 905.163 22.9753 904.924 22.9753C904.579 22.9753 904.867 22.3972 905.021 21.7175C905.209 20.944 905.232 20.1355 905.094 19.3503H901.534V36.8153H906.393V31.2762C906.969 32.2762 908.034 33.3426 909.683 33.3426C913.2 33.3426 914.968 30.2996 914.968 26.1981C914.964 21.5458 912.847 19.0419 909.618 19.0419V19.0417ZM908.284 30.1007C907.169 30.1007 906.351 28.6593 906.351 26.6437C906.351 24.6867 907.192 23.1867 908.246 23.1867C909.598 23.1867 910.175 24.4562 910.175 26.6437C910.175 28.921 909.645 30.1007 908.284 30.1007Z" fill="#0A1833"/>
<path d="M810.732 7.30732C811.304 7.31123 811.77 6.83466 811.773 6.25262C811.773 5.66668 811.308 5.19012 810.736 5.19012C810.163 5.19012 809.698 5.66278 809.698 6.24872C809.698 6.83466 810.159 7.30732 810.732 7.30732ZM802.418 9.35035C802.721 8.65108 803.536 8.02222 804.547 8.02222C806.335 8.02222 807.076 9.42455 807.076 10.8542V15.2332H805.362V11.3504C805.362 10.5183 805.178 9.47922 804.078 9.47922C802.975 9.47922 802.475 10.4402 802.475 11.3776V15.2332H800.761V8.22535H802.391V9.34642L802.418 9.35035ZM798.997 15.2332H797.29V8.22535H798.997V15.2332ZM829.513 6.24872C829.513 6.83466 829.052 7.30732 828.479 7.30732C827.906 7.30732 827.444 6.83466 827.444 6.24872C827.444 5.66669 827.906 5.19012 828.479 5.19012C829.052 5.19012 829.513 5.66668 829.513 6.24872ZM807.953 9.77215H809.875V15.233H811.593V9.77215H813.515V8.22135H807.953V9.77215ZM817.709 13.9791C818.796 13.9791 819.311 13.0181 819.311 12.0807V8.22522H821.026V15.233H819.396V14.1119H819.369C819.073 14.8151 818.258 15.44 817.24 15.44C815.456 15.44 814.71 14.0378 814.71 12.608V8.22522H816.425V12.108C816.425 12.9479 816.609 13.9791 817.709 13.9791H817.709ZM825.703 8.21742V9.76822H827.625V15.233H829.34V9.77215H831.262V8.22135L825.703 8.21742ZM824.5 15.2252H822.782V8.22522H824.497L824.5 15.2252Z" fill="#0A1833"/>
<path fill-rule="evenodd" clip-rule="evenodd" d="M1014.55 26.6574C1013.87 27.8779 1012.76 28.7786 1011.44 29.1708C1011.63 28.507 1011.73 27.8193 1011.73 27.1279C1011.73 23.6847 1009.42 20.7968 1006.33 20.0104C1006.97 19.3647 1007.76 18.8996 1008.63 18.6599C1009.3 18.4727 1009.99 18.4244 1010.68 18.518C1011.37 18.6115 1012.03 18.8451 1012.63 19.2049C1015.14 20.7093 1016.01 24.0523 1014.55 26.6574ZM1004.64 32.5831C1003.26 32.5831 1001.95 32.0171 1000.98 31.0506C1001.63 30.8866 1002.26 30.6282 1002.83 30.2831C1005.71 28.5621 1006.98 25.0531 1006.09 21.8865C1008.29 22.54 1009.91 24.6399 1009.91 27.1279C1009.91 30.1354 1007.55 32.5831 1004.64 32.5831ZM994.726 26.6574C994.038 25.4233 993.86 23.9693 994.181 22.6169C994.643 23.1137 995.17 23.5413 995.747 23.8873C996.819 24.5302 998.038 24.8688 999.278 24.8686C1000.24 24.8678 1001.18 24.6674 1002.06 24.2796C1002.94 23.8918 1003.74 23.3246 1004.4 22.6121C1004.95 24.9129 1004 27.4112 1001.93 28.6544C1001.13 29.1325 1000.22 29.3843 999.299 29.3841C998.371 29.3845 997.459 29.1325 996.656 28.6537C995.853 28.1749 995.187 27.4863 994.726 26.6574H994.726ZM994.726 14.8061C995.409 13.5855 996.525 12.6848 997.839 12.2927C997.651 12.9566 997.555 13.6445 997.554 14.3361C997.554 17.7774 999.858 20.6645 1002.95 21.4522C1001.3 23.1011 998.736 23.5024 996.655 22.2586C995.436 21.5295 994.564 20.3534 994.2 18.9456C994.018 18.2539 993.972 17.5322 994.062 16.8218C994.152 16.1116 994.378 15.4265 994.726 14.8061ZM1004.64 8.88034C1006.02 8.88034 1007.33 9.44587 1008.3 10.4115C1007.65 10.5769 1007.03 10.8358 1006.45 11.1803C1004.81 12.1606 1003.64 13.7423 1003.15 15.6353C1002.81 16.9287 1002.83 18.2918 1003.19 19.5768C1000.99 18.9227 999.371 16.823 999.371 14.3361C999.371 11.3278 1001.73 8.88034 1004.64 8.88034ZM1014.55 14.8061C1015.24 16.0418 1015.42 17.4973 1015.1 18.8514C1014.64 18.3525 1014.11 17.9232 1013.53 17.5762C1011.89 16.5967 1009.99 16.3364 1008.16 16.8435C1006.9 17.1907 1005.77 17.8873 1004.88 18.8565C1004.66 17.9579 1004.67 17.0169 1004.9 16.122C1005.26 14.7145 1006.14 13.5379 1007.36 12.809C1008.58 12.0807 1010 11.8871 1011.35 12.2641C1012.71 12.6413 1013.85 13.5441 1014.55 14.8061ZM1016.13 13.8663C1015.18 12.169 1013.65 10.9551 1011.82 10.448C1011.39 10.3287 1010.95 10.2517 1010.5 10.2179C1009.19 8.22115 1006.99 7 1004.64 7C1002.21 7 1000.06 8.27708 998.78 10.2171C996.452 10.3942 994.328 11.758 993.153 13.8657C992.206 15.5628 991.955 17.54 992.445 19.4331C992.561 19.8801 992.718 20.315 992.913 20.732C991.898 22.9067 991.978 25.4911 993.153 27.598C994.369 29.7795 996.512 31.0673 998.773 31.2423C1000.08 33.2407 1002.29 34.464 1004.64 34.464C1007.07 34.464 1009.22 33.1867 1010.5 31.2464C1011.66 31.1565 1012.77 30.777 1013.75 30.1412C1014.73 29.5053 1015.55 28.6322 1016.13 27.598C1017.34 25.416 1017.35 22.8498 1016.37 20.7355C1017.38 18.5597 1017.3 15.9743 1016.13 13.8663" fill="#0A1833"/>
<path d="M1028.02 19.3799C1026.52 19.3799 1025.57 19.8872 1025.57 20.7916C1025.57 21.696 1026.57 22.0933 1028.06 22.2539C1030.18 22.4399 1032.93 22.8118 1032.93 25.7789C1032.93 27.8921 1031 29.3967 1028.04 29.3967C1026.17 29.3967 1024.38 28.9741 1022.8 27.2835L1024.06 25.5928C1025.11 26.6833 1026.54 27.2911 1028.02 27.2835C1029.3 27.2835 1030.56 26.8862 1030.56 25.8212C1030.56 24.756 1029.58 24.4053 1027.88 24.2445C1025.73 24.0587 1023.19 23.3992 1023.19 20.8632C1023.19 18.3275 1025.83 17.3849 1027.97 17.3849C1029.57 17.3527 1031.14 17.8833 1032.41 18.8895L1031.15 20.3986C1030.24 19.7088 1029.14 19.3503 1028.02 19.3799ZM1040.88 27.1735C1042.09 27.1735 1043.49 26.751 1044.21 25.9437L1045.78 27.4483C1044.59 28.7713 1042.6 29.3967 1040.83 29.3967C1037.06 29.3967 1034.63 27.0553 1034.63 23.3909C1034.63 19.9124 1037.15 17.3849 1040.79 17.3849C1044.17 17.3849 1046.5 19.3546 1046.5 23.302C1046.5 23.6231 1046.47 23.974 1046.45 24.3207H1037.14C1037.34 26.1043 1038.75 27.1735 1040.88 27.1735ZM1040.79 19.5195C1039.04 19.5195 1037.52 20.4703 1037.16 22.3257H1044.13C1043.99 20.4915 1042.78 19.5195 1040.79 19.5195ZM1057.61 22.6934C1057.61 20.7239 1056.49 19.5871 1054.51 19.5871C1054.08 19.5833 1053.65 19.6715 1053.25 19.8461C1052.85 20.0207 1052.49 20.278 1052.19 20.6023C1051.89 20.9296 1051.65 21.3163 1051.5 21.7394C1051.34 22.1624 1051.27 22.6133 1051.29 23.0654V29.1219H1048.87V17.6638H1051.06L1051.21 19.2615C1052.16 18.0642 1053.58 17.3765 1055.07 17.3849C1057.84 17.3849 1060.01 19.1011 1060.01 22.6723V29.1221H1057.59L1057.62 22.6934H1057.61ZM1074.67 29.1221H1072.41L1072.27 27.3088C1071.37 28.6709 1069.87 29.4579 1068.29 29.3967C1064.96 29.3967 1062.42 27.1948 1062.42 23.3909C1062.42 19.4939 1064.91 17.3849 1068.24 17.3849C1069.64 17.3849 1071.53 18.0569 1072.27 19.4265V12.9089H1074.69L1074.67 29.1219V29.1221ZM1064.81 23.3909C1064.81 25.7111 1066.4 27.1735 1068.44 27.1735C1070.43 27.1735 1072.04 25.4856 1072.04 23.4035C1072.04 21.3215 1070.43 19.6334 1068.44 19.6334C1066.4 19.6334 1064.81 21.0706 1064.81 23.3909ZM1079.15 12.6048C1079.34 12.5885 1079.53 12.6143 1079.72 12.6807C1079.9 12.747 1080.06 12.8523 1080.2 12.9897C1080.34 13.1284 1080.45 13.2957 1080.53 13.4811C1080.61 13.6665 1080.64 13.866 1080.64 14.067C1080.58 14.8862 1079.93 15.5201 1079.15 15.5201C1078.36 15.5201 1077.71 14.8864 1077.66 14.067C1077.65 13.866 1077.69 13.6665 1077.77 13.4811C1077.84 13.2957 1077.95 13.1284 1078.09 12.9897C1078.23 12.8523 1078.4 12.747 1078.58 12.6807C1078.76 12.6143 1078.96 12.5885 1079.15 12.6048ZM1080.34 29.1221H1077.92V17.664H1080.34V29.1221ZM1092.31 22.6934C1092.31 20.7239 1091.2 19.5871 1089.21 19.5871C1088.78 19.5827 1088.35 19.6704 1087.95 19.8449C1087.55 20.0193 1087.19 20.2766 1086.89 20.601C1086.59 20.9284 1086.35 21.3153 1086.2 21.7387C1086.04 22.162 1085.97 22.6132 1085.99 23.0654V29.1219H1083.57V17.6638H1085.76L1085.9 19.2615C1086.86 18.0642 1088.28 17.3763 1089.77 17.3849C1092.54 17.3849 1094.71 19.1011 1094.71 22.6723V29.1221H1092.29L1092.31 22.6934ZM1100.21 19.5405C1100.96 18.171 1102.85 17.3849 1104.24 17.3849C1107.55 17.3849 1110.07 19.4982 1110.07 23.3909C1110.07 27.1948 1107.37 29.3967 1104.22 29.3967C1102.78 29.3967 1101.12 28.7713 1100.21 27.3088L1100.08 29.1221H1097.81V12.9089H1100.23L1100.21 19.5405ZM1100.35 23.3909C1100.35 23.8949 1100.44 24.3954 1100.62 24.8625C1100.8 25.3297 1101.08 25.7541 1101.42 26.1102C1101.76 26.463 1102.17 26.7395 1102.62 26.9224C1103.07 27.1053 1103.55 27.1907 1104.03 27.1735C1106.13 27.1735 1107.66 25.7113 1107.66 23.3909C1107.66 21.0706 1106.13 19.6334 1104.03 19.6334C1103.55 19.6169 1103.07 19.7021 1102.63 19.8837C1102.18 20.0652 1101.77 20.3395 1101.43 20.6895C1101.09 21.0429 1100.81 21.4639 1100.63 21.9278C1100.44 22.3918 1100.35 22.8892 1100.35 23.3909ZM1115.13 29.1221H1112.71V12.9089H1115.13V29.1221ZM1120.7 23.9024C1120.7 25.8508 1121.79 27.1948 1123.82 27.1948C1124.25 27.1992 1124.68 27.112 1125.08 26.9385C1125.47 26.765 1125.83 26.5089 1126.13 26.1864C1126.43 25.8607 1126.66 25.476 1126.81 25.0552C1126.96 24.6344 1127.03 24.1862 1127.01 23.7374V17.6638H1129.41V29.1219H1127.25L1127.11 27.5414C1126.13 28.7657 1124.67 29.4501 1123.15 29.3967C1120.32 29.3967 1118.31 27.3807 1118.31 23.9234V17.664H1120.71L1120.7 23.9024ZM1138.22 27.1735C1139.43 27.1735 1140.83 26.751 1141.56 25.9437L1143.12 27.4483C1141.93 28.7713 1139.95 29.3967 1138.18 29.3967C1134.4 29.3967 1131.98 27.0553 1131.98 23.3909C1131.98 19.9124 1134.5 17.3849 1138.13 17.3849C1141.51 17.3849 1143.84 19.3546 1143.84 23.302C1143.84 23.6231 1143.82 23.974 1143.8 24.3207H1134.47C1134.69 26.1043 1136.1 27.1735 1138.22 27.1735H1138.22ZM1138.13 19.5195C1136.38 19.5195 1134.87 20.4703 1134.5 22.3257H1141.47C1141.32 20.4915 1140.11 19.5195 1138.13 19.5195Z" fill="#0A1833"/>
<path d="M1219.89 21.6527C1219.63 21.6394 1219.37 21.6573 1219.11 21.706C1218.68 21.7759 1218.28 21.9313 1217.91 22.1631C1217.54 22.395 1217.23 22.6987 1216.98 23.0565C1216.73 23.4143 1216.55 23.819 1216.45 24.2471C1216.36 24.6753 1216.35 25.1183 1216.43 25.5503C1216.61 27.3318 1218.48 28.8341 1220.21 28.8789C1220.39 28.8835 1220.57 28.8715 1220.74 28.8431C1222.61 28.5351 1223.1 26.5743 1222.79 24.6484C1222.45 22.4739 1220.92 21.7073 1219.89 21.6527ZM1221.72 26.8047C1221.64 26.9249 1221.53 27.0211 1221.4 27.0829C1221.27 27.1447 1221.13 27.1698 1220.99 27.1555C1220.74 27.1355 1220.51 27.0201 1220.34 26.8326C1220.17 26.6452 1220.08 26.3997 1220.08 26.146C1220.08 25.8079 1220.14 25.4725 1220.27 25.1606C1220.35 24.9625 1220.36 24.7417 1220.29 24.5382C1220.23 24.3348 1220.09 24.1623 1219.91 24.0521C1219.69 23.9121 1219.42 23.8641 1219.17 23.9181C1218.92 23.9665 1218.7 24.1124 1218.56 24.3242C1218.46 24.4822 1218.39 24.6526 1218.33 24.8307C1218.32 24.8619 1218.32 24.8864 1218.31 24.9023C1218.22 25.1222 1218.09 25.1865 1218 25.1745C1217.96 25.1683 1217.93 25.1523 1217.91 25.1285C1217.88 25.1047 1217.86 25.074 1217.86 25.0403C1217.81 24.7467 1217.83 24.4459 1217.92 24.1629C1218.01 23.88 1218.17 23.623 1218.37 23.4134C1218.56 23.2299 1218.78 23.0909 1219.02 23.0067C1219.26 22.9227 1219.52 22.8957 1219.77 22.9281C1220.04 22.9606 1220.29 23.0585 1220.51 23.2133C1220.73 23.3681 1220.91 23.5753 1221.04 23.8167C1221.16 24.1073 1221.2 24.4232 1221.18 24.737C1221.15 25.0509 1221.05 25.3533 1220.88 25.6184C1220.86 25.6643 1220.84 25.7063 1220.82 25.7438C1220.76 25.8477 1220.73 25.9654 1220.73 26.0859C1220.72 26.2064 1220.75 26.3258 1220.81 26.4327C1220.85 26.4979 1220.92 26.5505 1220.99 26.5858C1221.06 26.6211 1221.14 26.6383 1221.22 26.6359C1221.3 26.6349 1221.37 26.6246 1221.45 26.6051C1221.54 26.5835 1221.64 26.5613 1221.7 26.6345C1221.73 26.6575 1221.74 26.6863 1221.74 26.717C1221.74 26.7476 1221.74 26.7783 1221.72 26.8047Z" fill="#0A1833"/>
<path d="M1243.81 30.4585C1244.2 29.4512 1244.43 28.3857 1244.48 27.3041C1244.48 25.9745 1243.74 25.4234 1243.27 25.4234C1243.25 25.3721 1243.16 25.0253 1243.03 24.6079C1242.96 24.3659 1242.87 24.1284 1242.77 23.8966C1243.16 23.3547 1243.32 22.6813 1243.23 22.0191C1243.15 21.5085 1242.91 21.0373 1242.55 20.6771C1241.85 20.0805 1241.03 19.6657 1240.14 19.4692C1240.01 19.4313 1239.57 19.3087 1239.53 19.2967C1239.53 19.2711 1239.5 17.8319 1239.47 17.2141C1239.46 16.5945 1239.37 15.9792 1239.2 15.3835C1238.99 14.5287 1238.56 13.7468 1237.95 13.1202C1239.48 11.5161 1240.43 9.7492 1240.43 8.2334C1240.42 5.31828 1236.89 4.43613 1232.55 6.26306C1232.54 6.26511 1231.63 6.65657 1231.62 6.65994C1231.62 6.65584 1229.96 5.00189 1229.93 4.97965C1224.98 0.592294 1209.48 18.0734 1214.44 22.3191L1215.52 23.2499C1215.23 24.0457 1215.12 24.9003 1215.22 25.7441C1215.36 26.9719 1215.96 28.0982 1216.89 28.898C1217.79 29.729 1218.95 30.2047 1220.17 30.2387C1222.1 34.748 1226.5 37.5141 1231.67 37.6698C1237.21 37.8368 1241.86 35.1983 1243.81 30.4585ZM1244.95 25.1222C1245.42 25.7448 1245.67 26.5171 1245.64 27.3041C1245.59 28.5318 1245.34 29.7422 1244.89 30.8847L1244.88 30.9115C1243.88 33.3687 1242.12 35.4327 1239.87 36.7994C1237.53 38.1817 1234.87 38.8917 1232.16 38.8534H1232.16C1231.99 38.8534 1231.81 38.8507 1231.64 38.8454C1228.97 38.7887 1226.36 38.0069 1224.09 36.5811C1222.09 35.3073 1220.47 33.5011 1219.41 31.3585C1218.18 31.1655 1217.04 30.6167 1216.12 29.7783C1214.97 28.7827 1214.24 27.3839 1214.06 25.8615C1213.99 25.1219 1214.03 24.3741 1214.19 23.6484L1213.69 23.2164C1213.28 22.8593 1212.95 22.4213 1212.71 21.9293C1212.48 21.4375 1212.35 20.9021 1212.32 20.3561C1212.28 19.223 1212.48 18.0936 1212.89 17.0407C1213.92 14.1775 1216.3 10.7681 1219.24 7.92053C1220.56 6.62454 1222.01 5.48805 1223.59 4.53387C1224.9 3.68156 1226.4 3.18861 1227.96 3.10296C1228.96 3.07639 1229.94 3.42938 1230.7 4.09338C1230.74 4.13187 1231.39 4.77871 1231.88 5.27011C1232.01 5.21699 1232.1 5.17878 1232.1 5.17777C1233.56 4.53135 1235.13 4.17741 1236.72 4.13538C1239.67 4.13538 1241.58 5.74323 1241.58 8.2316C1241.59 9.76707 1240.85 11.4883 1239.48 13.1545C1239.85 13.7392 1240.13 14.3785 1240.31 15.05C1240.51 15.7374 1240.61 16.4474 1240.63 17.1624C1240.64 17.47 1240.66 17.9636 1240.67 18.3993C1241.68 18.6588 1242.61 19.162 1243.38 19.8661C1243.91 20.3969 1244.26 21.0853 1244.37 21.8301C1244.48 22.5653 1244.37 23.3185 1244.05 23.9868C1244.08 24.0705 1244.11 24.1614 1244.14 24.2577C1244.16 24.3417 1244.19 24.4226 1244.21 24.4994C1244.49 24.6556 1244.75 24.8673 1244.95 25.1222H1244.95Z" fill="#0A1833"/>
<path d="M1241.44 23.6662C1241.62 23.4867 1241.77 23.2672 1241.87 23.0235C1241.96 22.7797 1242 22.5177 1241.98 22.2561C1241.95 21.9925 1241.83 21.7485 1241.64 21.5609C1241.09 21.1002 1240.44 20.7839 1239.75 20.6404C1239.43 20.5487 1239.21 20.4901 1238.98 20.4115C1238.57 20.2719 1238.37 20.1593 1238.32 19.3614C1238.3 19.0124 1238.24 17.7967 1238.22 17.2943C1238.18 16.4141 1238.08 15.2108 1237.35 14.7141C1237.17 14.5895 1236.95 14.5189 1236.73 14.5101C1236.61 14.5023 1236.48 14.5148 1236.36 14.5471C1235.99 14.6347 1235.66 14.8296 1235.4 15.108C1235.06 15.4221 1234.66 15.6612 1234.22 15.8101C1233.79 15.9591 1233.33 16.0147 1232.87 15.9733C1232.36 15.9514 1231.83 15.8701 1231.21 15.8324C1231.09 15.8252 1230.97 15.8175 1230.85 15.8111C1230.05 15.835 1229.29 16.1498 1228.7 16.6979C1228.11 17.2461 1227.73 17.9911 1227.64 18.7971C1227.28 21.2971 1229.05 22.589 1229.56 23.3471C1229.63 23.4438 1229.68 23.5621 1229.7 23.6869C1229.68 23.8254 1229.62 23.9535 1229.51 24.045L1229.51 24.0457C1228.81 24.8516 1228.32 25.8239 1228.08 26.874C1227.84 27.9241 1227.86 29.0184 1228.14 30.0571C1228.21 30.3065 1228.3 30.5503 1228.4 30.7862C1229.69 33.8733 1233.68 35.3109 1237.57 34.0034C1238.08 33.8321 1238.58 33.6171 1239.05 33.3607C1239.91 32.9267 1240.67 32.3367 1241.32 31.6201C1242.32 30.5841 1242.98 29.254 1243.21 27.8169C1243.32 27.0213 1243.15 26.7133 1242.92 26.5653C1242.75 26.4708 1242.56 26.4349 1242.37 26.4632C1242.27 25.8386 1242.1 25.2287 1241.86 24.6472L1241.44 23.6662Z" fill="#0A1833"/>
<path d="M1235.05 11.7441C1235.11 11.7587 1235.15 11.6484 1235.1 11.6163C1234.17 11.1261 1233.14 10.853 1232.09 10.817C1232.08 10.8169 1232.07 10.8139 1232.06 10.8084C1232.06 10.8029 1232.05 10.7951 1232.04 10.7859C1232.04 10.7767 1232.04 10.7665 1232.04 10.7563C1232.04 10.7461 1232.04 10.7364 1232.05 10.7281C1232.21 10.5118 1232.4 10.3181 1232.61 10.1521C1232.62 10.1447 1232.63 10.1343 1232.63 10.1225C1232.64 10.1107 1232.64 10.0981 1232.63 10.0867C1232.63 10.0752 1232.62 10.0654 1232.61 10.0587C1232.6 10.0521 1232.59 10.0489 1232.58 10.0496C1231.29 10.1777 1230.06 10.6196 1228.98 11.3375C1228.97 11.3439 1228.96 11.3472 1228.95 11.3472C1228.94 11.3471 1228.93 11.3437 1228.92 11.3374C1228.91 11.3311 1228.9 11.3221 1228.9 11.3115C1228.9 11.3011 1228.89 11.2896 1228.9 11.2786C1228.98 10.9493 1229.11 10.6327 1229.28 10.3364C1229.28 10.3263 1229.28 10.3146 1229.28 10.3031C1229.28 10.2916 1229.28 10.2809 1229.27 10.2727C1229.26 10.2644 1229.25 10.2589 1229.24 10.2571C1229.23 10.2553 1229.22 10.2572 1229.21 10.2625C1227.65 11.1317 1226.26 12.2827 1225.11 13.6588C1225.1 13.6693 1225.1 13.6827 1225.1 13.6967C1225.1 13.7105 1225.1 13.7239 1225.11 13.7342C1225.12 13.7445 1225.13 13.7509 1225.15 13.7524C1225.16 13.7539 1225.17 13.7502 1225.18 13.7421C1226.52 12.7955 1228.02 12.1218 1229.61 11.7589C1231.4 11.339 1233.26 11.334 1235.05 11.7441" fill="#0A1833"/>
<path d="M1230.46 7.27714C1230.46 7.27714 1229.11 5.68992 1228.71 5.57285C1226.2 4.88577 1220.79 8.67354 1217.33 13.6778C1215.94 15.7026 1213.93 19.2883 1214.89 21.1325C1215.23 21.5465 1215.62 21.9218 1216.04 22.2515C1216.68 21.3381 1217.64 20.7132 1218.73 20.5087C1220.09 16.6375 1222.48 13.226 1225.64 10.6529C1227.15 9.39367 1228.77 8.26447 1230.46 7.27714Z" fill="#0A1833"/>
<path d="M1221.63 26.7369C1221.65 26.7608 1221.66 26.7902 1221.66 26.821C1221.67 26.8519 1221.66 26.8829 1221.65 26.91C1221.57 27.0299 1221.47 27.1268 1221.34 27.1898C1221.22 27.2528 1221.08 27.2792 1220.94 27.2663C1220.7 27.2394 1220.47 27.1185 1220.31 26.9282C1220.15 26.7378 1220.06 26.4922 1220.07 26.241C1220.07 25.8985 1220.13 25.5586 1220.25 25.24C1220.33 25.0404 1220.34 24.8196 1220.28 24.6146C1220.21 24.4096 1220.08 24.233 1219.91 24.1144C1219.8 24.0443 1219.68 23.9961 1219.56 23.9727C1219.44 23.9493 1219.31 23.9512 1219.19 23.9782C1219.07 24.0038 1218.96 24.0535 1218.86 24.1243C1218.76 24.1952 1218.67 24.2857 1218.6 24.3906C1218.51 24.5521 1218.44 24.725 1218.39 24.905C1218.38 24.9368 1218.37 24.9616 1218.37 24.9777C1218.29 25.2012 1218.16 25.2664 1218.07 25.2544C1218.03 25.2486 1217.97 25.2203 1217.93 25.118C1217.89 24.8222 1217.91 24.5196 1217.99 24.2333C1218.08 23.947 1218.23 23.6844 1218.43 23.4656C1218.6 23.2812 1218.81 23.1404 1219.04 23.0548C1219.27 22.969 1219.52 22.941 1219.77 22.9729C1220.03 23.0093 1220.28 23.1108 1220.49 23.2682C1220.7 23.4257 1220.87 23.6343 1220.99 23.8752C1221.1 24.1714 1221.15 24.4905 1221.12 24.8078C1221.1 25.1252 1221 25.4322 1220.84 25.7052C1220.82 25.7516 1220.8 25.7942 1220.78 25.8326C1220.73 25.9393 1220.69 26.0585 1220.69 26.1803C1220.69 26.3021 1220.71 26.4228 1220.77 26.5322C1220.81 26.5975 1220.87 26.6505 1220.94 26.6865C1221.01 26.7225 1221.09 26.7404 1221.17 26.7385C1221.24 26.7374 1221.31 26.7269 1221.38 26.7072C1221.48 26.6852 1221.57 26.6626 1221.63 26.7369ZM1244.43 27.3154C1244.38 28.3944 1244.15 29.4576 1243.77 30.4633C1241.83 35.193 1237.21 37.826 1231.7 37.6594C1226.57 37.504 1222.2 34.7436 1220.28 30.2438C1219.07 30.2094 1217.91 29.7346 1217.02 28.9059C1216.1 28.1061 1215.5 26.9826 1215.36 25.7587C1215.27 24.9166 1215.37 24.064 1215.66 23.2697L1214.58 22.3407C1209.66 18.104 1225.06 0.659609 1229.98 5.03785C1230.01 5.05989 1231.66 6.71051 1231.66 6.71458C1231.67 6.71118 1232.57 6.32043 1232.57 6.31853C1236.89 4.4954 1240.4 5.37567 1240.4 8.28455C1240.41 9.79729 1239.46 11.5606 1237.94 13.1612C1238.55 13.7873 1238.98 14.5674 1239.19 15.4196C1239.35 16.0142 1239.44 16.6284 1239.45 17.2466C1239.48 17.863 1239.51 19.2992 1239.51 19.3248C1239.55 19.3366 1239.99 19.459 1240.12 19.4969C1241 19.6934 1241.82 20.1074 1242.51 20.7024C1242.87 21.0624 1243.11 21.5324 1243.18 22.0414C1243.28 22.7019 1243.12 23.3735 1242.73 23.915C1242.83 24.1464 1242.92 24.3834 1242.99 24.625C1243.12 25.0416 1243.21 25.3872 1243.23 25.4386C1243.69 25.4386 1244.43 25.9885 1244.43 27.3154V27.3154ZM1222.68 24.72C1222.34 22.5114 1220.88 21.7331 1219.88 21.6776C1219.63 21.6641 1219.38 21.6822 1219.14 21.7316C1217.36 22.0966 1216.36 23.6358 1216.56 25.6358C1216.7 26.5329 1217.14 27.3546 1217.8 27.968C1218.46 28.5815 1219.3 28.9508 1220.19 29.0165C1220.36 29.0211 1220.54 29.0089 1220.7 28.98C1222.5 28.6672 1222.97 26.676 1222.68 24.72ZM1225.71 10.7C1227.21 9.44375 1228.82 8.31695 1230.51 7.33131C1230.51 7.33131 1229.17 5.74749 1228.76 5.63077C1226.27 4.94492 1220.9 8.72475 1217.46 13.7186C1216.07 15.7391 1214.09 19.3173 1215.04 21.1576C1215.37 21.5706 1215.75 21.9451 1216.17 22.2743C1216.81 21.3638 1217.77 20.7402 1218.85 20.5352C1220.2 16.6758 1222.57 13.2717 1225.71 10.7ZM1231.12 28.1774C1231.19 28.471 1231.33 28.741 1231.53 28.9588C1231.74 29.1767 1232 29.3344 1232.28 29.4153C1232.58 29.5277 1232.89 29.6125 1233.2 29.6686C1237.13 30.359 1240.82 28.0642 1241.64 27.4863C1241.71 27.4429 1241.75 27.4852 1241.7 27.5618C1241.67 27.6026 1241.65 27.642 1241.62 27.6798C1240.6 29.0134 1237.88 30.5577 1234.33 30.5572C1232.78 30.5569 1231.23 30.0012 1230.67 29.1475C1229.79 27.8228 1230.62 25.8892 1232.09 26.0906C1232.09 26.0909 1232.59 26.1488 1232.73 26.1646C1235.02 26.3876 1237.31 26.0125 1239.41 25.075C1241.42 24.1274 1242.17 23.0845 1242.06 22.2403C1242.02 21.9782 1241.9 21.7358 1241.71 21.5501C1241.17 21.092 1240.52 20.778 1239.82 20.636C1239.5 20.545 1239.29 20.4868 1239.05 20.4088C1238.64 20.27 1238.44 20.1583 1238.39 19.3659C1238.37 19.0194 1238.31 17.8122 1238.29 17.3132C1238.25 16.4391 1238.15 15.2442 1237.42 14.7509C1237.24 14.6271 1237.02 14.557 1236.8 14.5484C1236.67 14.5406 1236.55 14.5531 1236.43 14.5852C1236.06 14.6719 1235.73 14.8654 1235.46 15.1422C1235.12 15.4545 1234.72 15.692 1234.29 15.8398C1233.85 15.9877 1233.39 16.0427 1232.94 16.0014C1232.43 15.9798 1231.89 15.899 1231.27 15.8616C1231.15 15.8543 1231.03 15.8467 1230.91 15.8404C1230.11 15.8617 1229.35 16.1727 1228.76 16.7169C1228.17 17.2612 1227.8 18.0024 1227.7 18.8056C1227.35 21.2882 1229.11 22.571 1229.62 23.3238C1229.7 23.4197 1229.75 23.5372 1229.76 23.6614C1229.74 23.7991 1229.68 23.9264 1229.58 24.0169V24.0177C1228.87 24.8151 1228.38 25.7802 1228.14 26.8236C1227.9 27.867 1227.92 28.9551 1228.2 29.9871C1228.27 30.2349 1228.36 30.477 1228.46 30.7112C1229.75 33.7768 1233.74 35.2042 1237.64 33.9058C1238.15 33.7358 1238.65 33.5224 1239.12 33.2679C1239.98 32.8376 1240.75 32.2517 1241.39 31.5392C1242.4 30.5132 1243.06 29.1918 1243.28 27.7625C1243.4 26.9723 1243.23 26.6667 1242.99 26.5196C1242.83 26.4258 1242.64 26.3901 1242.45 26.4181C1242.35 25.7976 1242.17 25.1919 1241.93 24.6147C1240.82 25.469 1239.56 26.1074 1238.21 26.498C1236.6 26.9614 1234.92 27.1465 1233.25 27.0455C1232.17 26.9568 1231.46 26.6362 1231.19 27.5242C1232.82 28.0779 1234.55 28.2572 1236.25 28.0494C1236.27 28.0481 1236.28 28.0492 1236.29 28.0528C1236.3 28.0563 1236.31 28.0621 1236.32 28.0699C1236.33 28.0776 1236.34 28.0872 1236.34 28.098C1236.35 28.1088 1236.35 28.1207 1236.36 28.1329C1236.36 28.1534 1236.35 28.174 1236.34 28.1918C1236.33 28.2095 1236.32 28.2237 1236.3 28.2322C1236.3 28.2322 1234.3 29.1791 1231.12 28.1774ZM1225.26 13.7811C1226.58 12.837 1228.08 12.1648 1229.65 11.8022C1231.43 11.3832 1233.28 11.3782 1235.06 11.7874C1235.13 11.802 1235.16 11.6919 1235.11 11.66C1234.18 11.171 1233.16 10.8984 1232.12 10.8622C1232.11 10.862 1232.1 10.859 1232.09 10.8536C1232.09 10.8481 1232.08 10.8404 1232.08 10.8312C1232.07 10.822 1232.07 10.8118 1232.07 10.8017C1232.07 10.7915 1232.07 10.7818 1232.08 10.7736C1232.24 10.5578 1232.43 10.3646 1232.64 10.1988C1232.65 10.1913 1232.66 10.1809 1232.66 10.1692C1232.67 10.1574 1232.66 10.145 1232.66 10.1335C1232.66 10.1221 1232.65 10.1123 1232.64 10.1056C1232.63 10.099 1232.62 10.0957 1232.6 10.0964C1231.33 10.2245 1230.1 10.6656 1229.03 11.3817C1229.02 11.388 1229.01 11.3914 1229 11.3913C1228.99 11.3913 1228.98 11.3879 1228.97 11.3816C1228.96 11.3752 1228.96 11.3662 1228.95 11.3558C1228.95 11.3453 1228.95 11.3339 1228.95 11.323C1229.03 10.9946 1229.16 10.6786 1229.33 10.3828C1229.33 10.3727 1229.33 10.361 1229.33 10.3496C1229.33 10.3382 1229.33 10.3276 1229.32 10.3193C1229.31 10.311 1229.3 10.3056 1229.29 10.3037C1229.28 10.3018 1229.27 10.3036 1229.26 10.3089C1227.71 11.1773 1226.33 12.326 1225.19 13.6983C1225.18 13.7087 1225.17 13.7221 1225.17 13.7359C1225.17 13.7498 1225.18 13.763 1225.19 13.7732C1225.2 13.7835 1225.21 13.79 1225.22 13.7914C1225.24 13.7928 1225.25 13.7892 1225.26 13.7811ZM1235.63 22.2082C1235.74 22.2775 1235.87 22.3041 1235.99 22.2828C1236.12 22.2616 1236.23 22.194 1236.31 22.093C1236.41 21.8976 1236.27 21.6327 1235.99 21.5011C1235.88 21.4318 1235.75 21.4052 1235.63 21.4266C1235.5 21.4478 1235.39 21.5155 1235.31 21.6166C1235.21 21.8118 1235.35 22.0767 1235.63 22.2082ZM1236.48 19.0406C1236.55 19.3922 1236.69 19.7242 1236.9 20.0119C1237.12 19.9848 1237.34 19.9848 1237.55 20.0119C1237.68 19.6258 1237.69 19.2102 1237.58 18.8178C1237.43 18.0936 1237.22 17.6554 1236.78 17.7235C1236.34 17.7918 1236.32 18.3164 1236.48 19.0406ZM1237.41 20.704C1237.3 20.6718 1237.18 20.6756 1237.08 20.7148C1236.97 20.7541 1236.87 20.8268 1236.81 20.9228C1236.74 21.0189 1236.71 21.1334 1236.71 21.2502C1236.71 21.3671 1236.75 21.4804 1236.82 21.5744C1236.89 21.6683 1236.98 21.7381 1237.09 21.7739C1237.2 21.8097 1237.32 21.8098 1237.43 21.7741C1237.54 21.7384 1237.63 21.6687 1237.7 21.5748C1237.77 21.481 1237.81 21.3677 1237.81 21.2508C1237.83 21.125 1237.79 20.9979 1237.72 20.896C1237.65 20.794 1237.54 20.7253 1237.41 20.704Z" fill="#D8ED58"/>
<path d="M1230.14 20.6377C1230.07 20.6277 1230.04 20.5973 1230.03 20.557C1230 20.4321 1230.19 20.2265 1230.39 20.0781C1230.68 19.8619 1231.02 19.7255 1231.38 19.6819C1231.74 19.6383 1232.1 19.6889 1232.43 19.8289C1232.74 19.9593 1233.01 20.1781 1233.2 20.459C1233.27 20.5771 1233.29 20.6687 1233.24 20.7167C1233.17 20.7937 1232.99 20.7055 1232.69 20.5727C1232.33 20.3943 1231.93 20.3077 1231.54 20.3206C1231.06 20.3995 1230.6 20.5054 1230.14 20.6377ZM1233.11 21.259C1232.98 21.1215 1232.82 21.0185 1232.64 20.9594C1232.46 20.9003 1232.27 20.8868 1232.09 20.9202C1231.82 20.9495 1231.56 21.0583 1231.35 21.2334C1231.25 21.3053 1231.18 21.4127 1231.16 21.5337C1231.16 21.5471 1231.16 21.5605 1231.17 21.5729C1231.17 21.5853 1231.18 21.5965 1231.19 21.6055C1231.21 21.6217 1231.23 21.6305 1231.25 21.6302C1231.35 21.6157 1231.45 21.5888 1231.54 21.5502C1231.94 21.3976 1232.37 21.3522 1232.79 21.4183C1232.98 21.4406 1233.07 21.453 1233.12 21.385C1233.13 21.3653 1233.13 21.3427 1233.13 21.3203C1233.13 21.2977 1233.12 21.2764 1233.11 21.259Z" fill="black"/>
<path d="M1232.55 21.442C1232.68 20.9971 1232.68 20.5272 1232.57 20.0787C1232.41 19.3534 1232.17 18.939 1231.73 19.0073C1231.29 19.0755 1231.27 19.66 1231.42 20.3883C1231.48 20.722 1231.61 21.0398 1231.8 21.3244C1232.15 21.826 1232.39 21.6962 1232.55 21.442H1232.55Z" fill="#D8ED58"/>
<path d="M1264.97 19.0417C1262.83 19.0417 1261.77 20.7605 1261.28 21.8698C1261.01 22.487 1260.94 22.9753 1260.72 22.9753C1260.4 22.9753 1260.63 22.5534 1260.38 21.6081C1260.04 20.3659 1259.03 19.0495 1256.9 19.0495C1254.65 19.0495 1253.69 20.987 1253.23 22.0534C1252.92 22.78 1252.92 22.9831 1252.68 22.9831C1252.34 22.9831 1252.62 22.405 1252.78 21.7253C1252.97 20.948 1252.99 20.1394 1252.85 19.3503H1249.29V33.0303H1254.15V26.2334C1254.15 24.8896 1254.7 23.1904 1255.64 23.1904C1256.74 23.1904 1256.95 24.0458 1256.95 25.6279V33.0459H1261.83V26.2334C1261.83 25.0381 1262.31 23.1904 1263.33 23.1904C1264.44 23.1904 1264.63 24.3935 1264.63 25.6279V33.042H1269.42V24.9912C1269.43 21.4209 1268.19 19.042 1264.97 19.042L1264.97 19.0417Z" fill="#0A1833"/>
<path d="M1347.5 19.0417C1345.36 19.0417 1344.3 20.7605 1343.81 21.8698C1343.54 22.487 1343.47 22.9753 1343.25 22.9753C1342.93 22.9753 1343.15 22.4362 1342.91 21.6081C1342.55 20.3737 1341.66 19.0495 1339.43 19.0495C1337.19 19.0495 1336.22 20.987 1335.76 22.0534C1335.45 22.78 1335.45 22.9831 1335.21 22.9831C1334.86 22.9831 1335.15 22.405 1335.31 21.7253C1335.5 20.948 1335.52 20.1394 1335.38 19.3503H1331.82V33.0303H1336.68V26.2334C1336.68 24.8896 1337.23 23.1904 1338.17 23.1904C1339.26 23.1904 1339.48 24.0458 1339.48 25.6279V33.0459H1344.36V26.2334C1344.36 25.0381 1344.84 23.1904 1345.86 23.1904C1346.95 23.1904 1347.16 24.3935 1347.16 25.6279V33.042H1351.95V24.9912C1351.96 21.4209 1350.73 19.042 1347.5 19.042V19.0417Z" fill="#0A1833"/>
<path d="M1277.73 19.0445C1275.52 19.0327 1273.34 19.5093 1271.33 20.439V24.5523C1271.33 24.5523 1274.28 22.8179 1276.68 22.8179C1278.59 22.8179 1278.82 23.8726 1278.74 24.7398C1278.74 24.7398 1278.19 24.5913 1276.5 24.5913C1272.54 24.5913 1270.54 26.4311 1270.54 29.3805C1270.54 32.1773 1272.79 33.3453 1274.68 33.3453C1277.45 33.3453 1278.66 31.4507 1279.04 30.5483C1279.29 29.9233 1279.34 29.5053 1279.57 29.5053C1279.84 29.5053 1279.75 29.8061 1279.73 30.4272C1279.71 31.517 1279.76 32.3374 1279.92 33.0327H1283.6V26.3061C1283.6 22.103 1282.14 19.0444 1277.73 19.0444V19.0445ZM1276.54 29.8375C1275.38 30.1109 1274.78 29.7437 1274.78 28.9586C1274.78 27.8805 1275.87 27.4469 1277.43 27.4469C1278.11 27.4469 1278.76 27.5094 1278.76 27.5094C1278.76 27.9703 1277.78 29.5446 1276.54 29.8375Z" fill="#0A1833"/>
<path d="M1291.61 15.2135H1296.47V33.0375H1291.61V15.2135Z" fill="#0A1833"/>
<path d="M1301.82 26.1966C1301.82 24.9661 1302.94 23.8489 1304.99 23.8489C1307.24 23.8489 1309.03 24.9505 1309.44 25.1966V20.4388C1309.44 20.4388 1308.02 19.0443 1304.52 19.0443C1300.84 19.0443 1297.77 21.2474 1297.77 25.9857C1297.77 30.724 1300.55 33.3451 1304.51 33.3451C1307.6 33.3451 1309.44 31.6107 1309.44 31.6107V27.099C1308.86 27.431 1307.24 28.5834 1305.01 28.5834C1302.67 28.5834 1301.82 27.4779 1301.82 26.1967V26.1966Z" fill="#0A1833"/>
<path d="M1319.29 19.0456C1316.47 19.0456 1315.4 21.7644 1315.18 22.2448C1314.97 22.7252 1314.86 22.9908 1314.68 22.983C1314.37 22.9752 1314.59 22.4049 1314.71 22.0338C1315.18 20.4869 1315.42 18.8776 1315.42 17.2565C1315.42 15.7292 1315.21 15.2213 1315.21 15.2213H1311.01V33.0373H1315.87V26.2326C1315.87 25.1232 1316.31 23.1896 1317.53 23.1896C1318.55 23.1896 1318.86 23.9592 1318.86 25.5061V33.0413H1323.72V25.7991C1323.73 22.2834 1323.16 19.0451 1319.29 19.0451V19.0456Z" fill="#0A1833"/>
<path d="M1325.32 19.375V33.039H1330.18V19.375C1330.18 19.375 1329.36 19.8555 1327.75 19.8555C1326.14 19.8555 1325.32 19.375 1325.32 19.375Z" fill="#0A1833"/>
<path d="M1330.71 17.0625C1330.71 15.9648 1329.38 15.0781 1327.73 15.0781C1326.09 15.0781 1324.76 15.9649 1324.76 17.0625C1324.76 18.1563 1326.09 19.0469 1327.73 19.0469C1329.38 19.0469 1330.71 18.1563 1330.71 17.0625Z" fill="#0A1833"/>
<path d="M1285.17 19.375V33.039H1290.03V19.375C1290.03 19.375 1289.21 19.8555 1287.6 19.8555C1286 19.8555 1285.17 19.375 1285.17 19.375Z" fill="#0A1833"/>
<path d="M1290.56 17.0625C1290.56 15.9648 1289.23 15.0781 1287.59 15.0781C1285.94 15.0781 1284.61 15.9649 1284.61 17.0625C1284.61 18.1563 1285.94 19.0469 1287.59 19.0469C1289.23 19.0469 1290.56 18.1563 1290.56 17.0625Z" fill="#0A1833"/>
<path d="M1361.62 19.0417C1359.12 19.0417 1357.97 20.9636 1357.48 22.0456C1357.15 22.7644 1357.16 22.9753 1356.92 22.9753C1356.58 22.9753 1356.87 22.3972 1357.02 21.7175C1357.21 20.944 1357.23 20.1355 1357.09 19.3503H1353.53V36.8153H1358.39V31.2762C1358.97 32.2762 1360.03 33.3426 1361.68 33.3426C1365.2 33.3426 1366.97 30.2996 1366.97 26.1981C1366.96 21.5458 1364.85 19.0419 1361.62 19.0419V19.0417ZM1360.28 30.1007C1359.17 30.1007 1358.35 28.6593 1358.35 26.6437C1358.35 24.6867 1359.19 23.1867 1360.25 23.1867C1361.6 23.1867 1362.18 24.4562 1362.18 26.6437C1362.18 28.921 1361.64 30.1007 1360.28 30.1007Z" fill="#0A1833"/>
<path d="M1262.73 7.30732C1263.3 7.31123 1263.77 6.83466 1263.77 6.25262C1263.77 5.66668 1263.31 5.19012 1262.74 5.19012C1262.16 5.19012 1261.7 5.66278 1261.7 6.24872C1261.7 6.83466 1262.16 7.30732 1262.73 7.30732ZM1254.42 9.35035C1254.72 8.65108 1255.54 8.02222 1256.55 8.02222C1258.33 8.02222 1259.08 9.42455 1259.08 10.8542V15.2332H1257.36V11.3504C1257.36 10.5183 1257.18 9.47922 1256.08 9.47922C1254.98 9.47922 1254.48 10.4402 1254.48 11.3776V15.2332H1252.76V8.22535H1254.39V9.34642L1254.42 9.35035ZM1251 15.2332H1249.29V8.22535H1251V15.2332ZM1281.51 6.24872C1281.51 6.83466 1281.05 7.30732 1280.48 7.30732C1279.91 7.30732 1279.44 6.83466 1279.44 6.24872C1279.44 5.66669 1279.91 5.19012 1280.48 5.19012C1281.05 5.19012 1281.51 5.66668 1281.51 6.24872ZM1259.95 9.77215H1261.87V15.233H1263.59V9.77215H1265.51V8.22135H1259.95V9.77215ZM1269.71 13.9791C1270.8 13.9791 1271.31 13.0181 1271.31 12.0807V8.22522H1273.03V15.233H1271.4V14.1119H1271.37C1271.07 14.8151 1270.26 15.44 1269.24 15.44C1267.46 15.44 1266.71 14.0378 1266.71 12.608V8.22522H1268.42V12.108C1268.42 12.9479 1268.61 13.9791 1269.71 13.9791H1269.71ZM1277.7 8.21742V9.76822H1279.63V15.233H1281.34V9.77215H1283.26V8.22135L1277.7 8.21742ZM1276.5 15.2252H1274.78V8.22522H1276.5L1276.5 15.2252Z" fill="#0A1833"/>
<path fill-rule="evenodd" clip-rule="evenodd" d="M1466.55 26.6574C1465.87 27.8779 1464.76 28.7786 1463.44 29.1708C1463.63 28.507 1463.73 27.8193 1463.73 27.1279C1463.73 23.6847 1461.42 20.7968 1458.33 20.0104C1458.97 19.3647 1459.76 18.8996 1460.63 18.6599C1461.3 18.4727 1461.99 18.4244 1462.68 18.518C1463.37 18.6115 1464.03 18.8451 1464.63 19.2049C1467.14 20.7093 1468.01 24.0523 1466.55 26.6574ZM1456.64 32.5831C1455.26 32.5831 1453.95 32.0171 1452.98 31.0506C1453.63 30.8866 1454.26 30.6282 1454.83 30.2831C1457.71 28.5621 1458.98 25.0531 1458.09 21.8865C1460.29 22.54 1461.91 24.6399 1461.91 27.1279C1461.91 30.1354 1459.55 32.5831 1456.64 32.5831ZM1446.73 26.6574C1446.04 25.4233 1445.86 23.9693 1446.18 22.6169C1446.64 23.1137 1447.17 23.5413 1447.75 23.8873C1448.82 24.5302 1450.04 24.8688 1451.28 24.8686C1452.24 24.8678 1453.18 24.6674 1454.06 24.2796C1454.94 23.8918 1455.74 23.3246 1456.4 22.6121C1456.95 24.9129 1456 27.4112 1453.93 28.6544C1453.13 29.1325 1452.22 29.3843 1451.3 29.3841C1450.37 29.3845 1449.46 29.1325 1448.66 28.6537C1447.85 28.1749 1447.19 27.4863 1446.73 26.6574H1446.73ZM1446.73 14.8061C1447.41 13.5855 1448.52 12.6848 1449.84 12.2927C1449.65 12.9566 1449.55 13.6445 1449.55 14.3361C1449.55 17.7774 1451.86 20.6645 1454.95 21.4522C1453.3 23.1011 1450.74 23.5024 1448.65 22.2586C1447.44 21.5295 1446.56 20.3534 1446.2 18.9456C1446.02 18.2539 1445.97 17.5322 1446.06 16.8218C1446.15 16.1116 1446.38 15.4265 1446.73 14.8061ZM1456.64 8.88034C1458.02 8.88034 1459.33 9.44587 1460.3 10.4115C1459.65 10.5769 1459.03 10.8358 1458.45 11.1803C1456.81 12.1606 1455.64 13.7423 1455.15 15.6353C1454.81 16.9287 1454.83 18.2918 1455.19 19.5768C1452.99 18.9227 1451.37 16.823 1451.37 14.3361C1451.37 11.3278 1453.73 8.88034 1456.64 8.88034ZM1466.55 14.8061C1467.24 16.0418 1467.42 17.4973 1467.1 18.8514C1466.64 18.3525 1466.11 17.9232 1465.53 17.5762C1463.89 16.5967 1461.99 16.3364 1460.16 16.8435C1458.9 17.1907 1457.77 17.8873 1456.88 18.8565C1456.66 17.9579 1456.67 17.0169 1456.9 16.122C1457.26 14.7145 1458.14 13.5379 1459.36 12.809C1460.58 12.0807 1462 11.8871 1463.35 12.2641C1464.71 12.6413 1465.85 13.5441 1466.55 14.8061ZM1468.13 13.8663C1467.18 12.169 1465.65 10.9551 1463.82 10.448C1463.39 10.3287 1462.95 10.2517 1462.5 10.2179C1461.19 8.22115 1458.99 7 1456.64 7C1454.21 7 1452.06 8.27708 1450.78 10.2171C1448.45 10.3942 1446.33 11.758 1445.15 13.8657C1444.21 15.5628 1443.95 17.54 1444.44 19.4331C1444.56 19.8801 1444.72 20.315 1444.91 20.732C1443.9 22.9067 1443.98 25.4911 1445.15 27.598C1446.37 29.7795 1448.51 31.0673 1450.77 31.2423C1452.08 33.2407 1454.29 34.464 1456.64 34.464C1459.07 34.464 1461.22 33.1867 1462.5 31.2464C1463.66 31.1565 1464.77 30.777 1465.75 30.1412C1466.73 29.5053 1467.55 28.6322 1468.13 27.598C1469.34 25.416 1469.35 22.8498 1468.37 20.7355C1469.38 18.5597 1469.3 15.9743 1468.13 13.8663" fill="#0A1833"/>
<path d="M1480.02 19.3799C1478.52 19.3799 1477.57 19.8872 1477.57 20.7916C1477.57 21.696 1478.57 22.0933 1480.06 22.2539C1482.18 22.4399 1484.93 22.8118 1484.93 25.7789C1484.93 27.8921 1483 29.3967 1480.04 29.3967C1478.17 29.3967 1476.38 28.9741 1474.8 27.2835L1476.06 25.5928C1477.11 26.6833 1478.54 27.2911 1480.02 27.2835C1481.3 27.2835 1482.56 26.8862 1482.56 25.8212C1482.56 24.756 1481.58 24.4053 1479.88 24.2445C1477.73 24.0587 1475.19 23.3992 1475.19 20.8632C1475.19 18.3275 1477.83 17.3849 1479.97 17.3849C1481.57 17.3527 1483.14 17.8833 1484.41 18.8895L1483.15 20.3986C1482.24 19.7088 1481.14 19.3503 1480.02 19.3799ZM1492.88 27.1735C1494.09 27.1735 1495.49 26.751 1496.21 25.9437L1497.78 27.4483C1496.59 28.7713 1494.6 29.3967 1492.83 29.3967C1489.06 29.3967 1486.63 27.0553 1486.63 23.3909C1486.63 19.9124 1489.15 17.3849 1492.79 17.3849C1496.17 17.3849 1498.5 19.3546 1498.5 23.302C1498.5 23.6231 1498.47 23.974 1498.45 24.3207H1489.14C1489.34 26.1043 1490.75 27.1735 1492.88 27.1735ZM1492.79 19.5195C1491.04 19.5195 1489.52 20.4703 1489.16 22.3257H1496.13C1495.99 20.4915 1494.78 19.5195 1492.79 19.5195ZM1509.61 22.6934C1509.61 20.7239 1508.49 19.5871 1506.51 19.5871C1506.08 19.5833 1505.65 19.6715 1505.25 19.8461C1504.85 20.0207 1504.49 20.278 1504.19 20.6023C1503.89 20.9296 1503.65 21.3163 1503.5 21.7394C1503.34 22.1624 1503.27 22.6133 1503.29 23.0654V29.1219H1500.87V17.6638H1503.06L1503.21 19.2615C1504.16 18.0642 1505.58 17.3765 1507.07 17.3849C1509.84 17.3849 1512.01 19.1011 1512.01 22.6723V29.1221H1509.59L1509.62 22.6934H1509.61ZM1526.67 29.1221H1524.41L1524.27 27.3088C1523.37 28.6709 1521.87 29.4579 1520.29 29.3967C1516.96 29.3967 1514.42 27.1948 1514.42 23.3909C1514.42 19.4939 1516.91 17.3849 1520.24 17.3849C1521.64 17.3849 1523.53 18.0569 1524.27 19.4265V12.9089H1526.69L1526.67 29.1219V29.1221ZM1516.81 23.3909C1516.81 25.7111 1518.4 27.1735 1520.44 27.1735C1522.43 27.1735 1524.04 25.4856 1524.04 23.4035C1524.04 21.3215 1522.43 19.6334 1520.44 19.6334C1518.4 19.6334 1516.81 21.0706 1516.81 23.3909ZM1531.15 12.6048C1531.34 12.5885 1531.53 12.6143 1531.72 12.6807C1531.9 12.747 1532.06 12.8523 1532.2 12.9897C1532.34 13.1284 1532.45 13.2957 1532.53 13.4811C1532.61 13.6665 1532.64 13.866 1532.64 14.067C1532.58 14.8862 1531.93 15.5201 1531.15 15.5201C1530.36 15.5201 1529.71 14.8864 1529.66 14.067C1529.65 13.866 1529.69 13.6665 1529.77 13.4811C1529.84 13.2957 1529.95 13.1284 1530.09 12.9897C1530.23 12.8523 1530.4 12.747 1530.58 12.6807C1530.76 12.6143 1530.96 12.5885 1531.15 12.6048ZM1532.34 29.1221H1529.92V17.664H1532.34V29.1221ZM1544.31 22.6934C1544.31 20.7239 1543.2 19.5871 1541.21 19.5871C1540.78 19.5827 1540.35 19.6704 1539.95 19.8449C1539.55 20.0193 1539.19 20.2766 1538.89 20.601C1538.59 20.9284 1538.35 21.3153 1538.2 21.7387C1538.04 22.162 1537.97 22.6132 1537.99 23.0654V29.1219H1535.57V17.6638H1537.76L1537.9 19.2615C1538.86 18.0642 1540.28 17.3763 1541.77 17.3849C1544.54 17.3849 1546.71 19.1011 1546.71 22.6723V29.1221H1544.29L1544.31 22.6934ZM1552.21 19.5405C1552.96 18.171 1554.85 17.3849 1556.24 17.3849C1559.55 17.3849 1562.07 19.4982 1562.07 23.3909C1562.07 27.1948 1559.37 29.3967 1556.22 29.3967C1554.78 29.3967 1553.12 28.7713 1552.21 27.3088L1552.08 29.1221H1549.81V12.9089H1552.23L1552.21 19.5405ZM1552.35 23.3909C1552.35 23.8949 1552.44 24.3954 1552.62 24.8625C1552.8 25.3297 1553.08 25.7541 1553.42 26.1102C1553.76 26.463 1554.17 26.7395 1554.62 26.9224C1555.07 27.1053 1555.55 27.1907 1556.03 27.1735C1558.13 27.1735 1559.66 25.7113 1559.66 23.3909C1559.66 21.0706 1558.13 19.6334 1556.03 19.6334C1555.55 19.6169 1555.07 19.7021 1554.63 19.8837C1554.18 20.0652 1553.77 20.3395 1553.43 20.6895C1553.09 21.0429 1552.81 21.4639 1552.63 21.9278C1552.44 22.3918 1552.35 22.8892 1552.35 23.3909ZM1567.13 29.1221H1564.71V12.9089H1567.13V29.1221ZM1572.7 23.9024C1572.7 25.8508 1573.79 27.1948 1575.82 27.1948C1576.25 27.1992 1576.68 27.112 1577.08 26.9385C1577.47 26.765 1577.83 26.5089 1578.13 26.1864C1578.43 25.8607 1578.66 25.476 1578.81 25.0552C1578.96 24.6344 1579.03 24.1862 1579.01 23.7374V17.6638H1581.41V29.1219H1579.25L1579.11 27.5414C1578.13 28.7657 1576.67 29.4501 1575.15 29.3967C1572.32 29.3967 1570.31 27.3807 1570.31 23.9234V17.664H1572.71L1572.7 23.9024ZM1590.22 27.1735C1591.43 27.1735 1592.83 26.751 1593.56 25.9437L1595.12 27.4483C1593.93 28.7713 1591.95 29.3967 1590.18 29.3967C1586.4 29.3967 1583.98 27.0553 1583.98 23.3909C1583.98 19.9124 1586.5 17.3849 1590.13 17.3849C1593.51 17.3849 1595.84 19.3546 1595.84 23.302C1595.84 23.6231 1595.82 23.974 1595.8 24.3207H1586.47C1586.69 26.1043 1588.1 27.1735 1590.22 27.1735H1590.22ZM1590.13 19.5195C1588.38 19.5195 1586.87 20.4703 1586.5 22.3257H1593.47C1593.32 20.4915 1592.11 19.5195 1590.13 19.5195Z" fill="#0A1833"/>
</svg>
