<svg width="626" height="498" viewBox="0 0 626 498" fill="none" xmlns="http://www.w3.org/2000/svg">
<path class="first-beam" d="M680 48.0569L583.827 0H583.31L453.527 64.8509L454.044 504.08L490.239 491.161C522.038 479.276 549.442 453.439 549.959 409.516C550.476 372.053 550.218 156.572 549.959 113.166L680 48.0569Z" fill="#132340"/>
<path class="second-beam" d="M453.527 315.727L357.354 267.67H356.837L227.055 332.521L227.313 504.079V526.04L227.572 656L263.766 643.081C295.565 631.196 322.969 605.36 323.486 561.437C324.004 523.973 323.745 423.984 323.486 380.836L453.527 315.727Z" fill="#132340"/>
<path class="third-beam" d="M226.796 245.195L130.622 197.138H130.105L0.0646641 261.989C0.0646641 261.989 -0.193929 453.441 0.323131 490.905C1.09872 535.086 28.2445 560.923 60.0437 572.55L96.238 585.468L96.4964 455.508V433.547L96.7549 310.304L226.796 245.195Z" fill="#132340"/>
</svg>
